<?xml version="1.0" encoding="UTF-8"?>
<svg width="22px" height="24px" viewBox="0 0 22 24" version="1.1" xmlns="http://www.w3.org/2000/svg" xmlns:xlink="http://www.w3.org/1999/xlink">
    <title>Fill 93</title>
    <g id="Page-1" stroke="none" stroke-width="1" fill="none" fill-rule="evenodd">
        <g id="Invitació" transform="translate(-410, -319)" fill="#830D01">
            <path d="M428.798421,330.925199 C427.857979,331.988377 426.812441,332.948001 425.689242,333.811468 C425.142518,334.231911 424.571452,334.615761 424,335 C424.022796,334.959902 424.046752,334.920972 424.069934,334.881264 C424.538997,334.479506 424.978694,334.040765 425.423801,333.612146 C425.894022,333.15939 426.361925,332.70352 426.826737,332.244925 C427.761771,331.323063 428.685599,330.389522 429.598223,329.445081 C430.063421,328.963517 430.548325,328.495579 431,328 C430.351659,329.034759 429.604405,330.014627 428.798421,330.925199 Z M426.237414,332.005694 C427.257845,330.854169 428.399033,329.809783 429.643849,328.905534 C430.084052,328.585833 430.536673,328.28456 431,328 C430.637732,328.380556 430.285312,328.771397 429.923472,329.151524 C429.42075,329.679503 428.906894,330.197625 428.393467,330.715318 C427.366183,331.750704 426.327338,332.774519 425.276503,333.785907 C424.854285,334.192604 424.419649,334.589445 424,335 C424.659448,333.941043 425.410106,332.939513 426.237414,332.005694 Z M426.703604,336.259414 C427.132077,336.15896 427.565194,336.075064 428,336 C427.579969,336.15528 427.166693,336.329327 426.749617,336.487551 C426.186059,336.701337 425.622078,336.915491 425.056831,337.126334 C423.933935,337.546179 422.811039,337.966761 421.68941,338.38955 C421.1592,338.589354 420.625191,338.782534 420.096248,338.984914 C420.064165,338.989329 420.032083,338.995584 420,339 C422.033877,337.75923 424.304153,336.820925 426.703604,336.259414 Z M422.056488,338.769616 C421.706918,338.857262 421.354073,338.931553 421,339 C421.287761,338.874791 421.574703,338.748331 421.862464,338.623539 C422.411379,338.38606 422.962751,338.154424 423.511666,337.917362 C424.602947,337.44616 425.69341,336.974124 426.787147,336.509182 C427.093737,336.378965 427.400327,336.248331 427.707327,336.119783 C427.804339,336.079299 427.902169,336.039649 428,336 C426.209988,337.288397 424.185428,338.236227 422.056488,338.769616 Z M420.121607,339 C419.861749,336.923469 420.014854,334.826205 420.614635,332.773723 C420.690485,332.514986 420.776168,332.257079 420.867469,332 C420.962282,332.878628 421.026896,333.756427 420.98897,334.638372 C420.944022,335.695711 420.770549,336.752636 420.494538,337.797121 C420.388488,338.200154 420.259964,338.600699 420.121607,339 Z M421.014723,332.849988 C421.011209,332.309467 421.004426,331.769364 420.991759,331.23219 C420.99511,331.154793 420.998215,331.077397 421.001648,331 C421.074951,333.170452 421.065063,335.411188 420.970921,337.56114 C420.964546,337.708403 420.957028,337.853992 420.95,338 C421.004835,336.300203 421.026082,334.571958 421.014723,332.849988 Z M424.499777,324.020441 C424.41381,323.692211 424.324928,323.364791 424.22949,323.039802 C424.155543,322.787348 424.08706,322.5276 424,322.278388 C424.016028,322.185592 424.030599,322.092391 424.048812,322 C425.170032,323.861594 425.830088,326.057902 425.973974,328.289869 C426.012223,328.878658 426.004937,329.465421 425.973974,330.053805 C425.895656,330.371094 425.811146,330.686763 425.720443,331 C425.511717,328.637145 425.095721,326.29982 424.499777,324.020441 Z M423.49206,326.945311 C423.121389,325.763821 422.955742,324.523336 423.010102,323.293937 C423.028935,322.859589 423.079442,322.428013 423.155631,322 C423.19929,322.121158 423.243805,322.24192 423.285323,322.363078 C423.380773,322.642217 423.474083,322.921752 423.563969,323.202079 C423.750589,323.783321 423.921372,324.369315 424.076745,324.95808 C424.383641,326.121356 424.619056,327.300866 424.802251,328.485919 C424.880152,328.989161 424.9435,329.493987 425,330 C424.347259,329.048948 423.832342,328.030982 423.49206,326.945311 Z M426.062801,327.600512 C426.767344,325.720017 427.861643,324.024755 429.252281,322.666667 C429.492493,322.432352 429.743303,322.212121 430,322 C428.973212,323.595391 427.927583,325.176697 426.859974,326.740077 C426.573447,327.159198 426.276322,327.57277 426,328 C426.021195,327.866837 426.042783,327.733675 426.062801,327.600512 Z M427.534866,326.460348 C427.359377,326.64237 427.179909,326.821586 427,327 C427.165322,326.800738 427.32755,326.599471 427.491546,326.400208 C427.825727,325.993264 428.158581,325.585117 428.489225,325.176169 C429.155818,324.351856 429.814897,323.522733 430.46646,322.689199 C430.645486,322.460268 430.822301,322.229733 431,322 C430.016466,323.589688 428.860979,325.088365 427.534866,326.460348 Z M431.874931,327.001022 C430.559201,327.717384 429.320674,328.570466 428.187421,329.541256 C427.052104,330.51326 426.015456,331.592051 425.114633,332.777224 C425.012661,332.911921 424.913579,333.048236 424.81491,333.18536 C425.349954,332.100906 425.780548,330.97034 426.120318,329.813886 C426.147153,329.832089 426.18307,329.83492 426.217336,329.80701 C426.268528,329.764942 426.320959,329.724493 426.372152,329.68283 C427.025269,329.412627 427.637927,329.02431 428.196503,328.603635 C428.834345,328.122689 429.406958,327.570957 429.911039,326.956527 C429.968837,326.886145 429.883791,326.773291 429.798333,326.815358 C429.104344,327.157157 428.431824,327.539001 427.799349,327.981924 C427.486827,328.200757 427.184213,328.432533 426.891921,328.676848 C426.74082,328.803456 426.593023,328.933299 426.448115,329.066378 C426.39651,329.113704 426.343253,329.161435 426.290822,329.209974 C426.407244,328.769478 426.51128,328.325746 426.602518,327.879182 C427.387745,327.175764 428.087513,326.37284 428.744345,325.555758 C429.432141,324.701058 430.062552,323.801864 430.633513,322.868287 C430.954705,322.343656 431.256493,321.808508 431.537226,321.262034 C431.583877,321.170618 431.461263,321.102258 431.388189,321.151202 C431.379933,321.15646 431.372089,321.162528 431.363832,321.168191 C431.334933,321.160101 431.303144,321.166977 431.280437,321.198528 C431.266814,321.217944 431.252777,321.237359 431.239153,321.256371 C429.546086,322.415656 428.138293,323.935347 427.151599,325.716747 C427.055819,325.889063 426.966232,326.064614 426.87871,326.240974 C426.979856,325.49023 427.047562,324.73544 427.08348,323.979033 C427.128892,323.928066 427.173479,323.8771 427.216415,323.824111 C427.239121,323.81238 427.259351,323.794987 427.271736,323.767886 C427.277103,323.755751 427.282883,323.743616 427.288662,323.731481 C427.421598,323.559571 427.545863,323.380783 427.665588,323.201592 C427.858385,322.913591 428.041274,322.619522 428.214668,322.320195 C428.56641,321.713047 428.876042,321.082437 429.1415,320.43484 C429.233151,320.211153 429.316132,319.984231 429.395811,319.7565 C429.429251,319.689758 429.461866,319.622612 429.495306,319.55587 C429.512233,319.522297 429.509343,319.489128 429.495719,319.460813 C429.511407,319.412678 429.528746,319.365352 429.544022,319.316813 C429.576636,319.21488 429.453609,319.143284 429.379297,319.224183 C428.925583,319.7205 428.506135,320.239063 428.160173,320.814257 C427.816688,321.385809 427.533891,321.988913 427.320038,322.618713 C427.239121,322.85777 427.1677,323.100468 427.106599,323.345188 C427.107012,323.334266 427.107425,323.323345 427.107837,323.312423 C427.120636,322.748152 427.118158,322.182262 427.095865,321.61799 C427.073571,321.044819 427.019902,320.478121 426.953847,319.90859 C426.921233,319.625039 426.87871,319.343105 426.832059,319.061171 C426.815958,318.966115 426.674353,318.988362 426.681784,319.083014 C426.855591,321.343742 426.918343,323.612964 426.648756,325.869647 C426.595087,326.319446 426.527794,326.767628 426.449353,327.214191 C426.436968,327.245742 426.423757,327.276484 426.411785,327.308034 C426.398987,327.341607 426.403115,327.371945 426.416739,327.396214 C426.334996,327.841969 426.242106,328.285701 426.136006,328.726197 C426.174813,326.726774 425.683943,324.694586 424.79179,322.913591 C424.495782,322.323026 424.151472,321.7628 423.767115,321.224011 C423.715097,321.151202 423.615189,321.198123 423.59785,321.270124 C423.57762,321.354663 423.560694,321.440416 423.542116,321.525361 C423.509501,321.518484 423.470281,321.537495 423.48019,321.577136 C423.488446,321.611923 423.498767,321.6459 423.508263,321.680282 C423.281612,322.799118 423.220099,323.948291 423.324548,325.084925 C423.441382,326.359896 423.765877,327.623541 424.293077,328.795366 C424.591562,329.458335 424.950735,330.104719 425.380917,330.694879 C425.404036,330.726429 425.432522,330.740991 425.461834,330.745441 C425.463073,330.756766 425.464311,330.768092 425.46555,330.779418 C425.468852,330.816227 425.489494,330.83807 425.515091,330.849396 C425.340045,331.352993 425.149312,331.851332 424.93546,332.341581 C424.658442,332.976236 424.345508,333.593901 424.002848,334.194173 C424.013995,334.144015 424.02638,334.093858 424.035876,334.0437 C424.116793,333.631519 424.153536,333.211652 424.156839,332.79219 C424.163031,331.946389 424.03505,331.102206 423.838124,330.279866 C423.811702,330.169438 423.65895,330.169438 423.635831,330.282293 C423.480602,331.037487 423.37285,331.794703 423.351796,332.565268 C423.331153,333.330574 423.383172,334.094262 423.506611,334.849861 C423.511978,334.883029 423.533446,334.910535 423.560694,334.929951 C422.954641,335.887393 422.262304,336.791441 421.477077,337.623085 C421.122446,337.998457 420.750474,338.359267 420.363641,338.704302 C421.049372,336.676564 421.310289,334.511702 421.131115,332.382436 C421.075794,331.726343 420.978776,331.073891 420.842538,330.429125 C420.816942,330.308585 420.660888,330.320315 420.632401,330.431956 C420.074651,332.612189 419.803413,334.855928 419.837267,337.103712 C419.846349,337.734321 419.880615,338.364526 419.937587,338.992708 C419.939652,339.016573 419.947908,339.034776 419.959055,339.050551 C419.300158,339.603092 418.60039,340.108712 417.866356,340.56013 C418.625986,339.332889 419.00415,337.858501 419.003325,336.434676 C419.003325,336.336383 418.884013,336.271259 418.813004,336.35863 C417.987732,337.379174 417.462596,338.593875 417.34122,339.895543 C417.324707,340.074735 417.315624,340.254331 417.314385,340.433927 C417.31356,340.579545 417.309431,340.730018 417.329248,340.875232 C417.092689,341.008716 416.853653,341.138154 416.610489,341.259908 C415.704712,341.713752 414.757238,342.089529 413.778802,342.363777 C412.792933,342.640452 411.788075,342.800633 410.767941,342.892858 C410.523538,342.915105 410.276658,342.922386 410.031017,342.926835 C409.989319,342.927644 409.989732,342.998431 410.031842,342.998836 C412.090275,343.025937 414.109901,342.578969 415.989161,341.762696 C416.282279,341.635684 416.57003,341.496942 416.854479,341.352537 C417.181037,341.382874 417.512137,341.371144 417.839934,341.359414 C418.218924,341.346065 418.5975,341.319773 418.974838,341.282155 C419.148645,341.265166 419.322039,341.244537 419.49502,341.22148 C419.768322,341.200851 420.039972,341.164851 420.309558,341.112267 C420.340109,341.106199 420.361164,341.091233 420.37809,341.07303 C420.646438,341.019233 420.91396,340.959772 421.178179,340.886962 C421.584416,340.775726 421.984048,340.642242 422.373771,340.483275 C422.488129,340.436758 422.455101,340.276174 422.340744,340.257567 C420.793823,340.003948 419.257223,340.382556 417.783375,340.842468 C418.555803,340.385387 419.292314,339.869251 419.983826,339.301743 C419.998688,339.31226 420.017266,339.319136 420.040385,339.316709 C420.096119,339.311451 420.15144,339.30417 420.207174,339.298102 C420.220797,339.310237 420.240201,339.316709 420.262907,339.30781 C420.281072,339.300529 420.298825,339.292844 420.31699,339.285563 C422.779596,339.00282 425.17945,338.13275 427.288662,336.866677 C427.908752,336.494541 428.504071,336.082764 429.072142,335.637414 C429.153885,335.573504 429.097326,335.435571 428.990812,335.452155 C426.529445,335.83319 424.147756,336.623171 421.978681,337.829378 C421.642627,338.01585 421.31194,338.212435 420.98662,338.41711 C421.019648,338.38556 421.054327,338.355627 421.087354,338.323672 C422.095103,337.348837 422.976109,336.26236 423.730372,335.094176 C423.747299,335.124513 423.783216,335.145143 423.820372,335.126131 C424.492892,334.783928 425.124542,334.370129 425.738026,333.935295 C426.355638,333.497631 426.947242,333.02518 427.514487,332.526436 C428.641548,331.535421 429.676957,330.437215 430.580669,329.245974 C431.093007,328.57087 431.551675,327.865834 431.986811,327.140977 C432.028095,327.072213 431.967408,326.95046 431.874931,327.001022 L431.874931,327.001022 Z" id="Fill-93"></path>
        </g>
    </g>
</svg>