<svg width="24" height="24" viewBox="0 0 24 24" fill="none" xmlns="http://www.w3.org/2000/svg">
<path fill-rule="evenodd" clip-rule="evenodd" d="M4.64853 8.9751L5.14627 11.7896C5.21832 12.1898 5.35611 12.5491 5.50669 12.85C5.92514 13.6906 6.1777 14.2744 6.36392 15.0797C6.43353 15.377 6.47554 15.6821 6.49278 15.9875L6.49278 15.9958C6.50865 16.2614 6.69911 16.4917 6.9936 16.5818C7.47248 16.7314 8.33291 16.863 9.67734 16.6214C11.1005 16.3652 11.8104 15.888 12.1414 15.5653C12.3152 15.3975 12.394 15.1784 12.3561 14.969L12.3553 14.9648C12.3375 14.5419 12.2389 13.7417 12.5904 12.9609C12.7469 12.6131 12.8086 12.237 12.744 11.8705L12.4503 10.2048L4.64853 8.9751" fill="white"/>
<path fill-rule="evenodd" clip-rule="evenodd" d="M9.65183 16.6259C8.35874 16.8539 7.5146 16.693 7.03289 16.5167C6.68094 16.3901 6.43553 16.0705 6.40893 15.7024C6.40872 15.6986 6.40843 15.6864 6.40827 15.6828C6.3869 15.3732 6.34128 15.0605 6.27361 14.7636C6.08594 13.9312 5.84263 13.3246 5.4305 12.4311C5.24947 12.0407 5.12156 11.6433 5.05108 11.2502L4.52293 8.26279C4.50273 8.14822 4.57605 8.03973 4.68666 8.02023C4.7975 8.00069 4.90346 8.07732 4.92366 8.19189L5.45146 11.1786C5.51564 11.5347 5.63218 11.8966 5.79778 12.2535C6.22283 13.1754 6.47437 13.8024 6.67027 14.6723C6.74266 14.9907 6.79155 15.3259 6.81512 15.6677C6.81551 15.6712 6.81576 15.6832 6.81566 15.6866C6.82991 15.8781 6.96352 16.0483 7.16421 16.1207C7.60096 16.2804 8.37224 16.4246 9.57838 16.212C9.58874 16.2101 9.59888 16.2083 9.60924 16.2065C10.9451 15.9657 11.565 15.4725 11.8159 15.1999C11.9332 15.0735 11.9839 14.9117 11.9558 14.755C11.9543 14.7464 11.9524 14.7331 11.952 14.7242C11.949 14.6729 11.9451 14.6165 11.9407 14.555C11.9073 14.081 11.8513 13.2877 12.1496 12.5198C12.2825 12.1778 12.3218 11.8196 12.2628 11.485L11.9511 9.71754C11.931 9.6032 12.0043 9.49471 12.1149 9.47521C12.2258 9.45566 12.3318 9.53253 12.3519 9.64687L12.6636 11.4143C12.7363 11.8269 12.6895 12.2647 12.5279 12.68C12.2645 13.3584 12.3139 14.0631 12.3468 14.529C12.3509 14.5879 12.355 14.6424 12.3577 14.6923C12.4061 14.9822 12.3164 15.2718 12.1117 15.4915C11.7648 15.8692 11.0612 16.3721 9.68382 16.6203C9.67324 16.6221 9.66242 16.624 9.65183 16.6259" fill="#343D99"/>
<path fill-rule="evenodd" clip-rule="evenodd" d="M8.44976 13.0455C8.32194 13.0681 8.20257 12.9997 8.18379 12.8932C7.94587 11.5439 8.13989 10.492 8.76086 9.76692C9.33627 9.09475 10.0663 8.96827 10.0991 8.96225C10.2274 8.94119 10.3451 9.01052 10.3624 9.11772C10.3795 9.22405 10.2907 9.32711 10.1641 9.34942C10.1636 9.34951 10.1631 9.3496 10.1623 9.34974C10.0741 9.36528 8.10855 9.75288 8.64785 12.8114C8.66663 12.9179 8.57784 13.023 8.44976 13.0455" fill="#343D99"/>
<path fill-rule="evenodd" clip-rule="evenodd" d="M9.56444 10.0047C9.5585 10.0057 9.55307 10.0067 9.54712 10.0077C9.04521 10.0904 8.58496 9.78974 8.50816 9.35423L8.1216 7.16343L7.9822 6.37285C7.90398 5.92925 8.25386 5.49519 8.76616 5.40486C9.27639 5.31489 9.74252 5.60506 9.82074 6.04867L10.3479 9.03517C10.4252 9.47244 10.0894 9.90749 9.58745 10.0006C9.57969 10.002 9.5722 10.0033 9.56444 10.0047" fill="white"/>
<path fill-rule="evenodd" clip-rule="evenodd" d="M8.68036 4.92695C8.37351 4.98105 8.17657 5.32479 8.24148 5.69294L8.822 8.984C8.88683 9.35167 9.18035 9.6125 9.47641 9.5649L9.50619 9.55965C9.80147 9.504 9.99088 9.16109 9.9264 8.79541L9.34442 5.49847C9.27837 5.12386 8.9868 4.87291 8.68036 4.92695ZM9.5657 10.0044L9.55184 10.0069C9.05274 10.0867 8.56141 9.65687 8.4542 9.04881L7.87368 5.75775C7.76585 5.14622 8.09289 4.57542 8.60259 4.48555C9.10671 4.39666 9.6047 4.82198 9.71253 5.43351L10.2941 8.73053C10.401 9.33709 10.0834 9.90675 9.58596 10.0009L9.5657 10.0044V10.0044Z" fill="#343D99"/>
<path fill-rule="evenodd" clip-rule="evenodd" d="M6.92091 5.73027C6.413 5.81983 6.06469 6.25293 6.14303 6.69723L6.66995 9.68554C6.74833 10.1301 7.22369 10.4175 7.7316 10.3279C8.23925 10.2384 8.58739 9.80579 8.50901 9.36127L7.98209 6.37296C7.90375 5.92866 7.42857 5.64076 6.92091 5.73027" fill="white"/>
<path fill-rule="evenodd" clip-rule="evenodd" d="M6.83654 5.25222C6.53123 5.30606 6.3355 5.64933 6.40042 6.01751L6.98207 9.31619C7.04699 9.68437 7.34832 9.94 7.65362 9.88616C7.95873 9.83237 8.15425 9.48913 8.08933 9.12095L7.50768 5.82227C7.44276 5.45409 7.14164 5.19842 6.83654 5.25222ZM7.73148 10.3278C7.22434 10.4172 6.72409 9.99226 6.61626 9.38071L6.03461 6.08202C5.92673 5.47021 6.25152 4.90004 6.75865 4.81062C7.26558 4.72124 7.76579 5.14594 7.87366 5.75774L8.45531 9.05643C8.56315 9.66799 8.2384 10.2384 7.73148 10.3278V10.3278Z" fill="#343D99"/>
<path fill-rule="evenodd" clip-rule="evenodd" d="M10.5987 5.08178C10.0907 5.17135 9.74285 5.60437 9.82119 6.04867L10.3481 9.03698C10.4265 9.48151 10.9014 9.76899 11.4094 9.67942C11.9171 9.58989 12.2656 9.15723 12.1872 8.71271L11.6603 5.7244C11.5819 5.2801 11.1064 4.99226 10.5987 5.08178" fill="white"/>
<path fill-rule="evenodd" clip-rule="evenodd" d="M10.5145 4.60374C10.2095 4.65752 10.0136 5.00082 10.0785 5.369L10.6601 8.66769C10.7251 9.03586 11.0265 9.29146 11.3316 9.23768C11.6368 9.18386 11.8323 8.84063 11.7674 8.47245L11.1857 5.17377C11.1208 4.80559 10.8197 4.54991 10.5145 4.60374ZM11.4094 9.67939C10.9024 9.76879 10.4023 9.34383 10.2944 8.73227L9.71277 5.43358C9.60489 4.82177 9.92959 4.25162 10.4366 4.16222C10.9436 4.07282 11.4439 4.4975 11.5518 5.1093L12.1335 8.40799C12.2413 9.01955 11.9165 9.58999 11.4094 9.67939V9.67939Z" fill="#343D99"/>
<path fill-rule="evenodd" clip-rule="evenodd" d="M10.649 7.91702L8.37416 8.31814C7.73524 8.4308 7.48863 8.95066 7.58891 9.51938C7.66277 9.93823 8.06677 10.4146 8.76599 10.2913L10.0736 10.0608L11.1349 10.6757L12.4746 10.3849C12.2027 8.77982 12.1383 7.65443 10.649 7.91702" fill="white"/>
<path fill-rule="evenodd" clip-rule="evenodd" d="M11.0527 10.6902C11.0097 10.6978 10.9637 10.6917 10.9222 10.6691L10.0232 10.1869L8.89817 10.3852C8.16969 10.5137 7.68447 10.0613 7.59789 9.57033C7.48381 8.92331 7.84241 8.4119 8.49 8.29771L10.5669 7.9315C11.0514 7.84608 11.4194 7.8994 11.6922 8.09428C12.1529 8.42367 12.259 9.07653 12.3937 9.90343C12.4089 9.99752 12.4246 10.0943 12.4413 10.1928C12.4599 10.3036 12.3864 10.4086 12.2765 10.428C12.2761 10.4281 12.2756 10.4282 12.2752 10.4282C12.1647 10.4468 12.0599 10.3717 12.041 10.2604C12.0244 10.1609 12.0084 10.0635 11.9927 9.9683C11.8736 9.2359 11.7796 8.65715 11.4575 8.4269C11.2781 8.29859 11.0097 8.26825 10.6379 8.33382L8.56094 8.70004C8.13311 8.77547 7.92282 9.07418 7.99786 9.4998C8.04113 9.74517 8.29757 10.0761 8.82719 9.98269L10.021 9.77219C10.0657 9.7643 10.1118 9.77203 10.1517 9.79344L11.1126 10.3086C11.2116 10.3618 11.2492 10.4858 11.1965 10.5851C11.1662 10.6429 11.1122 10.6797 11.0527 10.6902" fill="#343D99"/>
<path fill-rule="evenodd" clip-rule="evenodd" d="M5.73022 9.73265C5.22258 9.82216 4.74634 9.52984 4.66689 9.07927L4.30598 7.03243C4.22653 6.58185 4.57403 6.14405 5.08167 6.05454C5.58956 5.96498 6.06559 6.25757 6.14503 6.70815L6.50595 8.75499C6.5854 9.20557 6.23811 9.64309 5.73022 9.73265" fill="white"/>
<path fill-rule="evenodd" clip-rule="evenodd" d="M5.00151 5.60114C4.70038 5.65424 4.50926 6.00383 4.57572 6.3807L4.98108 8.67965C5.04749 9.05626 5.34665 9.3194 5.64777 9.26631C5.94932 9.21314 6.14065 8.86351 6.07424 8.4869L5.66887 6.18795C5.60242 5.81108 5.30305 5.54797 5.00151 5.60114ZM5.73001 9.73253C5.22337 9.82187 4.71974 9.37887 4.60805 8.74542L4.20268 6.44647C4.09094 5.81277 4.41269 5.22423 4.91932 5.1349C5.42658 5.04545 5.93 5.48849 6.04174 6.1222L6.44711 8.42115C6.5588 9.05459 6.23727 9.64309 5.73001 9.73253V9.73253Z" fill="#343D99"/>
<path fill-rule="evenodd" clip-rule="evenodd" d="M11.9952 9.54541L11.5003 12.3604C11.4311 12.7612 11.4377 13.1459 11.4763 13.4801C11.582 14.4131 11.6197 15.0482 11.5192 15.8686C11.483 16.1717 11.4181 16.4728 11.3298 16.7657L11.327 16.7735C11.2511 17.0285 11.3513 17.31 11.5972 17.4955C11.996 17.7998 12.7596 18.2177 14.1055 18.4505C15.5305 18.6966 16.3608 18.4909 16.7822 18.3009C17.0029 18.2027 17.1519 18.0237 17.1879 17.814L17.1886 17.8098C17.3165 17.4063 17.4975 16.6206 18.0948 16.0071C18.3609 15.7338 18.5475 15.4015 18.6121 15.035L18.9059 13.3693L11.9952 9.54541" fill="white"/>
<path fill-rule="evenodd" clip-rule="evenodd" d="M14.08 18.4464C12.7869 18.2184 12.0487 17.7785 11.6564 17.4481C11.369 17.2087 11.2476 16.8245 11.3486 16.4694C11.3497 16.4658 11.3536 16.4542 11.3547 16.4508C11.4404 16.1526 11.5045 15.8431 11.5425 15.541C11.6508 14.6946 11.6297 14.0414 11.548 13.0608C11.5114 12.632 11.5271 12.2148 11.5954 11.8213L12.1208 8.83347C12.141 8.7189 12.247 8.64203 12.3576 8.66153C12.4685 8.68108 12.5418 8.78933 12.5216 8.9039L11.9961 11.891C11.9346 12.2475 11.9203 12.6275 11.9539 13.0195C12.038 14.0312 12.0599 14.7064 11.9464 15.5909C11.9056 15.9148 11.8369 16.2465 11.7421 16.5758C11.7413 16.5792 11.7374 16.5906 11.7362 16.5937C11.6841 16.7785 11.7514 16.9842 11.9152 17.1209C12.271 17.4203 12.9465 17.8196 14.1526 18.0323C14.163 18.0341 14.1731 18.0359 14.1835 18.0377C15.5212 18.2683 16.2723 18.0169 16.6013 17.8465C16.7548 17.7679 16.8578 17.6332 16.8849 17.4764C16.8865 17.4677 16.8892 17.4546 16.8919 17.4461C16.9066 17.3969 16.9222 17.3425 16.9392 17.2833C17.0699 16.8264 17.2886 16.0618 17.8315 15.4423C18.0734 15.1663 18.2328 14.8431 18.2918 14.5085L18.6035 12.7411C18.6237 12.6267 18.7297 12.5499 18.8403 12.5694C18.9511 12.5889 19.0244 12.6974 19.0043 12.8117L18.6926 14.5792C18.6199 14.9918 18.4261 15.3872 18.1322 15.7222C17.6526 16.2696 17.4581 16.9486 17.3297 17.3978C17.3134 17.4544 17.2986 17.507 17.2841 17.5549C17.2303 17.8439 17.047 18.0853 16.7795 18.2218C16.3244 18.458 15.4912 18.69 14.112 18.4521C14.1014 18.4502 14.0906 18.4483 14.08 18.4464" fill="#830D01"/>
<path fill-rule="evenodd" clip-rule="evenodd" d="M14.1751 14.6705C14.0472 14.648 13.9584 14.5429 13.9772 14.4365C14.2151 13.0871 14.7573 12.165 15.5887 11.696C16.3594 11.2612 17.0886 11.392 17.1215 11.3976C17.2493 11.4217 17.3362 11.5271 17.3157 11.6338C17.2955 11.7395 17.1767 11.806 17.0502 11.7837C17.0497 11.7836 17.0492 11.7835 17.0484 11.7833C16.9602 11.7678 14.9806 11.4597 14.4413 14.5183C14.4225 14.6248 14.3031 14.6931 14.1751 14.6705" fill="#830D01"/>
<path fill-rule="evenodd" clip-rule="evenodd" d="M16.2625 12.1943C16.2565 12.1932 16.2511 12.1922 16.2452 12.1912C15.7452 12.0973 15.4156 11.6573 15.4924 11.2218L15.8784 9.03087L16.0178 8.24029C16.0961 7.79668 16.5733 7.50847 17.0856 7.5988C17.5958 7.68877 17.9346 8.12086 17.8564 8.56447L17.3303 11.5511C17.2534 11.9885 16.789 12.2825 16.2855 12.1983C16.2777 12.1969 16.2702 12.1956 16.2625 12.1943" fill="white"/>
<path fill-rule="evenodd" clip-rule="evenodd" d="M17.1685 7.12023C16.8616 7.06612 16.559 7.32177 16.4941 7.68993L15.914 10.9811C15.8492 11.3487 16.0358 11.6942 16.3303 11.7507L16.36 11.756C16.6566 11.8047 16.9518 11.5472 17.0163 11.1816L17.597 7.8844C17.6631 7.50979 17.4749 7.17426 17.1685 7.12023ZM16.2638 12.1945L16.2499 12.192C15.7536 12.0963 15.4389 11.5244 15.5462 10.9163L16.1263 7.62518C16.2341 7.01365 16.7366 6.58913 17.2463 6.679C17.7504 6.76789 18.0729 7.33789 17.9651 7.94942L17.384 11.2465C17.277 11.8531 16.7837 12.2797 16.284 12.198L16.2638 12.1945V12.1945Z" fill="#830D01"/>
<path fill-rule="evenodd" clip-rule="evenodd" d="M15.2405 7.27351C14.7326 7.18395 14.2571 7.4718 14.1788 7.91611L13.6519 10.9044C13.5735 11.3489 13.9219 11.7816 14.4298 11.8711C14.9375 11.9607 15.4126 11.6732 15.4909 11.2287L16.0179 8.24038C16.0962 7.79608 15.7481 7.36302 15.2405 7.27351" fill="white"/>
<path fill-rule="evenodd" clip-rule="evenodd" d="M15.3246 6.79554C15.0193 6.74171 14.718 6.99734 14.6531 7.36551L14.0714 10.6642C14.0065 11.0324 14.2022 11.3756 14.5076 11.4295C14.8127 11.4833 15.1138 11.2276 15.1787 10.8594L15.7604 7.56075C15.8253 7.19258 15.6298 6.84934 15.3246 6.79554ZM14.4297 11.871C13.9225 11.7816 13.5978 11.2111 13.7056 10.5996L14.2873 7.30089C14.3951 6.68908 14.8953 6.26438 15.4025 6.35381C15.9094 6.44319 16.2342 7.01336 16.1263 7.62516L15.5447 10.9239C15.4368 11.5354 14.9366 11.9604 14.4297 11.871V11.871Z" fill="#830D01"/>
<path fill-rule="evenodd" clip-rule="evenodd" d="M18.9181 7.922C18.4101 7.83243 17.9352 8.12036 17.8568 8.56467L17.3299 11.553C17.2515 11.9975 17.5994 12.4301 18.1074 12.5196C18.6152 12.6092 19.0906 12.3218 19.169 11.8772L19.6959 8.88894C19.7742 8.44464 19.4258 8.01153 18.9181 7.922" fill="white"/>
<path fill-rule="evenodd" clip-rule="evenodd" d="M19.0025 7.44403C18.6974 7.39024 18.396 7.64585 18.331 8.01402L17.7494 11.3127C17.6845 11.6809 17.8804 12.0242 18.1854 12.078C18.4906 12.1318 18.7917 11.8761 18.8566 11.5079L19.4383 8.20925C19.5032 7.84108 19.3077 7.49785 19.0025 7.44403ZM18.1075 12.5196C17.6005 12.4302 17.2759 11.8598 17.3837 11.2483L17.9654 7.94957C18.0732 7.33777 18.5734 6.91305 19.0804 7.00245C19.5874 7.09185 19.9123 7.66204 19.8044 8.27385L19.2228 11.5725C19.1149 12.1841 18.6146 12.609 18.1075 12.5196V12.5196Z" fill="#830D01"/>
<path fill-rule="evenodd" clip-rule="evenodd" d="M17.9957 10.6035L15.7208 10.2024C15.0819 10.0897 14.6723 10.4939 14.5721 11.0626C14.4982 11.4814 14.7149 12.0673 15.4141 12.1906L16.7218 12.4211L17.5088 13.362L18.8671 13.5469C19.1606 11.9456 19.4849 10.8661 17.9957 10.6035" fill="white"/>
<path fill-rule="evenodd" clip-rule="evenodd" d="M17.4265 13.3475C17.3836 13.3399 17.3424 13.3184 17.3111 13.2831L16.6313 12.5224L15.5062 12.324C14.7777 12.1956 14.4765 11.6045 14.5631 11.1135C14.6772 10.4665 15.1891 10.1086 15.8367 10.2228L17.9136 10.589C18.398 10.6744 18.7256 10.8504 18.9153 11.1268C19.2356 11.594 19.112 12.2437 18.9558 13.0668C18.9379 13.1604 18.9195 13.2568 18.9015 13.355C18.8811 13.4654 18.7761 13.539 18.6662 13.5197C18.6658 13.5196 18.6653 13.5195 18.6649 13.5194C18.5547 13.4991 18.4819 13.3927 18.5022 13.2816C18.5206 13.1825 18.5389 13.0854 18.5568 12.9906C18.6953 12.2617 18.805 11.6857 18.581 11.3591C18.4563 11.1772 18.2145 11.0569 17.8426 10.9913L15.7657 10.6251C15.3379 10.5497 15.0381 10.7584 14.9631 11.1841C14.9198 11.4294 15.0476 11.8281 15.5772 11.9215L16.771 12.132C16.8158 12.1399 16.8564 12.1629 16.8866 12.1967L17.6133 13.0094C17.6882 13.0933 17.6811 13.2226 17.5976 13.2979C17.5493 13.3419 17.486 13.358 17.4265 13.3475" fill="#830D01"/>
<path fill-rule="evenodd" clip-rule="evenodd" d="M12.7526 10.6272C12.2449 10.5377 11.8974 10.1002 11.9768 9.64958L12.3378 7.60274C12.4172 7.15216 12.8935 6.85962 13.4011 6.94912C13.909 7.03868 14.2563 7.47644 14.1768 7.92701L13.8159 9.97386C13.7365 10.4244 13.2605 10.7168 12.7526 10.6272" fill="white"/>
<path fill-rule="evenodd" clip-rule="evenodd" d="M13.4809 6.49597C13.1797 6.44288 12.8806 6.70602 12.8141 7.08289L12.4088 9.38184C12.3424 9.75845 12.5335 10.108 12.8346 10.1611C13.1362 10.2143 13.4355 9.9512 13.5019 9.5746L13.9073 7.27564C13.9737 6.89878 13.7824 6.54915 13.4809 6.49597ZM12.7524 10.6272C12.2457 10.5378 11.924 9.9493 12.0357 9.31586L12.4411 7.01691C12.5528 6.3832 13.0564 5.9402 13.5631 6.02953C14.0703 6.11898 14.3918 6.70748 14.2801 7.34118L13.8747 9.64013C13.763 10.2736 13.2596 10.7166 12.7524 10.6272V10.6272Z" fill="#830D01"/>
</svg>
