<svg width="24" height="24" viewBox="0 0 24 24" fill="none" xmlns="http://www.w3.org/2000/svg">
<path fill-rule="evenodd" clip-rule="evenodd" d="M11.4665 12.162C10.0629 12.162 8.689 12.2838 7.52421 12.558C5.61293 12.9848 4.74674 13.625 4.74674 14.0817C4.74674 14.3867 5.19465 14.8743 6.44919 15.3008C7.67351 15.7276 9.31641 15.9712 11.108 16.0021C11.2277 16.0021 11.3471 16.0021 11.4665 16.0021C13.3182 16.0021 15.0506 15.7581 16.365 15.3622C17.709 14.9353 18.1868 14.4173 18.1868 14.1126C18.1868 13.6857 17.3801 13.0761 15.6182 12.6495C14.4234 12.2838 12.99 12.162 11.4665 12.162ZM11.4665 16.7334C11.3471 16.7334 11.2278 16.7334 11.0785 16.7334C9.22671 16.7028 7.49435 16.4592 6.21018 16.0022C4.77642 15.5146 4 14.8438 4 14.0516C4 13.0761 5.1947 12.2839 7.37497 11.7963C8.59959 11.5221 10.0031 11.4 11.4665 11.4C13.02 11.4 14.5133 11.5524 15.7675 11.8574C17.7982 12.3449 18.9333 13.1372 18.9333 14.0516C18.9333 14.8438 18.127 15.5448 16.6038 16.0324C15.2298 16.4592 13.408 16.7334 11.4665 16.7334V16.7334Z" fill="#830D01"/>
<path fill-rule="evenodd" clip-rule="evenodd" d="M11.4367 19.9333C9.86027 19.9333 8.37293 19.7915 7.12339 19.5086C5.10083 19.0553 4 18.3191 4 17.4698V13.9016C4 13.7035 4.1785 13.5333 4.38681 13.5333C4.59511 13.5333 4.77332 13.7035 4.77332 13.9016V17.4411C4.77332 17.8377 5.57674 18.4042 7.3317 18.8006C8.52163 19.0837 9.97918 19.2255 11.4665 19.2255C12.359 19.2255 13.2218 19.1688 14.0544 19.0837C16.732 18.7722 18.16 18.0077 18.16 17.4698V13.9016C18.16 13.7035 18.3382 13.5333 18.5465 13.5333C18.7548 13.5333 18.9333 13.7035 18.9333 13.9016V17.4411C18.9333 17.8377 18.6654 18.4326 17.4755 18.9705C16.6426 19.3384 15.5122 19.6218 14.1736 19.7634C13.2516 19.8766 12.359 19.9333 11.4367 19.9333" fill="#830D01"/>
<path fill-rule="evenodd" clip-rule="evenodd" d="M13.8242 19.6137L11.0803 16.8454L7.20279 19.3209C7.11344 19.374 6.99393 19.4009 6.90458 19.3739C6.78507 19.3476 6.69572 19.2942 6.66584 19.2145L4.04119 14.8757C3.95155 14.7162 4.01131 14.5032 4.19029 14.4232C4.36927 14.3437 4.60801 14.3968 4.69735 14.5565L7.11344 18.549L10.8714 16.1268C11.0208 16.0204 11.2294 16.047 11.3785 16.1801L14.0629 18.8951L18.2685 14.5298C18.3877 14.3968 18.6265 14.3701 18.8055 14.5032C18.9546 14.6096 18.9844 14.8226 18.8353 14.9821L14.3614 19.6403C14.3017 19.667 14.1821 19.7201 14.0925 19.7201C13.9733 19.7201 13.8839 19.667 13.8242 19.6137Z" fill="#830D01"/>
<path fill-rule="evenodd" clip-rule="evenodd" d="M13.727 13.4402C13.5849 13.3167 13.5565 13.0688 13.6701 12.8829L19.3525 5.13843C19.4663 4.98358 19.6934 4.95255 19.8639 5.07637C20.0344 5.2005 20.0344 5.44814 19.9209 5.63433C19.9209 5.63433 17.295 9.2128 15.982 11.002C15.4007 11.7942 14.2382 13.3785 14.2382 13.3785C14.1815 13.4716 14.0677 13.5333 13.9541 13.5333C13.8687 13.5333 13.8121 13.5023 13.727 13.4402Z" fill="#830D01"/>
<path fill-rule="evenodd" clip-rule="evenodd" d="M13.6 13.1966C13.4037 13.1966 13.2353 13.3651 13.2353 13.5614C13.2353 13.7579 13.4037 13.9264 13.6 13.9264C13.7966 13.9264 13.965 13.7579 13.965 13.5614C13.965 13.3651 13.7687 13.1966 13.6 13.1966ZM13.6 14.6C13.0106 14.6 12.5333 14.1228 12.5333 13.5333C12.5333 12.9436 13.0106 12.4667 13.6 12.4667C14.1894 12.4667 14.6667 12.9436 14.6667 13.5333C14.6667 14.1228 14.1616 14.6 13.6 14.6V14.6Z" fill="#830D01"/>
</svg>
