<svg width="24" height="24" viewBox="0 0 24 24" fill="none" xmlns="http://www.w3.org/2000/svg">
<path fill-rule="evenodd" clip-rule="evenodd" d="M6.6666 18.1482V7.32589C6.6666 7.06118 6.84366 6.84065 7.10905 6.79646L19.2912 4.01715C19.4683 3.97339 19.6458 4.01715 19.7785 4.10553C19.9116 4.19392 19.9999 4.37025 19.9999 4.54658V15.3581C19.9999 15.667 19.7346 15.9317 19.4244 15.9317C19.1146 15.9317 18.8483 15.667 18.8483 15.3581V5.29654L7.77383 7.81114C7.77383 7.81114 7.77383 15.038 7.77383 18.6515C7.77383 20.0378 7.77383 18.1482 7.77383 18.1482C7.8182 18.4124 7.55194 18.7218 7.24218 18.7218C6.93198 18.7218 6.6666 18.4566 6.6666 18.1482Z" fill="#830D01"/>
<path fill-rule="evenodd" clip-rule="evenodd" d="M5.90476 19.6186C4.8377 19.6186 4 18.7805 4 17.7138C4 16.6468 4.8377 15.8091 5.90476 15.8091C6.97145 15.8091 7.80953 16.6468 7.80953 17.7138C7.80953 18.7805 6.93291 19.6186 5.90476 19.6186V19.6186Z" fill="#830D01"/>
<path fill-rule="evenodd" clip-rule="evenodd" d="M18.0952 17.3332C17.0289 17.3332 16.1905 16.4951 16.1905 15.4284C16.1905 14.3618 17.0289 13.5237 18.0952 13.5237C19.1619 13.5237 20 14.3618 20 15.4284C20 16.4951 19.1241 17.3332 18.0952 17.3332V17.3332Z" fill="#830D01"/>
<path fill-rule="evenodd" clip-rule="evenodd" d="M7.22012 11.6195C6.95333 11.6195 6.73109 11.4469 6.68655 11.1885C6.59747 10.8873 6.82016 10.6289 7.08651 10.5426L19.3128 7.82926C19.6241 7.74298 19.8914 7.95869 19.98 8.21712C20.0691 8.51827 19.8464 8.77671 19.5796 8.86299L7.35329 11.6195C7.30875 11.6195 7.26466 11.6195 7.22012 11.6195" fill="#830D01"/>
</svg>
