<svg width="24" height="24" viewBox="0 0 24 24" fill="none" xmlns="http://www.w3.org/2000/svg">
<path fill-rule="evenodd" clip-rule="evenodd" d="M14.7063 15.7407C14.1126 17.9994 12.0517 19.6704 9.60655 19.6704C6.69942 19.6704 4.33434 17.3081 4.33434 14.4042C4.33434 11.5008 6.69942 9.13827 9.60655 9.13827C12.3923 9.13827 14.52 10.5966 14.7063 13.3328C14.8183 13.3313 14.9616 13.3346 15.0726 13.3328C14.8828 10.4153 12.5749 8.80432 9.60655 8.80432C6.51513 8.80432 4 11.3165 4 14.4042C4 17.4922 6.51513 20.0043 9.60655 20.0043C12.2707 20.0043 14.7063 18.058 15.1805 15.0983C15.0758 15.1531 14.9875 15.0925 14.8468 15.0983" fill="#830D01"/>
<path fill-rule="evenodd" clip-rule="evenodd" d="M13.1587 15.4874C12.6995 16.9908 11.2805 18.0681 9.62114 18.0681C7.59012 18.0681 5.93765 16.4245 5.93765 14.4039C5.93765 12.3838 7.59012 10.74 9.62114 10.74C11.4094 10.74 12.9035 11.6275 13.2352 13.311C13.2458 13.3149 13.3023 13.3161 13.311 13.311C13.3913 13.2647 13.3923 13.2763 13.491 13.311C13.2098 11.3772 11.642 10.4042 9.62114 10.4042C7.40377 10.4042 5.60004 12.1984 5.60004 14.4039C5.60004 16.6096 7.40377 18.4042 9.62114 18.4042C10.4244 18.4042 11.2248 18.1734 11.8725 17.6874C12.8713 16.9381 13.2352 16.3883 13.6649 15.0792C13.5535 15.0608 13.4188 15.0212 13.311 14.9873" fill="#830D01"/>
<path fill-rule="evenodd" clip-rule="evenodd" d="M8.8815 8.84707C8.90642 8.84707 8.94365 8.84255 8.97033 8.84707C9.05591 8.86141 9.1205 8.87029 9.20633 8.88412C9.81016 6.64035 11.9608 4.33797 14.3945 4.33797C17.3009 4.33797 19.6654 6.70043 19.6654 9.60403C19.6654 12.5076 17.3009 14.8698 14.3945 14.8698C11.6011 14.8698 9.34092 13.2197 9.167 10.4721C9.05499 10.4688 8.993 10.4721 8.8815 10.4721C9.05417 13.4058 11.4154 15.204 14.3945 15.204C17.4854 15.204 19.9999 12.692 19.9999 9.60403C19.9999 6.51611 17.4854 4.00403 14.3945 4.00403C11.8926 3.89143 9.63235 6.1521 8.8815 8.84707Z" fill="#830D01"/>
<path fill-rule="evenodd" clip-rule="evenodd" d="M10.3585 8.87064C10.4685 8.89466 10.5104 8.89955 10.6194 8.92812C11.0795 7.42675 12.7242 5.93997 14.3813 5.93997C16.4111 5.93997 18.0625 7.58346 18.0625 9.60401C18.0625 11.6243 16.4111 13.2678 14.3813 13.2678C12.5248 13.2678 11.0025 12.3294 10.753 10.5488C10.6564 10.5764 10.5865 10.5134 10.4826 10.5089C10.7474 12.4606 12.3487 13.6039 14.3813 13.6039C16.5973 13.6039 18.3999 11.8094 18.3999 9.60401C18.3999 7.39835 16.5973 5.60388 14.3813 5.60388C12.5657 5.60388 10.8549 7.22208 10.3585 8.87064Z" fill="#830D01"/>
</svg>
