<?xml version="1.0" encoding="UTF-8"?>
<svg width="81px" height="100px" viewBox="0 0 81 100" version="1.1" xmlns="http://www.w3.org/2000/svg" xmlns:xlink="http://www.w3.org/1999/xlink">
    <title>leaf-02</title>
    <g id="Page-1" stroke="none" stroke-width="1" fill="none" fill-rule="evenodd">
        <g id="leaf-02" transform="translate(-0.000000, 0.000000)" fill-rule="nonzero">
            <path d="M71.184374,25.0493424 C71.070377,32.4471481 80.822121,37.0330277 76.7582276,41.212918 C74.0142997,44.0348439 71.3123706,41.2289176 67.9744583,38.0290016 C64.6365459,34.8290856 63.8205673,40.2069444 68.518444,46.8807692 C73.2163206,53.552594 73.6243099,63.8343241 69.0624297,66.4222562 C64.5005495,69.0101882 63.070587,64.6523026 63.070587,64.6523026 C60.7546478,60.7704045 58.1007175,56.75451 55.5807836,56.75451 C53.0608498,56.75451 53.8788283,61.5203849 57.4867336,65.9462687 C61.0946389,70.3721525 61.9126174,80.1078969 59.1886889,85.1477645 C56.4647604,90.1856323 49.6569392,88.6876716 47.680991,86.1697377 C45.7070429,83.6498039 46.1150322,77.5219647 44.141084,75.2080255 C42.1671358,72.8920863 40.0551912,75.8880076 40.8051716,82.8338253 C41.5551519,89.7796429 38.0132449,96.3834696 32.5653879,96.8594571 C27.1175309,97.3354446 26.505547,93.9315339 27.5275201,91.7535911 C28.5494933,89.5756483 28.867485,86.6017264 27.5055207,85.6037526 C26.1435565,84.6057788 24.4196017,85.4217573 22.1496613,91.1416072 C19.8797209,96.861457 14.3418663,102.127319 6.44407367,99.1313974 C-1.45371898,96.1354761 -1.15772676,88.6836717 2.35818094,85.3317597 C6.5380712,81.3458644 16.6118067,82.1538431 14.7958544,76.7979838 C12.9799021,71.4421244 3.87814103,75.7540112 2.66017301,69.8041674 C1.37420677,63.5243322 7.17005461,60.9104009 16.8398007,58.3224688 C26.5075469,55.7345368 24.0576112,51.7866404 17.6577793,51.1046583 C11.2579473,50.4246762 7.45004726,49.5167 11.5299401,43.8868478 C15.5258352,38.3729926 28.4154968,38.4849896 34.3173419,38.0310015 C40.2191869,37.5770135 41.3071584,35.6710635 39.6732013,33.9451088 C38.0392442,32.2211541 30.7114366,31.61517 32.8893794,27.1672868 C32.8893794,27.1672868 33.8913531,24.4673576 40.9431679,26.0933149 C48.1149796,27.7452716 52.1468738,19.0415001 57.7187275,15.0936037 C63.2905812,11.1457074 71.412368,10.4397259 71.184374,25.0493424 Z" id="Path" fill="#F6CD4C"></path>
            <path d="M80.1841377,3.56990628 C80.1841377,3.56990628 69.0684295,3.48190859 62.1886102,21.70943 C52.7148589,46.810771 31.3074209,80.6858817 11.3399451,90.9016135 C11.3399451,90.9016135 40.3631832,71.5141225 60.3326589,20.6634575 C66.2965023,5.47385629 71.5063655,2.52593368 77.7462017,0 C77.7462017,0 79.7781484,0.579984773 80.1841377,3.56990628 Z" id="Path" fill="#DFA92A"></path>
            <path d="M59.3166856,23.1913911 C59.3166856,23.1913911 54.2368189,33.1451298 42.4531283,29.9512137 C42.4531283,29.9512137 52.3068696,35.7410617 59.6926757,25.0173432 L59.3166856,23.1913911 Z" id="Path" fill="#DFA92A"></path>
            <path d="M59.5326799,28.2552582 C59.5326799,28.2552582 56.3107645,41.6209073 65.584521,54.6805644 C65.584521,54.6805644 56.0947701,47.8887427 57.4007359,30.8231908 L59.5326799,28.2552582 Z" id="Path" fill="#DFA92A"></path>
            <path d="M26.2295542,45.6248022 C26.2295542,45.6248022 46.8210136,49.4567016 52.8288559,37.6150125 L52.3648681,41.1849187 C52.3648681,41.1849187 45.3550521,50.7906665 26.2295542,45.6248022 Z" id="Path" fill="#DFA92A"></path>
            <path d="M54.2668181,78.0159518 C54.2668181,78.0159518 42.6711226,61.5303846 48.8529603,49.1667092 L45.9950353,52.678617 C45.9950353,52.678617 42.7731199,63.648329 54.2668181,78.0159518 Z" id="Path" fill="#DFA92A"></path>
            <path d="M13.6038857,66.2602604 C13.6038857,66.2602604 34.0653485,67.304233 41.9011428,56.6825119 L40.5371786,61.1223953 C40.5371786,61.1243952 32.0634011,68.9021911 13.6038857,66.2602604 Z" id="Path" fill="#DFA92A"></path>
            <path d="M35.2193182,69.2421821 C35.2193182,69.2421821 32.8033816,77.7959576 34.3853401,87.4757034 C34.3853401,87.4757034 31.3674193,82.6278307 33.4133656,70.4821496 L35.2193182,69.2421821 Z" id="Path" fill="#DFA92A"></path>
        </g>
    </g>
</svg>