<?xml version="1.0" encoding="UTF-8"?>
<svg width="101px" height="100px" viewBox="0 0 101 100" version="1.1" xmlns="http://www.w3.org/2000/svg" xmlns:xlink="http://www.w3.org/1999/xlink">
    <title>leaf-01</title>
    <g id="Page-1" stroke="none" strokeWidth="1" fill="none" fillRule="evenodd">
        <g id="leaf-01" fillRule="nonzero">
            <path d="M52.4254143,46.7490833 C52.4254143,46.7490833 38.580216,46.6929812 37.0874992,61.0992005 C35.5947825,75.5054199 42.8920636,82.8427738 39.3936965,88.0041676 C39.3936965,88.0041676 43.3408804,84.9405919 46.4825983,84.0730129 C49.6243163,83.2054339 52.6458154,82.7365806 56.3966419,77.0402132 C56.3966419,77.0402132 57.2301589,86.8420525 66.7013965,88.6533491 C76.1726342,90.4646457 85.2090805,93.4080026 87.9420545,100 C87.9420545,100 88.9679216,97.437336 87.3389569,94.2134685 C85.7119958,90.9896011 85.728025,86.3090825 88.1243864,79.1981406 C90.5207478,72.0851951 89.8034423,65.6755295 81.0935903,57.1880823 C81.0935903,57.1880823 86.1788455,58.9432768 91.3943377,53.8700435 C96.6098299,48.7988138 100.182332,51.3314232 100.182332,51.3314232 C100.182332,51.3314232 98.633513,49.3097437 94.9087339,47.9492677 C91.1839548,46.5907952 81.1476888,35.1018854 73.2372919,35.1637476 C65.3288986,35.2281152 56.1301569,36.5084454 52.4254143,46.7490833 Z" id="Path" fill="#F6CD4C"></path>
            <path d="M38.4940592,38.0732934 C38.4940592,38.0732934 42.6355968,52.12086 28.6601615,55.7514677 C14.6847262,59.3820754 7.05283616,49.518123 0,52.5396221 C0,52.5396221 6.04099461,50.1632972 9.53735799,41.9102767 C13.0337214,33.6572562 31.9321165,18.1991224 38.4940592,38.0732934 Z" id="Path" fill="#F6CD4C"></path>
            <path d="M82.8127191,89.3025306 C82.8127191,89.3025306 39.9747541,35.6268409 32.479112,0 C32.479112,0 28.7663548,0.144262558 27.7745497,3.3040133 C27.7765533,3.3040133 41.217015,40.8723877 82.8127191,89.3025306 Z" id="Path" fill="#DFA92A"></path>
            <path d="M67.2143301,83.7103528 C67.2143301,83.7103528 65.3088621,77.6893947 67.6671542,69.9132421 L66.8476627,68.7130578 C66.8476627,68.7150614 64.7358192,77.7755515 67.2143301,83.7103528 Z" id="Path" fill="#DFA92A"></path>
            <path d="M82.9990583,78.5409445 C82.9990583,78.5409445 78.4748242,75.9682622 72.5039572,76.1686269 L71.9629726,75.3030516 C71.9629726,75.3030516 79.4385782,75.657697 82.9990583,78.5409445 Z" id="Path" fill="#DFA92A"></path>
            <path d="M78.3706346,64.3390972 C78.3706346,64.3390972 70.3961209,61.2314412 63.0026649,62.7401871 L62.1791661,61.3957402 C62.1811697,61.3977439 71.4941193,60.5942816 78.3706346,64.3390972 Z" id="Path" fill="#DFA92A"></path>
            <path d="M45.4567313,79.9535154 C45.4567313,79.9535154 44.9958925,68.4405618 58.6587589,57.552746 L57.8633112,55.885712 C57.8633112,55.8837083 44.2565469,66.4569517 45.4567313,79.9535154 Z" id="Path" fill="#DFA92A"></path>
            <path d="M81.6686369,47.5385201 C81.6686369,47.5385201 71.0553207,43.0563626 56.056022,52.0146667 L54.7736881,50.6842453 C54.7736881,50.6842453 69.4584143,41.6658318 81.6686369,47.5385201 Z" id="Path" fill="#DFA92A"></path>
            <path d="M11.4929171,49.7124767 C11.4929171,49.7124767 33.9638141,41.5696568 41.948346,28.9907632 L42.982228,31.6576169 C42.9842313,31.6576169 33.4749244,43.6294055 11.4929171,49.7124767 Z" id="Path" fill="#DFA92A"></path>
            <path d="M32.7055241,49.5702178 C32.7055241,49.5702178 36.1437817,44.8556373 34.3485143,38.5722014 L33.2064357,39.2193793 C33.2064357,39.2193793 35.6408664,44.0601895 32.7055241,49.5702178 Z" id="Path" fill="#DFA92A"></path>
            <path d="M30.2911299,40.4215673 C30.2911299,40.4215673 25.5284618,34.7091707 21.5251758,36.408263 C21.5251758,36.408263 25.0035064,35.5266585 29.6499629,41.0927889 L30.2911299,40.4215673 Z" id="Path" fill="#DFA92A"></path>
            <path d="M25.8250015,44.018113 C25.8250015,44.018113 26.5382997,48.4301429 23.7031397,51.4075618 C23.7031397,51.4075618 27.0111603,49.0372478 26.7947665,43.5232122 L25.8250015,44.018113 Z" id="Path" fill="#DFA92A"></path>
            <path d="M20.5293634,46.0177523 C20.5293634,46.0177523 18.036827,42.1206596 14.7809012,43.2767637 C14.7809012,43.2767637 17.3936565,41.1388727 21.1424793,45.7592819 L20.5293634,46.0177523 Z" id="Path" fill="#DFA92A"></path>
            <path d="M45.4707568,22.5650684 C45.4707568,22.5650684 53.214851,34.9956922 65.2146907,26.9670801 C77.2145304,18.938468 74.9183514,6.68015789 81.8629906,3.41621752 C81.8629906,3.41621752 76.0724519,6.35155984 67.5809974,3.47833056 C59.089543,0.605101284 34.9816666,4.45210283 45.4707568,22.5650684 Z" id="Path" fill="#F6CD4C"></path>
            <path d="M72.1132461,10.1244265 C72.1132461,10.1244265 51.0949929,21.5031357 36.3882266,19.108778 L37.6926005,21.6534092 C37.6926005,21.6554129 52.9563806,22.5069627 72.1132461,10.1244265 Z" id="Path" fill="#DFA92A"></path>
            <path d="M57.9093951,25.8811036 C57.9093951,25.8811036 52.1008235,25.3160753 48.6004528,19.7980324 L49.8427137,19.375263 C49.8407101,19.375263 51.8403494,24.4124306 57.9093951,25.8811036 Z" id="Path" fill="#DFA92A"></path>
            <path d="M52.6758701,17.9967541 C52.6758701,17.9967541 51.5718608,10.6413673 55.5030155,8.77797592 C55.5030155,8.77797592 52.5316075,10.7896371 53.6055621,17.9626921 L52.6758701,17.9967541 Z" id="Path" fill="#DFA92A"></path>
            <path d="M58.3321645,17.0490292 C58.3321645,17.0490292 61.153299,20.5133343 65.2627783,20.3750827 C65.2627783,20.3750827 61.2935543,21.2727163 57.3163157,17.4457513 L58.3321645,17.0490292 Z" id="Path" fill="#DFA92A"></path>
            <path d="M63.3452884,14.4222485 C63.3452884,14.4222485 62.089002,9.97014567 65.1185157,8.30511531 C65.1185157,8.30511531 61.7844477,8.83808532 62.7461981,14.70877 L63.3452884,14.4222485 Z" id="Path" fill="#DFA92A"></path>
        </g>
    </g>
</svg>