<?xml version="1.0" encoding="UTF-8"?>
<svg width="94px" height="100px" viewBox="0 0 94 100" version="1.1" xmlns="http://www.w3.org/2000/svg" xmlns:xlink="http://www.w3.org/1999/xlink">
    <title>leaf-03</title>
    <g id="Page-1" stroke="none" stroke-width="1" fill="none" fill-rule="evenodd">
        <g id="leaf-03" transform="translate(0.000000, 0.000000)" fill-rule="nonzero">
            <path d="M55.3941168,33.4135776 C55.3941168,33.4135776 48.1200677,21.469497 58.7641395,10.5294232 C70.3482177,-1.37665712 80.762288,-4.37267734 79.284278,7.74940445 C77.7362675,20.4414901 71.3602245,33.76758 55.3941168,33.4135776 Z" id="Path" fill="#F6CD4C"></path>
            <path d="M47.8880662,40.7877158 C47.8880662,40.7877158 37.2779946,40.9476284 31.6259565,27.6595388 C24.883911,11.8114319 30.0879461,-1.7886599 39.4320091,8.49940951 C48.7760722,18.7874789 51.8500929,31.9775679 47.8880662,40.7877158 Z" id="Path" fill="#F6CD4C"></path>
            <path d="M25.2099132,75.9538646 C25.2099132,75.9538646 14.8938436,78.4398814 6.46378669,66.7158023 C-3.59228115,52.735708 -1.50226705,38.3236107 9.87180969,46.3096646 C21.2458864,54.2957185 27.1419262,66.4878007 25.2099132,75.9538646 Z" id="Path" fill="#F6CD4C"></path>
            <path d="M38.8920055,57.5017401 C38.8920055,57.5017401 28.3319342,60.887763 19.4658744,49.4896861 C8.28979901,35.1195891 8.25179876,23.2575091 21.035885,28.7115459 C34.1919738,34.3215837 42.086027,46.1476635 38.8920055,57.5017401 Z" id="Path" fill="#F6CD4C"></path>
            <path d="M45.9840533,62.1377714 C45.9840533,62.1377714 48.7080717,72.8878439 63.0741686,74.3638539 C81.1822908,76.2258664 91.2623588,69.9718242 79.8622819,62.0197706 C68.1322028,53.8397154 53.9201069,53.4117125 45.9840533,62.1377714 Z" id="Path" fill="#F6CD4C"></path>
            <path d="M56.0381212,45.63366 C56.0381212,45.63366 63.1101689,53.5437134 76.7122606,48.6936807 C92.9343701,42.9096417 99.4084138,29.8655537 85.51032,29.9695544 C71.6122262,30.0735551 59.8321468,36.7496001 56.0381212,45.63366 Z" id="Path" fill="#F6CD4C"></path>
            <path d="M35.263981,80.4358948 C35.263981,80.4358948 35.0059793,91.0439664 48.2420686,96.8160054 C64.0281751,103.702052 77.6762671,98.6220175 67.4721983,89.1859539 C57.2681295,79.7498902 45.0180468,78.0158785 35.263981,80.4358948 Z" id="Path" fill="#F6CD4C"></path>
            <path d="M70.2682172,11.0374266 C70.2682172,11.0374266 59.3341434,24.4995175 52.1880952,42.6496399 C43.6020373,64.4597871 29.341941,87.283941 13.7578359,97.0420069 C13.7578359,97.0420069 11.0638177,96.2260014 10.7338155,93.5099831 C10.7338155,93.5099831 30.3359478,88.0799464 50.8660863,41.8556346 C50.8660863,41.8556346 59.8061466,20.9934938 70.2682172,11.0374266 Z" id="Path" fill="#DFA92A"></path>
            <path d="M35.1699804,15.8514591 C35.1699804,15.8514591 44.6400443,39.1396162 51.3280894,43.2456439 L50.534084,44.3716515 C50.534084,44.3716515 42.4980298,39.7796205 35.1699804,15.8514591 Z" id="Path" fill="#DFA92A"></path>
            <path d="M5.23577841,51.257698 C5.23577841,51.257698 19.9378776,74.3698539 30.9979522,78.2638802 L30.4439485,79.5258887 C30.4419485,79.5258887 19.7398763,77.2858736 5.23577841,51.257698 Z" id="Path" fill="#DFA92A"></path>
            <path d="M65.4341846,94.4379893 C65.4341846,94.4379893 42.3220286,87.6379434 32.2879609,76.9218711 L31.1959536,78.1138792 C31.1959536,78.1118792 43.7800385,89.6699571 65.4341846,94.4379893 Z" id="Path" fill="#DFA92A"></path>
            <path d="M18.0838651,35.099589 C18.0838651,35.099589 35.859985,56.7737352 43.420036,58.8777494 L42.966033,60.1797582 C42.968033,60.1777582 33.3159679,57.4177395 18.0838651,35.099589 Z" id="Path" fill="#DFA92A"></path>
            <path d="M77.0842632,67.6398085 C77.0842632,67.6398085 49.1720748,65.0657911 43.1920345,59.9837569 L42.3680289,61.0897643 C42.3700289,61.0877643 50.0660809,67.5338078 77.0842632,67.6398085 Z" id="Path" fill="#DFA92A"></path>
            <path d="M83.1823043,36.9536015 C83.1823043,36.9536015 58.7461394,46.4896658 50.5580842,44.585653 L50.092081,46.0036625 C50.092081,46.0056626 62.6541658,47.8156748 83.1823043,36.9536015 Z" id="Path" fill="#DFA92A"></path>
        </g>
    </g>
</svg>