<?xml version="1.0" encoding="UTF-8"?>
<svg width="212px" height="44px" viewBox="0 0 212 44" version="1.1" xmlns="http://www.w3.org/2000/svg" xmlns:xlink="http://www.w3.org/1999/xlink">
    <title>Reserva’t el dia</title>
    <g id="Page-1" stroke="none" stroke-width="1" fill="none" fill-rule="evenodd">
        <g id="Mòbil---Save-the-date---Vectorial" transform="translate(-96.000000, -487.000000)" fill="#2F6FAF" fill-rule="nonzero">
            <g id="Reserva’t-el-dia." transform="translate(96.967773, 487.372559)">
                <path d="M7.734375,17.6220703 C7.48535156,17.5927734 7.15576172,17.5634766 6.74560547,17.5341797 C5.63232422,17.4462891 4.39453125,17.2961426 3.03222656,17.0837402 C1.66992187,16.8713379 0.732421875,16.5307617 0.219726563,16.0620117 C0.0732421875,15.871582 0,15.6738281 0,15.46875 C0,15.2197266 0.0805664062,14.9707031 0.241699219,14.7216797 C0.402832031,14.4726562 0.563964844,14.2529297 0.725097656,14.0625 C1.85302734,12.9199219 3.81591797,11.6748047 6.61376953,10.3271484 C9.41162109,8.97949219 12.2607422,7.77832031 15.1611328,6.72363281 C18.0615234,5.66894531 20.222168,5.01708984 21.6430664,4.76806641 C21.9213867,4.72412109 22.1228027,4.56665039 22.2473145,4.2956543 C22.3718262,4.0246582 22.4780273,3.68408203 22.565918,3.27392578 C22.6538086,2.86376953 22.7819824,2.41333008 22.9504395,1.92260742 C23.1188965,1.43188477 23.3789062,0.922851562 23.7304687,0.395507813 C23.9355469,0.131835938 24.1479492,0 24.3676758,0 C24.6166992,0 24.8217773,0.17578125 24.9829102,0.52734375 C25.1147461,1.08398438 25.1806641,1.64794922 25.1806641,2.21923828 C25.1806641,2.46826172 25.1733398,2.71728516 25.1586914,2.96630859 C25.1586914,3.01025391 25.1586914,3.06152344 25.1586914,3.12011719 C25.1733398,3.32519531 25.2282715,3.46435547 25.3234863,3.53759766 C25.4187012,3.61083984 25.5395508,3.64746094 25.6860352,3.64746094 C25.847168,3.64746094 26.015625,3.61816406 26.1914062,3.55957031 C26.2353516,3.54492188 26.2719727,3.53759766 26.3012695,3.53759766 C26.9604492,3.39111328 27.9492188,3.20068359 29.2675781,2.96630859 C30.5859375,2.73193359 32.0690918,2.51586914 33.717041,2.31811523 C35.3649902,2.12036133 36.9726562,2.02148438 38.5400391,2.02148438 C39.84375,2.02148438 41.0449219,2.12402344 42.1435547,2.32910156 C43.2421875,2.53417969 44.1210938,2.88574219 44.7802734,3.38378906 C45.4394531,3.88183594 45.769043,4.57763672 45.769043,5.47119141 C45.769043,6.07177734 45.5932617,6.77490234 45.2416992,7.58056641 C44.9633789,8.19580078 44.5898438,8.82568359 44.1210938,9.47021484 C43.6523438,10.1147461 43.2055664,10.6933594 42.7807617,11.2060547 C40.9936523,13.3300781 39.0307617,15.3552246 36.8920898,17.2814941 C34.753418,19.2077637 32.5854492,21.027832 30.3881836,22.7416992 C30.168457,22.9321289 30.0585938,23.1225586 30.0585938,23.3129883 C30.0585938,23.5473633 30.1611328,23.7963867 30.3662109,24.0600586 C30.3808594,24.0893555 30.402832,24.1259766 30.4321289,24.1699219 C32.1166992,27.0849609 33.9697266,29.8974609 35.9912109,32.6074219 C37.6025391,34.7167969 39.1333008,36.4123535 40.5834961,37.6940918 C42.0336914,38.9758301 43.1982422,39.6166992 44.0771484,39.6166992 C44.5751953,39.6166992 44.9414062,39.3603516 45.1757812,38.8476562 C45.2490234,38.7011719 45.3515625,38.6279297 45.4833984,38.6279297 C45.6738281,38.6279297 45.8679199,38.7194824 46.0656738,38.9025879 C46.2634277,39.0856934 46.3623047,39.2797852 46.3623047,39.4848633 C46.3623047,39.6459961 46.2817383,39.7851562 46.1206055,39.9023438 C45.4907227,40.2685547 44.8535156,40.4516602 44.2089844,40.4516602 C43.4179688,40.4516602 42.6379395,40.246582 41.8688965,39.8364258 C41.0998535,39.4262695 40.3820801,38.9355469 39.7155762,38.3642578 C39.0490723,37.7929688 38.4667969,37.2363281 37.96875,36.6943359 C36.2988281,34.8925781 34.7680664,32.9260254 33.3764648,30.7946777 C31.9848633,28.6633301 30.6811523,26.5283203 29.465332,24.3896484 C29.3041992,24.1259766 29.1430664,23.9941406 28.9819336,23.9941406 C28.7915039,23.9941406 28.5717773,24.1040039 28.3227539,24.3237305 C28.3081055,24.3383789 28.293457,24.3530273 28.2788086,24.3676758 C26.8579102,25.4223633 25.4150391,26.4624023 23.9501953,27.487793 C23.6865234,27.6635742 23.5070801,27.8320313 23.4118652,27.9931641 C23.3166504,28.1542969 23.269043,28.3300781 23.269043,28.5205078 C23.269043,28.7402344 23.3129883,29.0185547 23.4008789,29.3554688 C23.4155273,29.4140625 23.4301758,29.4799805 23.4448242,29.5532227 C23.9282227,32.0288086 24.1699219,34.5410156 24.1699219,37.0898438 C24.1699219,38.4375 24.1186523,39.7558594 24.0161133,41.0449219 C23.9575195,41.7480469 23.8330078,42.2460938 23.6425781,42.5390625 C23.4521484,42.8320312 23.2397461,42.9785156 23.0053711,42.9785156 C22.7709961,42.9785156 22.5402832,42.8686523 22.3132324,42.6489258 C22.0861816,42.4291992 21.9213867,42.1875 21.8188477,41.9238281 C21.2915039,40.4736328 20.9033203,39.0380859 20.6542969,37.6171875 C20.4052734,36.1962891 20.2441406,34.8156738 20.1708984,33.4753418 C20.0976562,32.1350098 20.0610352,30.8789062 20.0610352,29.7070313 L20.0610352,27.1362305 C20.0610352,26.0375977 20.0170898,25.0964355 19.9291992,24.3127441 C19.8413086,23.5290527 19.6435547,22.9467773 19.3359375,22.565918 C17.7832031,20.8374023 16.0253906,19.6289062 14.0625,18.9404297 C12.0996094,18.2519531 9.99023438,17.8125 7.734375,17.6220703 Z M22.8295898,41.4404297 C23.0932617,40.2539062 23.2250977,38.840332 23.2250977,37.199707 C23.2250977,35.2954102 23.0712891,33.3288574 22.7636719,31.3000488 C22.4560547,29.2712402 22.03125,27.590332 21.4892578,26.2573242 C21.4746094,26.1987305 21.4453125,26.1328125 21.4013672,26.0595703 C21.3574219,25.9863281 21.2988281,25.949707 21.2255859,25.949707 C21.1962891,25.949707 21.1669922,25.9570312 21.1376953,25.9716797 C21.09375,26.0009766 21.0681152,26.0852051 21.060791,26.2243652 C21.0534668,26.3635254 21.0498047,26.5063477 21.0498047,26.652832 L21.0498047,26.9384766 C21.0351562,27.4365234 21.027832,27.956543 21.027832,28.4985352 C21.027832,30.1391602 21.1047363,31.8969727 21.2585449,33.7719727 C21.4123535,35.6469727 21.6357422,37.3168945 21.9287109,38.7817383 C22.0019531,39.1772461 22.1154785,39.6350098 22.2692871,40.1550293 C22.4230957,40.6750488 22.6098633,41.1035156 22.8295898,41.4404297 Z M23.7963867,2.41699219 L23.4887695,3.31787109 C23.4301758,3.52294922 23.4008789,3.68408203 23.4008789,3.80126953 C23.4008789,4.05029297 23.4814453,4.16748047 23.6425781,4.15283203 C23.7451172,4.15283203 23.8586426,4.10888672 23.9831543,4.02099609 C24.107666,3.93310547 24.206543,3.83056641 24.2797852,3.71337891 C24.4262695,3.40576172 24.4995117,3.05419922 24.4995117,2.65869141 C24.4995117,2.42431641 24.4812012,2.21557617 24.4445801,2.0324707 C24.407959,1.84936523 24.3603516,1.74316406 24.3017578,1.71386719 C24.2724609,1.69921875 24.2358398,1.69189453 24.1918945,1.69189453 C24.0893555,1.69189453 24.0087891,1.76513672 23.9501953,1.91162109 C23.8916016,2.05810547 23.8476562,2.19726562 23.8183594,2.32910156 C23.8183594,2.35839844 23.8110352,2.38769531 23.7963867,2.41699219 Z M22.7856445,6.37207031 C22.7416992,6.6796875 22.6757812,7.08251953 22.5878906,7.58056641 C22.3095703,9.32373047 21.9799805,11.5759277 21.5991211,14.3371582 C21.2182617,17.0983887 21.027832,19.4677734 21.027832,21.4453125 C21.027832,22.7783203 21.1669922,23.7231445 21.4453125,24.2797852 C21.8408203,24.9682617 22.1191406,25.5175781 22.2802734,25.9277344 C22.3828125,26.1914062 22.4780273,26.3928223 22.565918,26.5319824 C22.6538086,26.6711426 22.7636719,26.7407227 22.8955078,26.7407227 C23.1152344,26.7407227 23.4960938,26.5429688 24.0380859,26.1474609 C24.2724609,25.9863281 24.7155762,25.6713867 25.3674316,25.2026367 C26.0192871,24.7338867 26.652832,24.2687988 27.2680664,23.807373 C27.8833008,23.3459473 28.2495117,23.0493164 28.3666992,22.9174805 C28.425293,22.8442383 28.4545898,22.7636719 28.4545898,22.6757812 C28.4545898,22.4560547 28.3447266,22.199707 28.125,21.9067383 C28.0810547,21.8334961 28.0371094,21.7602539 27.9931641,21.6870117 C27.9199219,21.5551758 27.8833008,21.4306641 27.8833008,21.3134766 C27.8833008,21.1816406 27.9272461,21.0791016 28.0151367,21.0058594 C28.1030273,20.9326172 28.2055664,20.8959961 28.3227539,20.8959961 C28.527832,20.8959961 28.7109375,21.0205078 28.8720703,21.2695312 C28.9892578,21.5332031 29.0881348,21.7272949 29.1687012,21.8518066 C29.2492676,21.9763184 29.3334961,22.0385742 29.4213867,22.0385742 C29.5678711,22.0385742 29.7949219,21.8920898 30.1025391,21.5991211 C30.1611328,21.5551758 30.2270508,21.5039062 30.300293,21.4453125 C32.1166992,19.9951172 33.9770508,18.4020996 35.8813477,16.6662598 C37.7856445,14.9304199 39.4848633,13.2275391 40.9790039,11.5576172 C41.5356445,10.9277344 42.0922852,10.2429199 42.6489258,9.50317383 C43.2055664,8.76342773 43.6743164,8.02001953 44.0551758,7.27294922 C44.4360352,6.52587891 44.6264648,5.84472656 44.6264648,5.22949219 C44.6264648,4.55566406 44.3261719,3.99902344 43.7255859,3.55957031 C43.125,3.12011719 42.0922852,2.88574219 40.6274414,2.85644531 L40.1660156,2.85644531 C37.9101562,2.85644531 35.7495117,3.02490234 33.684082,3.36181641 C31.6186523,3.69873047 29.5166016,4.09423828 27.3779297,4.54833984 C26.8505859,4.66552734 26.3232422,4.77539062 25.7958984,4.87792969 C25.3710938,4.96582031 25.1037598,5.0793457 24.9938965,5.21850586 C24.8840332,5.35766602 24.8144531,5.63232422 24.7851562,6.04248047 C24.6679688,7.03857422 24.5507812,8.04199219 24.4335938,9.05273438 C24.0673828,12.3046875 23.6572266,15.5566406 23.203125,18.8085938 C23.203125,18.8378906 23.1958008,18.8818359 23.1811523,18.9404297 C23.1665039,19.0576172 23.1518555,19.1821289 23.137207,19.3139648 C23.1225586,19.4458008 23.1005859,19.5666504 23.0712891,19.6765137 C23.0419922,19.786377 23.0126953,19.8486328 22.9833984,19.8632812 L22.9394531,19.8632812 C22.8955078,19.8632812 22.8625488,19.8413086 22.8405762,19.7973633 C22.8186035,19.753418 22.8076172,19.6948242 22.8076172,19.621582 C22.8076172,19.5043945 22.8222656,19.3725586 22.8515625,19.2260742 C22.8662109,19.1235352 22.8735352,19.0283203 22.8735352,18.9404297 C23.0493164,16.5673828 23.2763672,14.2016602 23.5546875,11.8432617 C23.7597656,9.96826172 23.9428711,8.10058594 24.1040039,6.24023438 C24.1186523,6.18164062 24.1259766,6.10839844 24.1259766,6.02050781 C24.1259766,5.93261719 24.1149902,5.84838867 24.0930176,5.76782227 C24.0710449,5.68725586 24.0234375,5.625 23.9501953,5.58105469 C23.8623047,5.55175781 23.7597656,5.53710938 23.6425781,5.53710938 C23.5400391,5.53710938 23.4411621,5.54443359 23.3459473,5.55908203 C23.2507324,5.57373047 23.1738281,5.59570312 23.1152344,5.625 C23.0126953,5.68359375 22.9394531,5.7824707 22.8955078,5.92163086 C22.8515625,6.06079102 22.8222656,6.18896484 22.8076172,6.30615234 C22.7929688,6.32080078 22.7856445,6.34277344 22.7856445,6.37207031 Z M1.42822266,14.9414063 C1.29638672,15.1171875 1.23046875,15.2709961 1.23046875,15.402832 C1.23046875,15.6811523 1.44287109,15.9008789 1.86767578,16.0620117 C2.62939453,16.340332 3.85253906,16.5307617 5.53710938,16.6333008 C6.78222656,16.7211914 8.14819336,16.8713379 9.63500977,17.0837402 C11.1218262,17.2961426 12.6159668,17.6733398 14.1174316,18.215332 C15.6188965,18.7573242 17.0068359,19.5556641 18.28125,20.6103516 C18.3398438,20.6689453 18.4130859,20.7348633 18.5009766,20.8081055 C18.6914062,20.9838867 18.8928223,21.1560059 19.1052246,21.3244629 C19.317627,21.4929199 19.5117188,21.5771484 19.6875,21.5771484 C19.8486328,21.5771484 19.9658203,21.4526367 20.0390625,21.2036133 C20.0830078,21.0131836 20.0976562,20.8154297 20.0830078,20.6103516 C20.0976562,20.5078125 20.1049805,20.4052734 20.1049805,20.3027344 C20.4125977,15.6884766 20.9692383,11.1108398 21.7749023,6.56982422 L21.7749023,6.45996094 C21.7749023,6.24023438 21.6503906,6.14501953 21.4013672,6.17431641 C21.1083984,6.17431641 20.7568359,6.25488281 20.3466797,6.41601563 C20.2294922,6.4453125 20.1196289,6.47460938 20.0170898,6.50390625 C18.5229492,6.9140625 16.5014648,7.55493164 13.9526367,8.42651367 C11.4038086,9.2980957 8.93554688,10.3015137 6.54785156,11.4367676 C4.16015625,12.5720215 2.45361328,13.7402344 1.42822266,14.9414063 Z" id="Shape"></path>
                <path d="M62.1166992,21.8408203 C62.2631836,21.9580078 62.3364258,22.0678711 62.3364258,22.1704102 C62.3364258,22.3022461 62.2558594,22.4267578 62.0947266,22.5439453 C61.9335938,22.6611328 61.7431641,22.7856445 61.5234375,22.9174805 C61.3476563,23.0200195 61.1865234,23.1225586 61.0400391,23.2250977 C60.4541016,23.6499023 59.8681641,24.0820312 59.2822266,24.5214844 C58.4033203,25.1806641 57.5244141,25.8251953 56.6455078,26.4550781 C56.2060547,26.7626953 56.0083008,27.1655273 56.0522461,27.6635742 L56.0961914,28.059082 C56.1547852,30.0073242 55.7592773,31.5380859 54.909668,32.6513672 C54.0600586,33.7646484 53.1738281,34.3212891 52.2509766,34.3212891 C51.6503906,34.3212891 51.1230469,34.0722656 50.6689453,33.5742188 C50.4345703,33.28125 50.3100586,32.9663086 50.2954102,32.6293945 C50.2807617,31.9848633 50.5114746,31.307373 50.9875488,30.5969238 C51.463623,29.8864746 52.0056152,29.2272949 52.6135254,28.6193848 C53.2214355,28.0114746 53.7231445,27.5317383 54.1186523,27.1801758 C54.1479492,27.1655273 54.1699219,27.1435547 54.1845703,27.1142578 C54.2138672,27.0996094 54.2358398,27.0849609 54.2504883,27.0703125 C54.4702148,26.8652344 54.642334,26.6748047 54.7668457,26.4990234 C54.8913574,26.3232422 54.9536133,26.1035156 54.9536133,25.8398438 C54.9389648,25.6787109 54.8950195,25.4882812 54.8217773,25.2685547 L52.4487305,18.2373047 C52.3608398,17.9882812 52.2729492,17.8637695 52.1850586,17.8637695 C52.0678711,17.8637695 51.9580078,17.980957 51.8554688,18.215332 C51.7529297,18.449707 51.6650391,18.684082 51.5917969,18.918457 C51.5478516,19.0356445 51.5112305,19.1381836 51.4819336,19.2260742 C50.9985352,20.456543 50.4309082,21.7492676 49.7790527,23.104248 C49.1271973,24.4592285 48.3691406,25.7080078 47.5048828,26.8505859 C46.640625,27.9931641 45.6518555,28.8574219 44.5385742,29.4433594 C44.230957,29.5898438 43.9013672,29.6630859 43.5498047,29.6630859 C42.9638672,29.6630859 42.3999023,29.4616699 41.8579102,29.0588379 C41.315918,28.6560059 40.9057617,28.1103516 40.6274414,27.421875 C40.3637695,26.6748047 40.2099609,25.8984375 40.1660156,25.0927734 C40.1074219,23.9501953 40.2026367,22.8405762 40.4516602,21.763916 C40.7006836,20.6872559 41.0302734,19.7607422 41.4404297,18.984375 C41.7333984,18.4570312 42.0996094,17.9736328 42.5390625,17.5341797 C42.7880859,17.2851562 43.0444336,17.1606445 43.3081055,17.1606445 C43.6450195,17.1606445 43.9416504,17.3071289 44.197998,17.6000977 C44.4543457,17.8930664 44.6044922,18.2299805 44.6484375,18.6108398 C44.6484375,18.6987305 44.6411133,18.7792969 44.6264648,18.8525391 C44.5239258,19.7900391 44.3847656,20.5224609 44.2089844,21.0498047 C44.0332031,21.5771484 43.8427734,22.03125 43.6376953,22.4121094 C43.3154297,23.0126953 42.989502,23.4667969 42.6599121,23.7744141 C42.3303223,24.0820312 42.0483398,24.309082 41.8139648,24.4555664 C41.5795898,24.5874023 41.4257813,24.7192383 41.3525391,24.8510742 C41.2939453,24.9975586 41.2719727,25.246582 41.2866211,25.5981445 C41.3305664,26.1254883 41.4257813,26.6748047 41.5722656,27.2460938 C41.71875,27.8173828 41.8945313,28.2055664 42.0996094,28.4106445 C42.3925781,28.6450195 42.7001953,28.762207 43.0224609,28.762207 C43.3886719,28.762207 43.7402344,28.6706543 44.0771484,28.4875488 C44.4140625,28.3044434 44.6777344,28.125 44.8681641,27.9492188 C46.4941406,26.4990234 47.9553223,24.4152832 49.251709,21.697998 C50.5480957,18.9807129 51.3574219,16.5966797 51.6796875,14.5458984 C51.6796875,14.53125 51.6796875,14.5166016 51.6796875,14.5019531 C51.6943359,14.2822266 51.7346191,14.0881348 51.8005371,13.9196777 C51.8664551,13.7512207 52.0092773,13.6669922 52.2290039,13.6669922 C52.3022461,13.6669922 52.3754883,13.6743164 52.4487305,13.6889648 C52.7709961,13.762207 52.9248047,13.9453125 52.9101563,14.2382812 C52.9248047,14.3994141 52.9174805,14.597168 52.8881836,14.831543 C52.8735352,15.0219727 52.8588867,15.2416992 52.8442383,15.4907227 L52.8442383,15.7983398 C52.902832,16.4575195 53.0493164,17.175293 53.2836914,17.9516602 C53.5180664,18.7280273 53.7597656,19.4458008 54.0087891,20.1049805 C54.0820313,20.3393555 54.1552734,20.5517578 54.2285156,20.7421875 C54.5361328,21.5917969 54.8291016,22.4414062 55.1074219,23.2910156 C55.2685547,23.7744141 55.4296875,24.2504883 55.5908203,24.7192383 C55.6787109,25.1879883 55.8178711,25.4223633 56.0083008,25.4223633 C56.1254883,25.4223633 56.2866211,25.3491211 56.4916992,25.2026367 C56.6088867,25.1000977 56.7993164,24.9536133 57.0629883,24.7631836 C57.5170898,24.4116211 58.059082,24.005127 58.6889648,23.5437012 C59.3188477,23.0822754 59.934082,22.6721191 60.534668,22.3132324 C61.1352539,21.9543457 61.5893555,21.7749023 61.8969727,21.7749023 C61.9848633,21.7749023 62.0581055,21.796875 62.1166992,21.8408203 Z M43.659668,18.5229492 C43.6010742,18.4643555 43.5424805,18.4350586 43.4838867,18.4350586 C43.2495117,18.4350586 42.9711914,18.7316895 42.6489258,19.3249512 C42.3266602,19.9182129 42.052002,20.5627441 41.8249512,21.2585449 C41.5979004,21.9543457 41.484375,22.5 41.484375,22.8955078 C41.4990234,23.1005859 41.5649414,23.203125 41.6821289,23.203125 C41.7993164,23.203125 41.9750977,23.0859375 42.2094727,22.8515625 C42.9272461,22.03125 43.3666992,21.0571289 43.527832,19.9291992 C43.5424805,19.8852539 43.5571289,19.8339844 43.5717773,19.7753906 C43.6157227,19.6289062 43.6560059,19.4677734 43.692627,19.2919922 C43.729248,19.1162109 43.7475586,18.9550781 43.7475586,18.8085938 C43.7475586,18.6914062 43.7182617,18.5961914 43.659668,18.5229492 Z M54.6240234,30.8496094 C54.7412109,30.5566406 54.8474121,30.1977539 54.942627,29.7729492 C55.0378418,29.3481445 55.078125,28.9526367 55.0634766,28.5864258 C55.0488281,28.4692383 55.0268555,28.359375 54.9975586,28.2568359 C54.9829102,28.1689453 54.9389648,28.125 54.8657227,28.125 C54.7338867,28.125 54.5544434,28.223877 54.3273926,28.4216309 C54.1003418,28.6193848 53.8916016,28.8208008 53.7011719,29.0258789 C53.5107422,29.230957 53.3862305,29.362793 53.3276367,29.4213867 C53.3129883,29.4360352 53.2910156,29.465332 53.2617188,29.5092773 C52.9394531,29.8461914 52.5366211,30.333252 52.0532227,30.970459 C51.5698242,31.607666 51.3208008,32.2045898 51.3061523,32.7612305 C51.3061523,32.9223633 51.3574219,33.0688477 51.4599609,33.2006836 C51.6064453,33.347168 51.7822266,33.4204102 51.9873047,33.4204102 C52.1630859,33.4204102 52.3168945,33.3911133 52.4487305,33.3325195 C52.9467773,33.1420898 53.3862305,32.8088379 53.7670898,32.3327637 C54.1479492,31.8566895 54.4335938,31.3623047 54.6240234,30.8496094 Z" id="Shape"></path>
                <path d="M73.2128906,18.8525391 C72.7148438,20.3613281 72.2497559,21.6540527 71.817627,22.7307129 C71.385498,23.807373 70.7958984,25.0488281 70.0488281,26.4550781 C69.7412109,27.0556641 69.2871094,27.8173828 68.6865234,28.7402344 C68.0859375,29.6630859 67.4157715,30.5236816 66.6760254,31.3220215 C65.9362793,32.1203613 65.1855469,32.6293945 64.4238281,32.8491211 C64.1015625,32.9223633 63.7939453,32.9589844 63.5009766,32.9589844 C62.8125,32.9589844 62.2229004,32.7758789 61.7321777,32.409668 C61.2414551,32.043457 60.8496094,31.5710449 60.5566406,30.9924316 C60.2636719,30.4138184 60.0805664,29.7949219 60.0073242,29.1357422 C59.9633789,28.7402344 59.9414062,28.3300781 59.9414062,27.9052734 C59.9414062,26.6015625 60.1464844,25.2832031 60.5566406,23.9501953 C60.9667969,22.6171875 61.5380859,21.4526367 62.2705078,20.456543 C62.6220703,20.0170898 63.0322266,19.621582 63.5009766,19.2700195 C63.75,19.0795898 64.0356445,18.984375 64.3579102,18.984375 C64.6508789,18.984375 64.921875,19.083252 65.1708984,19.2810059 C65.4199219,19.4787598 65.5664062,19.8046875 65.6103516,20.2587891 C65.625,20.390625 65.6323242,20.5151367 65.6323242,20.6323242 C65.6323242,21.8334961 65.2734375,22.9394531 64.5556641,23.9501953 C63.8378906,24.9609375 62.8857422,25.7226562 61.6992188,26.2353516 C61.3769531,26.3525391 61.1755371,26.5026855 61.0949707,26.685791 C61.0144043,26.8688965 60.9667969,27.1362305 60.9521484,27.487793 L60.9521484,27.6635742 C60.9521484,28.059082 60.9960938,28.5681152 61.0839844,29.1906738 C61.171875,29.8132324 61.2597656,30.2636719 61.3476562,30.5419922 C61.7578125,31.6845703 62.3657227,32.2558594 63.1713867,32.2558594 C63.684082,32.2558594 64.2407227,32.0214844 64.8413086,31.5527344 C65.9692383,30.6152344 67.0202637,29.3408203 67.9943848,27.7294922 C68.9685059,26.1181641 69.8181152,24.4445801 70.5432129,22.7087402 C71.2683105,20.9729004 71.8139648,19.4458008 72.1801758,18.1274414 C72.2387695,17.9223633 72.2680664,17.7246094 72.2680664,17.5341797 C72.2680664,17.2705078 72.1728516,16.9921875 71.9824219,16.6992188 C71.6894531,16.2158203 71.5429688,15.6445312 71.5429688,14.9853516 C71.5429688,14.4287109 71.6455078,13.9196777 71.8505859,13.458252 C72.0556641,12.9968262 72.3779297,12.7148438 72.8173828,12.6123047 C72.8759766,12.5976562 72.9345703,12.590332 72.9931641,12.590332 C73.359375,12.590332 73.6157227,12.7478027 73.762207,13.0627441 C73.9086914,13.3776855 73.9819336,13.6743164 73.9819336,13.9526367 C73.996582,14.128418 74.0039062,14.296875 74.0039062,14.4580078 C74.0039062,14.8828125 73.9819336,15.2416992 73.9379883,15.534668 C73.894043,15.8276367 73.8500977,16.0693359 73.8061523,16.2597656 C73.762207,16.4501953 73.7402344,16.6113281 73.7402344,16.7431641 C73.7402344,16.9042969 73.8024902,17.0361328 73.927002,17.1386719 C74.0515137,17.2412109 74.2822266,17.3583984 74.6191406,17.4902344 C75.4248047,17.8125 75.9887695,18.2116699 76.3110352,18.6877441 C76.6333008,19.1638184 76.875,19.8193359 77.0361328,20.6542969 C77.1972656,21.5625 77.3291016,22.4633789 77.4316406,23.3569336 C77.5048828,24.0600586 77.6000977,24.7631836 77.7172852,25.4663086 C77.9370117,26.8139648 78.2299805,28.1542969 78.5961914,29.4873047 C78.8012695,30.1318359 79.1088867,30.4541016 79.519043,30.4541016 C80.0024414,30.4541016 80.5810547,30.1098633 81.2548828,29.4213867 C81.9287109,28.7329102 82.598877,27.9162598 83.2653809,26.9714355 C83.9318848,26.0266113 84.5068359,25.1257324 84.9902344,24.2687988 C85.4736328,23.4118652 85.78125,22.7783203 85.9130859,22.3681641 C85.9570312,22.2509766 86.0302734,22.1630859 86.1328125,22.1044922 C86.2353516,22.0458984 86.3378906,22.0166016 86.4404297,22.0166016 C86.5429688,22.0166016 86.6345215,22.0458984 86.7150879,22.1044922 C86.7956543,22.1630859 86.8359375,22.2509766 86.8359375,22.3681641 C86.8359375,22.4414062 86.8066406,22.5366211 86.7480469,22.6538086 C86.4111328,23.3569336 85.9020996,24.3054199 85.2209473,25.4992676 C84.5397949,26.6931152 83.8000488,27.8283691 83.001709,28.9050293 C82.2033691,29.9816895 81.4526367,30.703125 80.7495117,31.0693359 C80.3833008,31.2304688 80.0170898,31.3110352 79.6508789,31.3110352 C79.1967773,31.3110352 78.7756348,31.1791992 78.3874512,30.9155273 C77.9992676,30.6518555 77.6879883,30.2563477 77.4536133,29.7290039 C76.9995117,28.4545898 76.6479492,26.7919922 76.3989258,24.7412109 C76.1791992,22.9394531 75.871582,21.3134766 75.4760742,19.8632812 C75.3442383,19.4677734 75.1025391,19.0942383 74.7509766,18.7426758 C74.3994141,18.3911133 74.0551758,18.215332 73.7182617,18.215332 C73.659668,18.215332 73.6010742,18.2226562 73.5424805,18.2373047 C73.4692383,18.2666016 73.4069824,18.3325195 73.3557129,18.4350586 C73.3044434,18.5375977 73.2641602,18.6474609 73.2348633,18.7646484 C73.2348633,18.7939453 73.2275391,18.8232422 73.2128906,18.8525391 Z M61.4794922,24.543457 C61.4501953,24.6313477 61.4355469,24.7045898 61.4355469,24.7631836 C61.4355469,24.9389648 61.5161133,25.0268555 61.6772461,25.0268555 C61.9995117,25.0268555 62.4938965,24.6826172 63.1604004,23.9941406 C63.8269043,23.3056641 64.284668,22.4707031 64.5336914,21.4892578 C64.5922852,21.1962891 64.621582,20.9472656 64.621582,20.7421875 C64.621582,20.2734375 64.4970703,20.0390625 64.2480469,20.0390625 C63.9111328,20.0390625 63.4606934,20.4528809 62.8967285,21.2805176 C62.3327637,22.1081543 61.8603516,23.1958008 61.4794922,24.543457 Z" id="Shape"></path>
                <path d="M87.890625,30.6738281 C87.7734375,30.4101562 87.65625,30.1464844 87.5390625,29.8828125 C87.2021484,29.2382812 86.9384766,28.5717773 86.7480469,27.8833008 C86.3818359,26.5649414 86.1437988,25.378418 86.0339355,24.3237305 C85.9240723,23.269043 85.8618164,22.0751953 85.847168,20.7421875 C85.847168,20.5664062 85.916748,20.4309082 86.0559082,20.3356934 C86.1950684,20.2404785 86.3452148,20.1928711 86.5063477,20.1928711 C86.652832,20.1928711 86.7883301,20.2331543 86.9128418,20.3137207 C87.0373535,20.3942871 87.0996094,20.5078125 87.0996094,20.6542969 L87.0996094,20.6762695 C87.0703125,21.2329102 87.0556641,21.8334961 87.0556641,22.4780273 C87.0556641,23.4887695 87.1362305,24.5141602 87.2973633,25.5541992 C87.5024414,26.5649414 87.7807617,27.5610352 88.1323242,28.5424805 C88.2641602,28.9379883 88.3886719,29.3261719 88.5058594,29.7070312 C88.59375,29.9707031 88.6816406,30.1025391 88.7695312,30.1025391 C88.8867188,30.1025391 88.996582,29.9780273 89.0991211,29.7290039 C89.2016602,29.4799805 89.2895508,29.2199707 89.362793,28.9489746 C89.4360352,28.6779785 89.4799805,28.4912109 89.4946289,28.3886719 C89.5532227,28.1103516 89.6191406,27.8027344 89.6923828,27.4658203 C89.9560547,26.3818359 90.2197266,25.1550293 90.4833984,23.7854004 C90.7470703,22.4157715 90.8789062,21.1743164 90.8789062,20.0610352 C90.8789062,19.519043 90.8349609,19.0356445 90.7470703,18.6108398 C90.7177734,18.4790039 90.703125,18.3398438 90.703125,18.1933594 C90.703125,18.0322266 90.7177734,17.8564453 90.7470703,17.6660156 C90.7617188,17.5634766 90.769043,17.4536133 90.769043,17.3364258 C90.7836914,17.1459961 90.8496094,17.0068359 90.9667969,16.9189453 C91.0839844,16.8310547 91.2231445,16.7871094 91.3842773,16.7871094 C91.5307617,16.7871094 91.6772461,16.8273926 91.8237305,16.907959 C91.9702148,16.9885254 92.0654297,17.0947266 92.109375,17.2265625 C92.1679688,17.4755859 92.1972656,17.7612305 92.1972656,18.0834961 L92.1972656,18.9624023 C92.1972656,19.4604492 92.2668457,19.9621582 92.4060059,20.4675293 C92.545166,20.9729004 92.8710938,21.4123535 93.3837891,21.7858887 C93.8964844,22.1594238 94.6875,22.4121094 95.7568359,22.5439453 C96.1083984,22.5878906 96.4306641,22.6098633 96.7236328,22.6098633 C97.4853516,22.6098633 98.0419922,22.5146484 98.3935547,22.3242188 C98.7451172,22.1337891 99.0014648,21.9506836 99.1625977,21.7749023 C99.2944336,21.628418 99.4116211,21.5551758 99.5141602,21.5551758 C99.5874023,21.5551758 99.6679688,21.5917969 99.7558594,21.6650391 C99.8730469,21.7822266 99.9316406,21.8920898 99.9316406,21.9946289 C99.9316406,22.0825195 99.8950195,22.1557617 99.8217773,22.2143555 C99.309082,22.6245117 98.7451172,22.9211426 98.1298828,23.104248 C97.5146484,23.2873535 96.8920898,23.3789062 96.262207,23.3789062 C95.3979492,23.3789062 94.5776367,23.236084 93.8012695,22.9504395 C93.0249023,22.6647949 92.409668,22.2802734 91.9555664,21.796875 C91.8823242,22.1777344 91.8237305,22.5439453 91.7797852,22.8955078 C91.6772461,23.5253906 91.5600586,24.1552734 91.4282227,24.7851562 L89.9560547,30.6079102 C89.8681641,30.8276367 89.732666,30.9887695 89.5495605,31.0913086 C89.3664551,31.1938477 89.1723633,31.2451172 88.9672852,31.2451172 C88.7329102,31.2451172 88.5168457,31.1938477 88.3190918,31.0913086 C88.1213379,30.9887695 87.9785156,30.8496094 87.890625,30.6738281 Z" id="Path"></path>
                <path d="M100.217285,29.1577148 C100.144043,29.1870117 100.070801,29.2016602 99.9975586,29.2016602 C99.8071289,29.2016602 99.609375,29.1247559 99.4042969,28.9709473 C99.1992188,28.8171387 99.0454102,28.6230469 98.9428711,28.3886719 C98.840332,28.125 98.7670898,27.8540039 98.7231445,27.5756836 C98.7084961,27.5024414 98.7011719,27.4291992 98.7011719,27.355957 C98.6279297,24.8803711 99.140625,22.6025391 100.239258,20.5224609 C100.576172,19.7753906 101.066895,19.4018555 101.711426,19.4018555 C102.019043,19.4018555 102.385254,19.4750977 102.810059,19.621582 C102.839355,19.5776367 102.868652,19.5336914 102.897949,19.4897461 C102.956543,19.3725586 103.018799,19.2810059 103.084717,19.2150879 C103.150635,19.1491699 103.234863,19.1162109 103.337402,19.1162109 C103.439941,19.1162109 103.571777,19.1455078 103.73291,19.2041016 C103.894043,19.2626953 104.003906,19.3286133 104.0625,19.4018555 C104.121094,19.4750977 104.157715,19.5629883 104.172363,19.6655273 C104.187012,19.7680664 104.187012,19.8779297 104.172363,19.9951172 C104.172363,20.0097656 104.172363,20.0317383 104.172363,20.0610352 C104.172363,20.7641602 104.165039,21.4819336 104.150391,22.2143555 C104.150391,23.6352539 104.165039,25.0634766 104.194336,26.4990234 C104.208984,26.9384766 104.245605,27.3852539 104.304199,27.8393555 C104.39209,28.4545898 104.487305,29.0698242 104.589844,29.6850586 C104.648438,30.0073242 104.732666,30.3442383 104.842529,30.6958008 C104.952393,31.0473633 105.117188,31.3549805 105.336914,31.6186523 C105.366211,31.6625977 105.39917,31.6918945 105.435791,31.706543 C105.472412,31.7211914 105.512695,31.7358398 105.556641,31.7504883 C105.571289,31.7504883 105.585938,31.7504883 105.600586,31.7504883 L105.666504,31.7504883 C105.725098,31.7504883 105.776367,31.7431641 105.820312,31.7285156 C105.908203,31.7138672 105.974121,31.6918945 106.018066,31.6625977 C106.062012,31.6333008 106.105957,31.5966797 106.149902,31.5527344 C106.223145,31.4794922 106.289062,31.4135742 106.347656,31.3549805 C106.435547,31.2084961 106.530762,31.0620117 106.633301,30.9155273 C107.39502,29.7583008 108.120117,28.5791016 108.808594,27.3779297 C108.881836,27.2314453 108.955078,27.0922852 109.02832,26.9604492 C109.980469,25.2612305 110.859375,23.5839844 111.665039,21.9287109 C111.782227,21.7675781 111.906738,21.6870117 112.038574,21.6870117 C112.141113,21.6870117 112.236328,21.7199707 112.324219,21.7858887 C112.412109,21.8518066 112.463379,21.9433594 112.478027,22.0605469 C112.492676,22.1337891 112.485352,22.2143555 112.456055,22.3022461 C111.269531,24.9243164 109.980469,27.4804688 108.588867,29.9707031 C108.47168,30.1757812 108.354492,30.3881836 108.237305,30.6079102 C107.900391,31.2524414 107.475586,31.8237305 106.962891,32.3217773 C106.655273,32.6293945 106.311035,32.7832031 105.930176,32.7832031 C105.710449,32.7832031 105.476074,32.7172852 105.227051,32.5854492 C104.94873,32.409668 104.714355,32.175293 104.523926,31.8823242 C104.084473,31.2084961 103.769531,30.4833984 103.579102,29.7070312 C103.417969,29.0625 103.300781,28.4179688 103.227539,27.7734375 C103.095703,26.6894531 103.037109,25.612793 103.051758,24.543457 L103.029785,24.3896484 C103.029785,24.3457031 103.018799,24.309082 102.996826,24.2797852 C102.974854,24.2504883 102.927246,24.2285156 102.854004,24.2138672 L102.832031,24.2138672 C102.817383,24.2138672 102.799072,24.2175293 102.7771,24.2248535 C102.755127,24.2321777 102.736816,24.239502 102.722168,24.2468262 C102.70752,24.2541504 102.700195,24.2578125 102.700195,24.2578125 C102.670898,24.2871094 102.648926,24.3200684 102.634277,24.3566895 C102.619629,24.3933105 102.60498,24.4262695 102.590332,24.4555664 C102.590332,24.4848633 102.583008,24.5141602 102.568359,24.543457 C102.480469,24.7924805 102.392578,25.0341797 102.304688,25.2685547 C102.172852,25.6494141 102.033691,26.015625 101.887207,26.3671875 C101.828613,26.5136719 101.77002,26.6601562 101.711426,26.8066406 C101.520996,27.3486328 101.30127,27.8759766 101.052246,28.3886719 C100.847168,28.7255859 100.568848,28.9819336 100.217285,29.1577148 Z M99.777832,26.0375977 C99.7631836,26.1108398 99.7558594,26.2316895 99.7558594,26.4001465 C99.7558594,26.5686035 99.7558594,26.751709 99.7558594,26.9494629 C99.7558594,27.1472168 99.7631836,27.3120117 99.777832,27.4438477 C99.7924805,27.5317383 99.8071289,27.590332 99.8217773,27.6196289 C99.8657227,27.6635742 99.909668,27.6855469 99.9536133,27.6855469 C100.012207,27.6855469 100.063477,27.6708984 100.107422,27.6416016 C100.136719,27.6123047 100.166016,27.5793457 100.195312,27.5427246 C100.224609,27.5061035 100.246582,27.4731445 100.26123,27.4438477 L100.283203,27.3999023 C100.371094,27.1508789 100.458984,26.9018555 100.546875,26.652832 C101.074219,25.2172852 101.586914,23.7744141 102.084961,22.3242188 C102.275391,21.7675781 102.421875,21.2036133 102.524414,20.6323242 C102.524414,20.6030273 102.524414,20.5737305 102.524414,20.5444336 C102.509766,20.4711914 102.487793,20.3979492 102.458496,20.324707 C102.429199,20.2514648 102.392578,20.1928711 102.348633,20.1489258 C102.304688,20.1049805 102.246094,20.0830078 102.172852,20.0830078 C102.114258,20.0830078 102.062988,20.090332 102.019043,20.1049805 C101.975098,20.1196289 101.945801,20.1416016 101.931152,20.1708984 C101.623535,20.4052734 101.359863,20.6835938 101.140137,21.0058594 C100.319824,22.5439453 99.8657227,24.2211914 99.777832,26.0375977 Z" id="Shape"></path>
                <path d="M113.862305,6.48193359 C114.125977,6.42333984 114.382324,6.39404297 114.631348,6.39404297 C115.246582,6.39404297 115.759277,6.61376953 116.169434,7.05322266 C116.38916,7.31689453 116.499023,7.58789062 116.499023,7.86621094 C116.499023,7.99804688 116.462402,8.13720703 116.38916,8.28369141 C116.169434,8.86962891 115.876465,9.41894531 115.510254,9.93164062 C115.334473,10.1660156 115.166016,10.4003906 115.004883,10.6347656 C114.360352,11.6015625 113.605957,12.5170898 112.741699,13.3813477 C112.507324,13.2495117 112.342529,13.1506348 112.247314,13.0847168 C112.1521,13.0187988 112.104492,12.9418945 112.104492,12.8540039 C112.104492,12.7661133 112.177734,12.6269531 112.324219,12.4365234 C112.543945,12.1142578 112.770996,11.7919922 113.005371,11.4697266 C113.415527,10.8984375 113.803711,10.3271484 114.169922,9.75585938 C114.770508,8.77441406 115.070801,8.14453125 115.070801,7.86621094 C115.070801,7.76367188 115.041504,7.69775391 114.98291,7.66845703 C114.836426,7.58056641 114.638672,7.53662109 114.389648,7.53662109 C114.243164,7.53662109 114.089355,7.56591797 113.928223,7.62451172 L113.884277,7.62451172 C113.796387,7.62451172 113.712158,7.55493164 113.631592,7.41577148 C113.551025,7.27661133 113.510742,7.12646484 113.510742,6.96533203 C113.510742,6.74560547 113.62793,6.58447266 113.862305,6.48193359 Z" id="Path"></path>
                <path d="M111.928711,9.53613281 C111.767578,9.43359375 111.687012,9.31640625 111.687012,9.18457031 C111.687012,9.05273438 111.789551,8.95019531 111.994629,8.87695312 C112.463379,8.77441406 112.946777,8.70117188 113.444824,8.65722656 C114.821777,8.49609375 116.19873,8.34960938 117.575684,8.21777344 C117.692871,8.203125 117.817383,8.18847656 117.949219,8.17382812 C118.286133,8.12988281 118.483887,7.94677734 118.54248,7.62451172 L118.564453,7.58056641 C118.564453,7.53662109 118.571777,7.49267578 118.586426,7.44873047 C118.586426,7.41943359 118.586426,7.3828125 118.586426,7.33886719 C118.674316,6.796875 118.754883,6.25488281 118.828125,5.71289062 C118.886719,5.22949219 118.952637,4.74609375 119.025879,4.26269531 C119.040527,4.11621094 119.077148,3.98071289 119.135742,3.85620117 C119.194336,3.73168945 119.326172,3.66943359 119.53125,3.66943359 L119.641113,3.66943359 C119.992676,3.69873047 120.168457,3.90380859 120.168457,4.28466797 C120.168457,4.34326172 120.161133,4.40917969 120.146484,4.48242188 C120.087891,4.98046875 120.029297,5.47851562 119.970703,5.9765625 C119.897461,6.48925781 119.831543,6.99462891 119.772949,7.49267578 L119.772949,7.60253906 C119.772949,7.70507812 119.794922,7.80761719 119.838867,7.91015625 C119.853516,7.93945312 119.882812,7.96142578 119.926758,7.97607422 C119.970703,7.99072266 120.018311,8.00537109 120.06958,8.02001953 C120.12085,8.03466797 120.161133,8.04931641 120.19043,8.06396484 C120.395508,8.07861328 120.593262,8.0859375 120.783691,8.0859375 C123.112793,7.98339844 125.449219,7.93212891 127.792969,7.93212891 C129.960938,7.93212891 132.13623,7.95410156 134.318848,7.99804688 C134.377441,7.99804688 134.498291,8.00170898 134.681396,8.0090332 C134.864502,8.01635742 135.040283,8.03466797 135.20874,8.06396484 C135.377197,8.09326172 135.483398,8.12988281 135.527344,8.17382812 C135.556641,8.24707031 135.571289,8.3203125 135.571289,8.39355469 C135.571289,8.45214844 135.563965,8.50708008 135.549316,8.55834961 C135.534668,8.60961914 135.505371,8.64990234 135.461426,8.67919922 L135.439453,8.67919922 C135.395508,8.69384766 135.344238,8.70483398 135.285645,8.7121582 C135.227051,8.71948242 135.175781,8.72314453 135.131836,8.72314453 L134.956055,8.72314453 C130.927734,8.76708984 126.899414,8.82568359 122.871094,8.89892578 C122.490234,8.89892578 122.109375,8.90625 121.728516,8.92089844 C121.347656,8.92089844 120.974121,8.92089844 120.60791,8.92089844 C120.285645,8.92089844 120.021973,8.95751953 119.816895,9.03076172 C119.611816,9.10400391 119.472656,9.30175781 119.399414,9.62402344 C119.370117,9.74121094 119.348145,9.84741211 119.333496,9.94262695 C119.318848,10.0378418 119.304199,10.144043 119.289551,10.2612305 C119.274902,10.378418 119.260254,10.4956055 119.245605,10.612793 C119.20166,10.8032227 119.172363,11.0009766 119.157715,11.2060547 C119.099121,12.0556641 119.033203,12.9125977 118.959961,13.7768555 C118.769531,15.9008789 118.630371,18.0322266 118.54248,20.1708984 C118.527832,20.5224609 118.520508,20.8740234 118.520508,21.2255859 C118.520508,24.0087891 118.791504,26.7919922 119.333496,29.5751953 C119.553223,30.8056641 119.963379,31.9995117 120.563965,33.1567383 C120.959473,33.8598633 121.340332,34.2114258 121.706543,34.2114258 C122.028809,34.2114258 122.365723,33.9550781 122.717285,33.4423828 C123.61084,32.1826172 124.387207,30.8862305 125.046387,29.5532227 C126.04248,27.4584961 126.789551,25.2832031 127.287598,23.0273438 C127.287598,22.9541016 127.302246,22.8369141 127.331543,22.6757812 C127.36084,22.5146484 127.397461,22.364502 127.441406,22.2253418 C127.485352,22.0861816 127.536621,21.9946289 127.595215,21.9506836 C127.63916,21.9360352 127.69043,21.9287109 127.749023,21.9287109 C127.807617,21.9287109 127.862549,21.9360352 127.913818,21.9506836 C127.965088,21.965332 128.005371,21.9799805 128.034668,21.9946289 C128.078613,22.0092773 128.10791,22.0349121 128.122559,22.0715332 C128.137207,22.1081543 128.151855,22.1484375 128.166504,22.1923828 C128.166504,22.3388672 128.137207,22.5073242 128.078613,22.6977539 C127.727051,24.7485352 127.163086,26.7407227 126.386719,28.6743164 C125.756836,30.4174805 124.914551,32.0654297 123.859863,33.6181641 C123.552246,34.0722656 123.14209,34.453125 122.629395,34.7607422 C122.424316,34.8779297 122.20459,34.9365234 121.970215,34.9365234 C121.413574,34.9365234 120.864258,34.7167969 120.322266,34.2773438 C119.868164,33.8671875 119.527588,33.4204102 119.300537,32.9370117 C119.073486,32.4536133 118.879395,31.9555664 118.718262,31.4428711 C118.718262,31.4428711 118.718262,31.4355469 118.718262,31.4208984 C118.352051,30.2490234 118.088379,29.0661621 117.927246,27.8723145 C117.766113,26.6784668 117.641602,25.480957 117.553711,24.2797852 C117.46582,23.1225586 117.421875,21.9726562 117.421875,20.8300781 C117.421875,18.8818359 117.495117,16.9335938 117.641602,14.9853516 C117.714844,13.9013672 117.839355,12.8173828 118.015137,11.7333984 C118.088379,11.1914062 118.161621,10.6494141 118.234863,10.1074219 C118.234863,10.078125 118.234863,10.0341797 118.234863,9.97558594 C118.249512,9.87304688 118.256836,9.77050781 118.256836,9.66796875 C118.256836,9.56542969 118.249512,9.46655273 118.234863,9.37133789 C118.220215,9.27612305 118.190918,9.21386719 118.146973,9.18457031 C118.088379,9.15527344 117.98584,9.13330078 117.839355,9.11865234 C117.692871,9.10400391 117.524414,9.09667969 117.333984,9.09667969 C117.041016,9.09667969 116.744385,9.10766602 116.444092,9.12963867 C116.143799,9.15161133 115.927734,9.17724609 115.795898,9.20654297 C115.78125,9.20654297 115.762939,9.21020508 115.740967,9.2175293 C115.718994,9.22485352 115.700684,9.23583984 115.686035,9.25048828 C115.671387,9.26513672 115.664062,9.27978516 115.664062,9.29443359 C115.664062,9.32373047 115.697021,9.35668945 115.762939,9.39331055 C115.828857,9.42993164 115.898438,9.45922852 115.97168,9.48120117 C116.044922,9.50317383 116.096191,9.51416016 116.125488,9.51416016 C116.154785,9.52880859 116.202393,9.54711914 116.268311,9.5690918 C116.334229,9.59106445 116.396484,9.61669922 116.455078,9.64599609 C116.513672,9.67529297 116.542969,9.71191406 116.542969,9.75585938 C116.542969,9.78515625 116.52832,9.81811523 116.499023,9.85473633 C116.469727,9.89135742 116.433105,9.90966797 116.38916,9.90966797 C116.330566,9.92431641 116.268311,9.93164062 116.202393,9.93164062 C116.136475,9.93164062 116.074219,9.93164062 116.015625,9.93164062 C114.960938,9.88769531 113.90625,9.82910156 112.851562,9.75585938 C112.792969,9.75585938 112.734375,9.75585938 112.675781,9.75585938 C112.412109,9.74121094 112.163086,9.66796875 111.928711,9.53613281 Z" id="Path"></path>
                <path d="M157.895508,21.796875 C157.96875,21.8554688 158.005371,21.9433594 158.005371,22.0605469 C158.005371,22.1777344 157.979736,22.3132324 157.928467,22.467041 C157.877197,22.6208496 157.822266,22.7709961 157.763672,22.9174805 C157.734375,22.9907227 157.712402,23.0493164 157.697754,23.0932617 C157.36084,24.1333008 156.9104,25.2612305 156.346436,26.4770508 C155.782471,27.6928711 155.097656,28.7402344 154.291992,29.6191406 C153.486328,30.4980469 152.563477,30.9521484 151.523438,30.9814453 C150.703125,30.9960937 149.802246,30.5786133 148.820801,29.7290039 C148.220215,29.128418 147.7771,28.4143066 147.491455,27.5866699 C147.205811,26.7590332 147.004395,26.015625 146.887207,25.3564453 C146.813965,25.0048828 146.744385,24.7229004 146.678467,24.510498 C146.612549,24.2980957 146.542969,24.1845703 146.469727,24.1699219 L146.425781,24.1918945 C146.352539,24.2358398 146.176758,24.4555664 145.898438,24.8510742 C145.415039,25.5688477 144.737549,26.3964844 143.865967,27.3339844 C142.994385,28.2714844 142.053223,28.8427734 141.04248,29.0478516 C140.95459,29.0478516 140.859375,29.0478516 140.756836,29.0478516 C140.097656,29.0039062 139.56665,28.7072754 139.163818,28.157959 C138.760986,27.6086426 138.486328,26.9970703 138.339844,26.3232422 C138.178711,25.6640625 138.098145,24.9829102 138.098145,24.2797852 C138.098145,22.0678711 138.735352,19.987793 140.009766,18.0395508 C140.405273,17.5268555 140.844727,17.2705078 141.328125,17.2705078 C141.591797,17.2851562 141.815186,17.3876953 141.998291,17.578125 C142.181396,17.7685547 142.272949,18.0688477 142.272949,18.4790039 C142.272949,18.6401367 142.250977,18.8305664 142.207031,19.050293 C141.958008,20.2075195 141.676025,21.0717773 141.361084,21.6430664 C141.046143,22.2143555 140.738525,22.6098633 140.438232,22.8295898 C140.137939,23.0493164 139.87793,23.1884766 139.658203,23.2470703 C139.526367,23.2910156 139.416504,23.3422852 139.328613,23.4008789 C139.240723,23.4594727 139.189453,23.5473633 139.174805,23.6645508 C139.160156,23.7670898 139.152832,23.9355469 139.152832,24.1699219 C139.152832,24.5800781 139.193115,25.0927734 139.273682,25.7080078 C139.354248,26.3232422 139.508057,26.8652344 139.735107,27.3339844 C139.962158,27.8027344 140.280762,28.0517578 140.690918,28.0810547 C140.866699,28.0810547 141.064453,28.0297852 141.28418,27.9272461 C142.265625,27.4145508 143.166504,26.6345215 143.986816,25.5871582 C144.807129,24.5397949 145.50293,23.4814453 146.074219,22.4121094 C146.25,21.9726562 146.367188,20.9179688 146.425781,19.2480469 C146.469727,17.9443359 146.572266,16.4538574 146.733398,14.7766113 C146.894531,13.0993652 147.191162,11.4147949 147.623291,9.72290039 C148.05542,8.03100586 148.710938,6.51123047 149.589844,5.16357422 C149.912109,4.69482422 150.292969,4.46044922 150.732422,4.46044922 C151.142578,4.47509766 151.523438,4.71679688 151.875,5.18554688 C152.050781,5.43457031 152.156982,5.70922852 152.193604,6.00952148 C152.230225,6.30981445 152.248535,6.60644531 152.248535,6.89941406 L152.248535,7.25097656 C152.248535,8.97949219 152.072754,10.5541992 151.721191,11.9750977 C151.369629,13.3959961 150.941162,14.6813965 150.435791,15.8312988 C149.93042,16.9812012 149.436035,18.0029297 148.952637,18.8964844 C148.557129,19.6875 148.223877,20.3942871 147.952881,21.0168457 C147.681885,21.6394043 147.546387,22.199707 147.546387,22.6977539 L147.546387,22.8955078 C147.736816,24.8583984 148.132324,26.5612793 148.73291,28.0041504 C149.333496,29.4470215 150.131836,30.2124023 151.12793,30.300293 C152.124023,30.3881836 153.317871,29.3701172 154.709473,27.2460938 C155.544434,25.8398438 156.225586,24.3603516 156.75293,22.8076172 C156.796875,22.6904297 156.833496,22.5732422 156.862793,22.4560547 C156.921387,22.2363281 156.990967,22.0422363 157.071533,21.8737793 C157.1521,21.7053223 157.272949,21.6210938 157.434082,21.6210938 C157.565918,21.6210938 157.719727,21.6796875 157.895508,21.796875 Z M147.568359,17.8637695 C147.568359,17.8930664 147.564697,17.9443359 147.557373,18.0175781 C147.550049,18.0908203 147.546387,18.1640625 147.546387,18.2373047 C147.546387,18.3251953 147.550049,18.4130859 147.557373,18.5009766 C147.564697,18.5888672 147.583008,18.6474609 147.612305,18.6767578 C147.641602,18.7060547 147.670898,18.7207031 147.700195,18.7207031 C147.773438,18.7060547 147.84668,18.6474609 147.919922,18.5449219 C147.993164,18.4423828 148.059082,18.3215332 148.117676,18.182373 C148.17627,18.0432129 148.234863,17.9150391 148.293457,17.7978516 C148.322754,17.6953125 148.352051,17.6220703 148.381348,17.578125 C148.703613,16.8603516 149.095459,15.904541 149.556885,14.7106934 C150.018311,13.5168457 150.435791,12.2497559 150.809326,10.9094238 C151.182861,9.5690918 151.369629,8.38623047 151.369629,7.36083984 C151.369629,6.87744141 151.311035,6.4453125 151.193848,6.06445312 C151.120605,5.83007812 151.025391,5.71289062 150.908203,5.71289062 C150.820312,5.72753906 150.732422,5.77880859 150.644531,5.86669922 C150.556641,5.95458984 150.476074,6.05712891 150.402832,6.17431641 C150.32959,6.29150391 150.270996,6.39404297 150.227051,6.48193359 C150.227051,6.49658203 150.219727,6.51123047 150.205078,6.52587891 C149.355469,8.16650391 148.729248,9.99755859 148.326416,12.019043 C147.923584,14.0405273 147.670898,15.9887695 147.568359,17.8637695 Z M139.482422,21.8847656 C139.467773,21.9287109 139.460449,21.965332 139.460449,21.9946289 C139.460449,22.1118164 139.511719,22.1704102 139.614258,22.1704102 C139.848633,22.1704102 140.152588,21.8994141 140.526123,21.3574219 C140.899658,20.8154297 141.137695,20.0244141 141.240234,18.984375 L141.240234,18.8745117 C141.240234,18.6694336 141.196289,18.5668945 141.108398,18.5668945 C140.917969,18.5961914 140.646973,18.9440918 140.29541,19.6105957 C139.943848,20.2770996 139.672852,21.0351562 139.482422,21.8847656 Z" id="Shape"></path>
                <path d="M168.881836,30.2783203 C168.706055,30.4248047 168.508301,30.5126953 168.288574,30.5419922 C168.024902,30.5566406 167.783203,30.5126953 167.563477,30.4101562 C167.34375,30.3076172 167.182617,30.1464844 167.080078,29.9267578 C166.948242,29.6044922 166.860352,29.2236328 166.816406,28.7841797 C166.699219,27.0849609 166.955566,25.1220703 167.585449,22.8955078 C168.215332,20.6689453 168.918457,18.9990234 169.694824,17.8857422 C170.10498,17.3583984 170.551758,17.0727539 171.035156,17.0288086 C171.416016,16.9848633 171.862793,17.0654297 172.375488,17.2705078 C172.404785,16.9482422 172.426758,16.640625 172.441406,16.3476562 C172.5,14.2529297 172.701416,12.0007324 173.045654,9.59106445 C173.389893,7.18139648 173.935547,4.98046875 174.682617,2.98828125 C174.902344,2.49023437 175.17334,2.23388672 175.495605,2.21923828 C175.744629,2.20458984 175.964355,2.28515625 176.154785,2.4609375 C176.345215,2.63671875 176.455078,2.87109375 176.484375,3.1640625 L176.506348,3.29589844 C176.506348,3.32519531 176.506348,3.34716797 176.506348,3.36181641 C176.535645,4.24072266 176.477051,5.11962891 176.330566,5.99853516 C175.92041,8.16650391 175.480957,10.3271484 175.012207,12.4804688 C174.880371,13.125 174.741211,13.7695312 174.594727,14.4140625 C174.448242,15.1025391 174.279785,15.7910156 174.089355,16.4794922 C173.649902,17.8125 173.400879,19.1748047 173.342285,20.5664062 C173.312988,22.5732422 173.422852,25.0488281 173.671875,27.9931641 C173.833008,29.6044922 174.100342,31.1352539 174.473877,32.5854492 C174.847412,34.0356445 175.371094,35.222168 176.044922,36.1450195 C176.264648,36.4086914 176.499023,36.5185547 176.748047,36.4746094 C177.084961,36.4160156 177.403564,36.2219238 177.703857,35.892334 C178.00415,35.5627441 178.227539,35.2661133 178.374023,35.0024414 C178.491211,34.7827148 178.608398,34.5703125 178.725586,34.3652344 C179.443359,33.1494141 180.087891,31.8969727 180.65918,30.6079102 C181.875,27.7661133 182.871094,24.9023438 183.647461,22.0166016 C183.706055,21.8701172 183.834229,21.7932129 184.031982,21.7858887 C184.229736,21.7785645 184.401855,21.8371582 184.54834,21.9616699 C184.694824,22.0861816 184.724121,22.2583008 184.63623,22.4780273 C184.621582,22.5219727 184.606934,22.565918 184.592285,22.6098633 C184.050293,24.2358398 183.383789,26.151123 182.592773,28.3557129 C181.801758,30.5603027 181.047363,32.409668 180.32959,33.9038086 C179.816895,34.8706055 179.194336,35.7788086 178.461914,36.628418 C178.037109,37.1118164 177.597656,37.3681641 177.143555,37.3974609 C176.469727,37.4267578 175.85083,37.1484375 175.286865,36.5625 C174.7229,35.9765625 174.301758,35.2880859 174.023438,34.4970703 C173.232422,32.2705078 172.77832,30.3222656 172.661133,28.6523438 C172.617188,28.1103516 172.573242,27.5683594 172.529297,27.0263672 C172.470703,26.4404297 172.412109,25.847168 172.353516,25.246582 C172.294922,24.6459961 172.214355,24.0087891 172.111816,23.3349609 C171.89209,23.8330078 171.650391,24.4555664 171.386719,25.2026367 C171.020508,26.1987305 170.625,27.1838379 170.200195,28.157959 C169.775391,29.1320801 169.335938,29.8388672 168.881836,30.2783203 Z M174.353027,8.56933594 L173.891602,12.590332 L174.682617,9.71191406 C174.785156,9.21386719 174.906006,8.52172852 175.045166,7.63549805 C175.184326,6.74926758 175.253906,6.05712891 175.253906,5.55908203 C175.253906,5.45654297 175.268555,5.33203125 175.297852,5.18554688 C175.3125,5.08300781 175.323486,4.98779297 175.330811,4.89990234 C175.338135,4.81201172 175.341797,4.74609375 175.341797,4.70214844 C175.341797,4.6875 175.334473,4.68017578 175.319824,4.68017578 C175.290527,4.66552734 175.217285,4.82666016 175.100098,5.16357422 C174.953613,5.61767578 174.810791,6.18896484 174.671631,6.87744141 C174.532471,7.56591797 174.42627,8.12988281 174.353027,8.56933594 Z M169.277344,20.8740234 C168.955078,21.7675781 168.632813,23.0273438 168.310547,24.6533203 C167.988281,26.2792969 167.86377,27.6489258 167.937012,28.762207 C167.95166,28.894043 167.966309,29.0112305 167.980957,29.1137695 C168.039551,29.3188477 168.120117,29.4067383 168.222656,29.3774414 C168.310547,29.362793 168.405762,29.3041992 168.508301,29.2016602 C168.61084,29.0991211 168.684082,28.9892578 168.728027,28.8720703 C169.416504,27.5830078 169.995117,26.2573242 170.463867,24.8950195 C170.932617,23.5327148 171.364746,22.1630859 171.760254,20.7861328 C171.862793,20.4345703 171.965332,20.0830078 172.067871,19.7314453 C172.185059,19.3212891 172.229004,18.9477539 172.199707,18.6108398 C172.111816,17.9663086 171.855469,17.644043 171.430664,17.644043 C171.123047,17.6586914 170.786133,17.9882812 170.419922,18.6328125 C170.375977,18.7060547 170.324707,18.7866211 170.266113,18.8745117 C169.885254,19.5043945 169.555664,20.1708984 169.277344,20.8740234 Z" id="Shape"></path>
                <path d="M184.790039,19.3139648 C184.672852,19.5776367 184.533691,19.7094727 184.372559,19.7094727 C184.255371,19.7094727 184.14917,19.654541 184.053955,19.5446777 C183.95874,19.4348145 183.911133,19.2993164 183.911133,19.1381836 L183.911133,19.1162109 C183.94043,18.515625 184.02832,17.9223633 184.174805,17.3364258 C184.21875,17.2192383 184.310303,17.1496582 184.449463,17.1276855 C184.588623,17.1057129 184.735107,17.1166992 184.888916,17.1606445 C185.042725,17.2045898 185.148926,17.277832 185.20752,17.3803711 C185.236816,17.409668 185.251465,17.4536133 185.251465,17.512207 C185.251465,17.5561523 185.251465,17.6000977 185.251465,17.644043 C185.222168,17.7319336 185.192871,17.8198242 185.163574,17.9077148 C185.046387,18.3764648 184.921875,18.8452148 184.790039,19.3139648 Z M185.383301,29.9487305 C184.489746,29.7290039 183.878174,29.2053223 183.548584,28.3776855 C183.218994,27.5500488 183.054199,26.6381836 183.054199,25.6420898 C183.054199,24.8803711 183.116455,24.1442871 183.240967,23.4338379 C183.365479,22.7233887 183.486328,22.1411133 183.603516,21.6870117 C183.647461,21.5551758 183.702393,21.4489746 183.768311,21.3684082 C183.834229,21.2878418 183.955078,21.2402344 184.130859,21.2255859 C184.614258,21.2255859 184.855957,21.3793945 184.855957,21.6870117 C184.855957,21.7163086 184.855957,21.7529297 184.855957,21.796875 C184.73877,22.1923828 184.599609,22.8222656 184.438477,23.6865234 C184.277344,24.5507812 184.196777,25.4150391 184.196777,26.2792969 C184.196777,26.9824219 184.28833,27.6013184 184.471436,28.1359863 C184.654541,28.6706543 184.987793,28.996582 185.471191,29.1137695 C185.559082,29.128418 185.661621,29.1357422 185.778809,29.1357422 C186.364746,29.1357422 187.034912,28.8867188 187.789307,28.3886719 C188.543701,27.890625 189.298096,27.2827148 190.05249,26.5649414 C190.806885,25.847168 191.484375,25.1403809 192.084961,24.4445801 C192.685547,23.7487793 193.139648,23.1811523 193.447266,22.7416992 C193.491211,22.668457 193.535156,22.5952148 193.579102,22.5219727 C193.652344,22.3901367 193.73291,22.2692871 193.820801,22.1594238 C193.908691,22.0495605 194.01123,21.9946289 194.128418,21.9946289 C194.157715,21.9946289 194.187012,22.0019531 194.216309,22.0166016 C194.260254,22.0166016 194.315186,22.0275879 194.381104,22.0495605 C194.447021,22.0715332 194.509277,22.1008301 194.567871,22.1374512 C194.626465,22.1740723 194.655762,22.2143555 194.655762,22.2583008 L194.655762,22.2802734 C194.333496,22.8808594 193.831787,23.605957 193.150635,24.4555664 C192.469482,25.3051758 191.700439,26.151123 190.843506,26.9934082 C189.986572,27.8356934 189.11499,28.5461426 188.22876,29.1247559 C187.342529,29.7033691 186.533203,29.9926758 185.800781,29.9926758 C185.654297,29.9926758 185.515137,29.9780273 185.383301,29.9487305 Z" id="Shape"></path>
                <path d="M194.545898,29.1577148 C194.472656,29.1870117 194.399414,29.2016602 194.326172,29.2016602 C194.135742,29.2016602 193.937988,29.1247559 193.73291,28.9709473 C193.527832,28.8171387 193.374023,28.6230469 193.271484,28.3886719 C193.168945,28.125 193.095703,27.8540039 193.051758,27.5756836 C193.037109,27.5024414 193.029785,27.4291992 193.029785,27.355957 C192.956543,24.8803711 193.469238,22.6025391 194.567871,20.5224609 C194.904785,19.7753906 195.395508,19.4018555 196.040039,19.4018555 C196.347656,19.4018555 196.713867,19.4750977 197.138672,19.621582 C197.167969,19.5776367 197.197266,19.5336914 197.226562,19.4897461 C197.285156,19.3725586 197.347412,19.2810059 197.41333,19.2150879 C197.479248,19.1491699 197.563477,19.1162109 197.666016,19.1162109 C197.768555,19.1162109 197.900391,19.1455078 198.061523,19.2041016 C198.222656,19.2626953 198.33252,19.3286133 198.391113,19.4018555 C198.449707,19.4750977 198.486328,19.5629883 198.500977,19.6655273 C198.515625,19.7680664 198.515625,19.8779297 198.500977,19.9951172 C198.500977,20.0097656 198.500977,20.0317383 198.500977,20.0610352 C198.500977,20.7641602 198.493652,21.4819336 198.479004,22.2143555 C198.479004,23.6352539 198.493652,25.0634766 198.522949,26.4990234 C198.537598,26.9384766 198.574219,27.3852539 198.632812,27.8393555 C198.720703,28.4545898 198.815918,29.0698242 198.918457,29.6850586 C198.977051,30.0073242 199.061279,30.3442383 199.171143,30.6958008 C199.281006,31.0473633 199.445801,31.3549805 199.665527,31.6186523 C199.694824,31.6625977 199.727783,31.6918945 199.764404,31.706543 C199.801025,31.7211914 199.841309,31.7358398 199.885254,31.7504883 C199.899902,31.7504883 199.914551,31.7504883 199.929199,31.7504883 L199.995117,31.7504883 C200.053711,31.7504883 200.10498,31.7431641 200.148926,31.7285156 C200.236816,31.7138672 200.302734,31.6918945 200.34668,31.6625977 C200.390625,31.6333008 200.43457,31.5966797 200.478516,31.5527344 C200.551758,31.4794922 200.617676,31.4135742 200.67627,31.3549805 C200.76416,31.2084961 200.859375,31.0620117 200.961914,30.9155273 C201.723633,29.7583008 202.44873,28.5791016 203.137207,27.3779297 C203.210449,27.2314453 203.283691,27.0922852 203.356934,26.9604492 C204.309082,25.2612305 205.187988,23.5839844 205.993652,21.9287109 C206.11084,21.7675781 206.235352,21.6870117 206.367188,21.6870117 C206.469727,21.6870117 206.564941,21.7199707 206.652832,21.7858887 C206.740723,21.8518066 206.791992,21.9433594 206.806641,22.0605469 C206.821289,22.1337891 206.813965,22.2143555 206.784668,22.3022461 C205.598145,24.9243164 204.309082,27.4804688 202.91748,29.9707031 C202.800293,30.1757812 202.683105,30.3881836 202.565918,30.6079102 C202.229004,31.2524414 201.804199,31.8237305 201.291504,32.3217773 C200.983887,32.6293945 200.639648,32.7832031 200.258789,32.7832031 C200.039062,32.7832031 199.804688,32.7172852 199.555664,32.5854492 C199.277344,32.409668 199.042969,32.175293 198.852539,31.8823242 C198.413086,31.2084961 198.098145,30.4833984 197.907715,29.7070312 C197.746582,29.0625 197.629395,28.4179688 197.556152,27.7734375 C197.424316,26.6894531 197.365723,25.612793 197.380371,24.543457 L197.358398,24.3896484 C197.358398,24.3457031 197.347412,24.309082 197.325439,24.2797852 C197.303467,24.2504883 197.255859,24.2285156 197.182617,24.2138672 L197.160645,24.2138672 C197.145996,24.2138672 197.127686,24.2175293 197.105713,24.2248535 C197.08374,24.2321777 197.06543,24.239502 197.050781,24.2468262 C197.036133,24.2541504 197.028809,24.2578125 197.028809,24.2578125 C196.999512,24.2871094 196.977539,24.3200684 196.962891,24.3566895 C196.948242,24.3933105 196.933594,24.4262695 196.918945,24.4555664 C196.918945,24.4848633 196.911621,24.5141602 196.896973,24.543457 C196.809082,24.7924805 196.721191,25.0341797 196.633301,25.2685547 C196.501465,25.6494141 196.362305,26.015625 196.21582,26.3671875 C196.157227,26.5136719 196.098633,26.6601562 196.040039,26.8066406 C195.849609,27.3486328 195.629883,27.8759766 195.380859,28.3886719 C195.175781,28.7255859 194.897461,28.9819336 194.545898,29.1577148 Z M194.106445,26.0375977 C194.091797,26.1108398 194.084473,26.2316895 194.084473,26.4001465 C194.084473,26.5686035 194.084473,26.751709 194.084473,26.9494629 C194.084473,27.1472168 194.091797,27.3120117 194.106445,27.4438477 C194.121094,27.5317383 194.135742,27.590332 194.150391,27.6196289 C194.194336,27.6635742 194.238281,27.6855469 194.282227,27.6855469 C194.34082,27.6855469 194.39209,27.6708984 194.436035,27.6416016 C194.465332,27.6123047 194.494629,27.5793457 194.523926,27.5427246 C194.553223,27.5061035 194.575195,27.4731445 194.589844,27.4438477 L194.611816,27.3999023 C194.699707,27.1508789 194.787598,26.9018555 194.875488,26.652832 C195.402832,25.2172852 195.915527,23.7744141 196.413574,22.3242188 C196.604004,21.7675781 196.750488,21.2036133 196.853027,20.6323242 C196.853027,20.6030273 196.853027,20.5737305 196.853027,20.5444336 C196.838379,20.4711914 196.816406,20.3979492 196.787109,20.324707 C196.757812,20.2514648 196.721191,20.1928711 196.677246,20.1489258 C196.633301,20.1049805 196.574707,20.0830078 196.501465,20.0830078 C196.442871,20.0830078 196.391602,20.090332 196.347656,20.1049805 C196.303711,20.1196289 196.274414,20.1416016 196.259766,20.1708984 C195.952148,20.4052734 195.688477,20.6835938 195.46875,21.0058594 C194.648438,22.5439453 194.194336,24.2211914 194.106445,26.0375977 Z" id="Shape"></path>
                <path d="M209.311523,31.3769531 C209.267578,31.3916016 209.223633,31.3989258 209.179688,31.3989258 C208.989258,31.3989258 208.787842,31.3476562 208.575439,31.2451172 C208.363037,31.1425781 208.190918,31.0107422 208.059082,30.8496094 C207.98584,30.7470703 207.949219,30.637207 207.949219,30.5200195 C207.949219,30.2856445 208.066406,30.0512695 208.300781,29.8168945 C208.535156,29.5825195 208.813477,29.4433594 209.135742,29.3994141 L209.223633,29.3994141 C209.370117,29.3994141 209.512939,29.4177246 209.6521,29.4543457 C209.79126,29.4909668 209.897461,29.5458984 209.970703,29.6191406 C210.029297,29.6777344 210.058594,29.765625 210.058594,29.8828125 C210.058594,30.0585938 210.018311,30.2563477 209.937744,30.4760742 C209.857178,30.6958008 209.761963,30.8935547 209.6521,31.0693359 C209.542236,31.2451172 209.428711,31.3476562 209.311523,31.3769531 Z" id="Path"></path>
            </g>
        </g>
    </g>
</svg>