<?xml version="1.0" encoding="UTF-8"?>
<svg width="121px" height="28px" viewBox="0 0 121 28" version="1.1" xmlns="http://www.w3.org/2000/svg" xmlns:xlink="http://www.w3.org/1999/xlink">
    <title>Andrea &amp; Juli</title>
    <g id="Materials-impresos" stroke="none" stroke-width="1" fill="none" fill-rule="evenodd">
        <g id="Andrea-&amp;-Juli" transform="translate(0.050293, 0.843262)" fill="#2F6FAF" fill-rule="nonzero">
            <path d="M6.17626953,16.5405273 C5.84261068,16.5893555 5.5008138,16.6361491 5.15087891,16.6809082 C4.80094401,16.7256673 4.45100911,16.7480469 4.10107422,16.7480469 C3.5476888,16.7480469 3.00651042,16.6605632 2.47753906,16.4855957 C1.94856771,16.3106283 1.46028646,15.9871419 1.01269531,15.5151367 C0.40234375,14.8071289 0.0686848958,13.8387044 0.01171875,12.6098633 C-0.037109375,11.6251628 0.0666503906,10.5672201 0.322998047,9.43603516 C0.579345703,8.30485026 0.963867188,7.1858724 1.4765625,6.07910156 C1.98925781,4.97233073 2.59960938,3.96118164 3.30761719,3.0456543 C4.015625,2.13012695 4.79890951,1.39363607 5.6574707,0.836181641 C6.5160319,0.278727214 7.41731771,0 8.36132812,0 C8.9391276,0 9.5250651,0.122070312 10.1191406,0.366210938 C10.7213542,0.642903646 11.2259115,0.9765625 11.6328125,1.3671875 C12.0397135,1.7578125 12.4303385,2.21354167 12.8046875,2.734375 C12.8535156,2.78320312 12.9023438,2.80761719 12.9511719,2.80761719 C13.008138,2.80761719 13.0671387,2.7750651 13.1281738,2.70996094 C13.189209,2.64485677 13.2563477,2.56754557 13.3295898,2.47802734 C13.394694,2.38850911 13.4597982,2.30712891 13.5249023,2.23388672 C13.6795247,2.06298828 13.8402507,1.92260742 14.0070801,1.81274414 C14.1739095,1.70288086 14.3387044,1.64794922 14.5014648,1.64794922 C14.7700195,1.64794922 15.0263672,1.83919271 15.2705078,2.22167969 C15.4739583,2.64485677 15.6489258,3.4749349 15.7954102,4.71191406 C15.9418945,5.94889323 16.0598958,7.21028646 16.1494141,8.49609375 C16.2389323,9.78190104 16.2958984,10.7096354 16.3203125,11.2792969 L16.3813477,12.4511719 C16.3976237,12.7034505 16.4220378,12.874349 16.4545898,12.9638672 C16.4871419,13.0533854 16.5481771,13.0981445 16.6376953,13.0981445 C16.7109375,13.0981445 16.8126628,13.0859375 16.9428711,13.0615234 C17.0079753,13.0452474 17.0852865,13.0289714 17.1748047,13.0126953 C17.288737,12.9964193 17.4108073,12.9760742 17.5410156,12.9516602 C17.9316406,12.886556 18.3588867,12.8194173 18.8227539,12.7502441 C19.2866211,12.681071 19.6853841,12.6464844 20.019043,12.6464844 L20.0678711,12.6464844 C20.1329753,12.6464844 20.1818034,12.6708984 20.2143555,12.7197266 C20.2469076,12.7685547 20.2631836,12.8255208 20.2631836,12.890625 C20.2713216,12.9557292 20.2611491,13.0147298 20.232666,13.067627 C20.2041829,13.1205241 20.1573893,13.1551107 20.0922852,13.1713867 C20.0515951,13.1795247 19.9620768,13.1917318 19.8237305,13.2080078 C19.5144857,13.2405599 19.0994466,13.2995605 18.5786133,13.3850098 C18.0577799,13.470459 17.5878092,13.5843913 17.1687012,13.7268066 C16.7495931,13.869222 16.531901,14.050293 16.515625,14.2700195 L17.1259766,22.0947266 C17.1259766,22.1842448 17.09139,22.257487 17.0222168,22.3144531 C16.9530436,22.3714193 16.8777669,22.3999023 16.7963867,22.3999023 C16.7312826,22.3999023 16.6722819,22.3795573 16.6193848,22.3388672 C16.5664876,22.2981771 16.5359701,22.2290039 16.527832,22.1313477 C16.4057617,21.0571289 16.2918294,19.8120117 16.1860352,18.3959961 C16.0965169,17.1346029 15.9988607,15.9952799 15.8930664,14.9780273 C15.8686523,14.6931966 15.8381348,14.4938151 15.8015137,14.3798828 C15.7648926,14.2659505 15.6855469,14.2089844 15.5634766,14.2089844 C15.4495443,14.2089844 15.2786458,14.2415365 15.0507812,14.3066406 C14.9938151,14.3229167 14.9246419,14.3391927 14.8432617,14.3554688 C14.6479492,14.4042969 14.2084961,14.5121257 13.5249023,14.6789551 C12.8413086,14.8457845 12.0824382,15.0349935 11.248291,15.246582 C10.4141439,15.4581706 9.67765299,15.6555176 9.03881836,15.838623 C8.39998372,16.0217285 8.03173828,16.1499023 7.93408203,16.2231445 C7.8038737,16.3370768 7.71028646,16.4937337 7.65332031,16.6931152 C7.59635417,16.8924967 7.54752604,17.0979818 7.50683594,17.3095703 C7.4905599,17.3828125 7.47835286,17.4560547 7.47021484,17.5292969 C7.33186849,18.2779948 7.21386719,19.1874186 7.11621094,20.2575684 C7.01855469,21.3277181 6.97379557,22.3510742 6.98193359,23.3276367 L6.99414062,23.5351562 C7.00227865,23.6653646 6.9453125,23.7569173 6.82324219,23.8098145 C6.70117188,23.8627116 6.57299805,23.8749186 6.4387207,23.8464355 C6.30444336,23.8179525 6.22916667,23.7426758 6.21289062,23.6206055 C6.1640625,23.0834961 6.18440755,22.3653158 6.27392578,21.4660645 C6.36344401,20.5668132 6.47127279,19.6940104 6.59741211,18.8476562 C6.72355143,18.0013021 6.82324219,17.3828125 6.89648438,16.9921875 C6.91276042,16.8863932 6.92089844,16.800944 6.92089844,16.7358398 C6.91276042,16.5730794 6.81510417,16.4916992 6.62792969,16.4916992 C6.5139974,16.4916992 6.36344401,16.5079753 6.17626953,16.5405273 Z M13.5126953,3.21044922 C13.4150391,3.32438151 13.3702799,3.44238281 13.378418,3.56445312 C13.402832,3.75976562 13.4882812,3.99169922 13.6347656,4.26025391 C13.7080078,4.40673828 13.785319,4.5694987 13.8666992,4.74853516 C14.2654622,5.71695964 14.574707,6.61824544 14.7944336,7.45239258 C15.0141602,8.28653971 15.2216797,9.15527344 15.4169922,10.0585938 C15.4658203,10.3027344 15.5187174,10.550944 15.5756836,10.8032227 C15.5756836,10.8032227 15.5756836,10.8072917 15.5756836,10.8154297 C15.5838216,10.8398438 15.5960286,10.8723958 15.6123047,10.9130859 C15.6285807,10.953776 15.6529948,10.9741211 15.6855469,10.9741211 C15.6936849,10.9741211 15.7099609,10.9659831 15.734375,10.949707 C15.7587891,10.925293 15.7587891,10.7218424 15.734375,10.3393555 C15.7018229,9.77783203 15.6428223,9.03727214 15.557373,8.11767578 C15.4719238,7.19807943 15.3885091,6.32120768 15.3071289,5.48706055 C15.2257487,4.65291341 15.1687826,4.07714844 15.1362305,3.75976562 C15.1362305,3.73535156 15.1362305,3.71500651 15.1362305,3.69873047 C15.0874023,3.19417318 15.0141602,2.84220378 14.9165039,2.64282227 C14.8188477,2.44344076 14.7049154,2.34375 14.574707,2.34375 C14.4444987,2.34375 14.3020833,2.41292318 14.1474609,2.55126953 C13.9928385,2.68961589 13.8341471,2.8523763 13.6713867,3.03955078 C13.6144206,3.09651693 13.5615234,3.15348307 13.5126953,3.21044922 Z M13.4760742,4.34570312 C13.3540039,4.0608724 13.2400716,3.91845703 13.1342773,3.91845703 C13.0773112,3.91845703 13.0142415,3.96321615 12.9450684,4.05273438 C12.8758952,4.1422526 12.7924805,4.26432292 12.6948242,4.41894531 C12.6541341,4.48404948 12.609375,4.55729167 12.5605469,4.63867188 C12.0641276,5.41992188 11.6083984,6.24186198 11.1933594,7.10449219 C10.65625,8.18684896 10.1048991,9.40958659 9.53930664,10.7727051 C8.97371419,12.1358236 8.51188151,13.4236654 8.15380859,14.6362305 C8.08870443,14.8803711 8.05615234,15.0634766 8.05615234,15.1855469 C8.05615234,15.3401693 8.14567057,15.4174805 8.32470703,15.4174805 C8.44677734,15.4174805 8.60953776,15.3889974 8.81298828,15.3320312 C10.5382487,14.8681641 12.2635091,14.4002279 13.9887695,13.9282227 C14.4526367,13.8061523 14.9205729,13.680013 15.3925781,13.5498047 C15.5146484,13.5172526 15.5960286,13.4684245 15.6367188,13.4033203 C15.6774089,13.3382161 15.6936849,13.264974 15.6855469,13.1835938 C15.6774089,13.1103516 15.6652018,13.0330404 15.6489258,12.9516602 C15.6407878,12.9109701 15.6326497,12.8702799 15.6245117,12.8295898 C15.4210612,11.4217122 15.15861,10.0097656 14.8371582,8.59375 C14.5157064,7.17773438 14.0620117,5.76171875 13.4760742,4.34570312 Z M8.62988281,0.268554688 L8.41015625,0.268554688 C7.23014323,0.341796875 6.14371745,0.787353516 5.15087891,1.60522461 C4.15804036,2.4230957 3.30151367,3.45865885 2.58129883,4.71191406 C1.86108398,5.96516927 1.31583659,7.27945964 0.945556641,8.65478516 C0.575276693,10.0301107 0.418619792,11.311849 0.475585937,12.5 C0.524414062,13.4358724 0.727864583,14.2272949 1.0859375,14.8742676 C1.44401042,15.5212402 1.97705078,15.9505208 2.68505859,16.1621094 C2.96988932,16.2272135 3.36865234,16.2597656 3.88134766,16.2597656 C4.53238932,16.2597656 5.20784505,16.200765 5.90771484,16.0827637 C6.60758464,15.9647624 7.03889974,15.7714844 7.20166016,15.5029297 C7.23421224,15.4378255 7.26269531,15.3605143 7.28710938,15.2709961 C7.30338542,15.222168 7.31966146,15.1733398 7.3359375,15.1245117 C8.0764974,12.7726237 8.81502279,10.7584635 9.55151367,9.08203125 C10.2880046,7.40559896 11.2747396,5.56640625 12.5117188,3.56445312 C12.593099,3.43424479 12.6520996,3.33048503 12.6887207,3.25317383 C12.7253418,3.17586263 12.7436523,3.10872396 12.7436523,3.05175781 C12.7355143,2.97851562 12.6866862,2.88085938 12.597168,2.75878906 C12.5727539,2.71809896 12.5442708,2.67740885 12.5117188,2.63671875 L11.9501953,1.97753906 C11.4375,1.39973958 10.9227702,0.970458984 10.4060059,0.689697266 C9.88924154,0.408935547 9.29720052,0.268554688 8.62988281,0.268554688 Z" id="Shape"></path>
            <path d="M19.7993164,16.3696289 C19.7830404,16.2475586 19.7667643,16.1214193 19.7504883,15.9912109 C19.7179362,15.8365885 19.6975911,15.6819661 19.6894531,15.5273438 L19.6894531,15.3930664 C19.6894531,14.7176107 19.7281087,14.0319824 19.8054199,13.3361816 C19.8827311,12.6403809 19.9864909,11.9547526 20.1166992,11.2792969 C20.1411133,11.1328125 20.1818034,10.9883626 20.2387695,10.8459473 C20.2957357,10.7035319 20.3974609,10.6323242 20.5439453,10.6323242 C20.6009115,10.6323242 20.6700846,10.6486003 20.7514648,10.6811523 C20.8653971,10.7543945 20.9223633,10.8398438 20.9223633,10.9375 C20.9223633,11.0270182 20.9020182,11.1165365 20.8613281,11.2060547 C20.8531901,11.2304688 20.8450521,11.2548828 20.8369141,11.2792969 C20.4707031,12.5813802 20.2875977,13.8590495 20.2875977,15.1123047 L20.2875977,15.4296875 C20.2875977,15.5029297 20.2916667,15.5802409 20.2998047,15.6616211 C20.3079427,15.7430013 20.3242188,15.7918294 20.3486328,15.8081055 C20.3649089,15.8162435 20.3811849,15.8203125 20.3974609,15.8203125 C20.413737,15.8203125 20.4279785,15.818278 20.4401855,15.814209 C20.4523926,15.81014 20.4625651,15.8040365 20.4707031,15.7958984 C20.4869792,15.7796224 20.5134277,15.7368978 20.5500488,15.6677246 C20.5866699,15.5985514 20.6212565,15.5293783 20.6538086,15.4602051 C20.6863607,15.3910319 20.7107747,15.3442383 20.7270508,15.3198242 C20.7351888,15.2954102 20.7514648,15.2709961 20.7758789,15.246582 C20.8735352,15.0675456 20.9671224,14.8885091 21.0566406,14.7094727 C21.5123698,13.8468424 21.976237,12.9842122 22.4482422,12.121582 C22.5947266,11.8693034 22.773763,11.6455078 22.9853516,11.4501953 C23.148112,11.3037109 23.3190104,11.2304688 23.4980469,11.2304688 C23.7014974,11.2304688 23.8886719,11.319987 24.0595703,11.4990234 C24.1897786,11.6455078 24.3037109,11.8123372 24.4013672,11.9995117 C24.5559896,12.3006185 24.710612,12.6098633 24.8652344,12.9272461 C24.9466146,13.0818685 25.0239258,13.2364909 25.097168,13.3911133 C25.512207,14.2293294 26.1347656,14.6484375 26.9648438,14.6484375 C27.2740885,14.6484375 27.6077474,14.5996094 27.9658203,14.5019531 C28.4866536,14.3147786 28.8793132,14.1133626 29.1437988,13.8977051 C29.4082845,13.6820475 29.6870117,13.3992513 29.9799805,13.0493164 C30.0532227,12.9597982 30.1346029,12.8662109 30.2241211,12.7685547 C30.3217773,12.6790365 30.4072266,12.6342773 30.4804688,12.6342773 C30.561849,12.6342773 30.6066081,12.6790365 30.6147461,12.7685547 C30.6147461,12.8580729 30.5577799,12.9923503 30.4438477,13.1713867 C30.0043945,13.7654622 29.4713542,14.2618815 28.8447266,14.6606445 L28.7836914,14.6972656 C28.2954102,14.9576823 27.7827148,15.0878906 27.2456055,15.0878906 C26.9363607,15.0878906 26.6271159,15.0512695 26.3178711,14.9780273 C25.6505534,14.7989909 25.1500651,14.4287109 24.8164062,13.8671875 C24.5641276,13.4684245 24.332194,13.0574544 24.1206055,12.6342773 C24.0310872,12.4633789 23.941569,12.2924805 23.8520508,12.121582 C23.8194987,12.0564779 23.7828776,11.9954427 23.7421875,11.9384766 C23.7014974,11.8815104 23.6445312,11.8530273 23.5712891,11.8530273 C23.546875,11.8530273 23.5224609,11.8570964 23.4980469,11.8652344 C23.4573568,11.8733724 23.4248047,11.8876139 23.4003906,11.907959 C23.3759766,11.928304 23.3515625,11.9466146 23.3271484,11.9628906 C23.3271484,11.9710286 23.3230794,11.9791667 23.3149414,11.9873047 C23.2498372,12.0605469 23.1847331,12.1398926 23.1196289,12.2253418 C23.0545247,12.310791 23.0016276,12.3901367 22.9609375,12.4633789 C22.4970703,13.3260091 22.0413411,14.1886393 21.59375,15.0512695 C21.3984375,15.4256185 21.203125,15.7999674 21.0078125,16.1743164 C20.9833984,16.2231445 20.9589844,16.2719727 20.9345703,16.3208008 C20.8857422,16.394043 20.8409831,16.4713542 20.800293,16.5527344 C20.7107747,16.7561849 20.5683594,16.8579102 20.3730469,16.8579102 C20.3404948,16.8579102 20.3038737,16.8538411 20.2631836,16.8457031 C20.0027669,16.796875 19.8481445,16.6381836 19.7993164,16.3696289 Z" id="Path"></path>
            <path d="M30.8100586,17.4072266 C30.7124023,17.4886068 30.6025391,17.5374349 30.4804688,17.5537109 C30.3339844,17.561849 30.199707,17.5374349 30.0776367,17.4804688 C29.9555664,17.4235026 29.8660482,17.3339844 29.809082,17.2119141 C29.7358398,17.0328776 29.6870117,16.8212891 29.6625977,16.5771484 C29.5974935,15.633138 29.7399089,14.5426432 30.0898438,13.3056641 C30.4397786,12.0686849 30.8304036,11.1409505 31.2617188,10.5224609 C31.4895833,10.2294922 31.737793,10.0708008 32.0063477,10.0463867 C32.2179362,10.0219727 32.4661458,10.0667318 32.7509766,10.1806641 C32.7672526,10.0016276 32.7794596,9.83072917 32.7875977,9.66796875 C32.8201497,8.50423177 32.9320475,7.25301107 33.123291,5.91430664 C33.3145345,4.57560221 33.6176758,3.35286458 34.0327148,2.24609375 C34.1547852,1.96940104 34.3053385,1.82698568 34.484375,1.81884766 C34.6227214,1.81070964 34.7447917,1.85546875 34.8505859,1.953125 C34.9563802,2.05078125 35.0174154,2.18098958 35.0336914,2.34375 L35.0458984,2.41699219 C35.0458984,2.43326823 35.0458984,2.44547526 35.0458984,2.45361328 C35.0621745,2.94189453 35.0296224,3.43017578 34.9482422,3.91845703 C34.7203776,5.12288411 34.476237,6.32324219 34.2158203,7.51953125 C34.1425781,7.87760417 34.0652669,8.23567708 33.9838867,8.59375 C33.9025065,8.97623698 33.8089193,9.35872396 33.703125,9.74121094 C33.4589844,10.4817708 33.320638,11.2386068 33.2880859,12.0117188 C33.2718099,13.1266276 33.3328451,14.5019531 33.4711914,16.1376953 C33.5607096,17.0328776 33.7092285,17.8833008 33.916748,18.6889648 C34.1242676,19.4946289 34.4152018,20.1538086 34.7895508,20.6665039 C34.9116211,20.8129883 35.0418294,20.8740234 35.1801758,20.8496094 C35.3673503,20.8170573 35.5443522,20.7092285 35.7111816,20.526123 C35.8780111,20.3430176 36.0021159,20.1782227 36.0834961,20.0317383 C36.1486003,19.909668 36.2137044,19.7916667 36.2788086,19.6777344 C36.6775716,19.0022786 37.0356445,18.3064779 37.3530273,17.590332 C38.0284831,16.011556 38.5818685,14.4205729 39.0131836,12.8173828 C39.0457357,12.7360026 39.1169434,12.693278 39.2268066,12.689209 C39.3366699,12.68514 39.4322917,12.7176921 39.5136719,12.7868652 C39.5950521,12.8560384 39.6113281,12.9516602 39.5625,13.0737305 C39.554362,13.0981445 39.546224,13.1225586 39.5380859,13.1469727 C39.2369792,14.050293 38.8666992,15.1143392 38.4272461,16.3391113 C37.987793,17.5638835 37.5686849,18.5913086 37.1699219,19.4213867 C36.8850911,19.9584961 36.5392253,20.4630534 36.1323242,20.9350586 C35.8963216,21.2036133 35.652181,21.3460286 35.3999023,21.3623047 C35.0255534,21.3785807 34.681722,21.2239583 34.3684082,20.8984375 C34.0550944,20.5729167 33.8211263,20.1904297 33.6665039,19.7509766 C33.2270508,18.5139974 32.9747721,17.4316406 32.909668,16.5039062 C32.8852539,16.2027995 32.8608398,15.9016927 32.8364258,15.6005859 C32.8038737,15.2750651 32.7713216,14.9454753 32.7387695,14.6118164 C32.7062174,14.2781576 32.6614583,13.9241536 32.6044922,13.5498047 C32.4824219,13.8264974 32.3481445,14.1723633 32.2016602,14.5874023 C31.9982096,15.1407878 31.7784831,15.6880697 31.5424805,16.229248 C31.3064779,16.7704264 31.0623372,17.1630859 30.8100586,17.4072266 Z M33.8496094,5.34667969 L33.5932617,7.58056641 L34.0327148,5.98144531 C34.089681,5.7047526 34.1568197,5.32023112 34.2341309,4.82788086 C34.3114421,4.3355306 34.3500977,3.95100911 34.3500977,3.67431641 C34.3500977,3.61735026 34.3582357,3.54817708 34.3745117,3.46679688 C34.3826497,3.40983073 34.3887533,3.35693359 34.3928223,3.30810547 C34.3968913,3.25927734 34.3989258,3.22265625 34.3989258,3.19824219 C34.3989258,3.19010417 34.3948568,3.18603516 34.3867188,3.18603516 C34.3704427,3.17789714 34.3297526,3.26741536 34.2646484,3.45458984 C34.1832682,3.70686849 34.1039225,4.0242513 34.0266113,4.40673828 C33.9493001,4.78922526 33.8902995,5.10253906 33.8496094,5.34667969 Z M31.0297852,12.1826172 C30.8507487,12.6790365 30.6717122,13.3789062 30.4926758,14.2822266 C30.3136393,15.1855469 30.2444661,15.9464518 30.2851562,16.5649414 C30.2932943,16.6381836 30.3014323,16.7032878 30.3095703,16.7602539 C30.3421224,16.8741862 30.3868815,16.9230143 30.4438477,16.9067383 C30.4926758,16.8986003 30.5455729,16.8660482 30.6025391,16.809082 C30.6595052,16.7521159 30.7001953,16.6910807 30.7246094,16.6259766 C31.1070964,15.9098307 31.4285482,15.1733398 31.6889648,14.4165039 C31.9493815,13.659668 32.1894531,12.898763 32.4091797,12.1337891 C32.4661458,11.9384766 32.523112,11.7431641 32.5800781,11.5478516 C32.6451823,11.319987 32.6695964,11.1124674 32.6533203,10.925293 C32.6044922,10.5672201 32.4620768,10.3881836 32.2260742,10.3881836 C32.0551758,10.3963216 31.8680013,10.5794271 31.6645508,10.9375 C31.6401367,10.9781901 31.6116536,11.0229492 31.5791016,11.0717773 C31.367513,11.4217122 31.1844076,11.7919922 31.0297852,12.1826172 Z" id="Shape"></path>
            <path d="M39.0009766,16.9677734 L39.0009766,16.9189453 C38.9928385,16.9026693 38.9887695,16.8904622 38.9887695,16.8823242 C38.9887695,16.8741862 38.9887695,16.8660482 38.9887695,16.8579102 C38.9155273,15.9057617 38.8789062,14.9576823 38.8789062,14.0136719 C38.8789062,12.9231771 38.9684245,11.8286133 39.1474609,10.7299805 C39.155599,10.6811523 39.159668,10.6363932 39.159668,10.5957031 C39.159668,10.4980469 39.1739095,10.4166667 39.2023926,10.3515625 C39.2308757,10.2864583 39.3020833,10.2539062 39.4160156,10.2539062 L39.4770508,10.2539062 C39.5991211,10.2701823 39.6764323,10.3210449 39.7089844,10.4064941 C39.7415365,10.4919434 39.7578125,10.5834961 39.7578125,10.6811523 C39.7659505,10.7137044 39.7700195,10.7421875 39.7700195,10.7666016 C39.7700195,10.7991536 39.7740885,10.8357747 39.7822266,10.8764648 C39.7822266,10.8764648 39.7822266,10.8764648 39.7822266,10.8764648 C39.7903646,10.933431 39.7944336,10.9903971 39.7944336,11.0473633 C39.7944336,11.1287435 39.7740885,11.2060547 39.7333984,11.2792969 L39.7211914,11.2915039 C39.6967773,11.3077799 39.6805013,11.319987 39.6723633,11.328125 C39.6560872,11.328125 39.6459147,11.332194 39.6418457,11.340332 C39.6377767,11.3484701 39.6337077,11.3586426 39.6296387,11.3708496 C39.6255697,11.3830566 39.6194661,11.4013672 39.6113281,11.4257812 C39.6031901,11.5152995 39.5869141,11.6048177 39.5625,11.6943359 C39.554362,11.710612 39.550293,11.726888 39.550293,11.7431641 C39.5421549,11.7757161 39.5380859,11.8062337 39.5380859,11.8347168 C39.5380859,11.8631999 39.5380859,11.8937174 39.5380859,11.9262695 C39.5380859,12.113444 39.5299479,12.3046875 39.5136719,12.5 C39.5136719,12.508138 39.5136719,12.5203451 39.5136719,12.5366211 C39.4973958,13.1144206 39.4892578,13.6962891 39.4892578,14.2822266 L39.4892578,14.4042969 C39.4892578,14.444987 39.4912923,14.4836426 39.4953613,14.5202637 C39.4994303,14.5568848 39.5136719,14.5792643 39.5380859,14.5874023 C39.570638,14.5874023 39.5970866,14.5670573 39.6174316,14.5263672 C39.6377767,14.4856771 39.6540527,14.444987 39.6662598,14.4042969 C39.6784668,14.3636068 39.6845703,14.3310547 39.6845703,14.3066406 L39.7211914,14.1601562 C39.7456055,14.1113281 39.7618815,14.0625 39.7700195,14.0136719 C40.1118164,12.7441406 40.5227865,11.4908854 41.0029297,10.2539062 C41.0354818,10.1806641 41.0680339,10.1033529 41.1005859,10.0219727 C41.125,9.94873047 41.1534831,9.87548828 41.1860352,9.80224609 C41.2348633,9.69645182 41.2979329,9.60693359 41.3752441,9.53369141 C41.4525553,9.46044922 41.5481771,9.42382812 41.6621094,9.42382812 L41.7109375,9.42382812 C41.8085938,9.43196615 41.898112,9.45027669 41.9794922,9.47875977 C42.0608724,9.50724284 42.1219076,9.56217448 42.1625977,9.64355469 C42.1870117,9.68424479 42.2012533,9.73510742 42.2053223,9.79614258 C42.2093913,9.85717773 42.2114258,9.91617839 42.2114258,9.97314453 C42.2114258,10.0219727 42.2114258,10.0667318 42.2114258,10.1074219 C42.2195638,10.2376302 42.2277018,10.3759766 42.2358398,10.5224609 C42.2521159,10.921224 42.2989095,11.3423665 42.3762207,11.7858887 C42.4535319,12.2294108 42.6081543,12.6139323 42.8400879,12.9394531 C43.0720215,13.264974 43.4361979,13.4480794 43.9326172,13.4887695 C44.0628255,13.4969076 44.1930339,13.5009766 44.3232422,13.5009766 C44.7545573,13.4928385 45.1940104,13.4399414 45.6416016,13.3422852 C45.7473958,13.3178711 45.828776,13.3443197 45.8857422,13.4216309 C45.9427083,13.4989421 45.9650879,13.5843913 45.9528809,13.6779785 C45.9406738,13.7715658 45.8776042,13.8305664 45.7636719,13.8549805 C45.421875,13.9282227 45.0760091,13.9689128 44.7260742,13.9770508 C44.5307617,13.9770508 44.3313802,13.9689128 44.1279297,13.9526367 C43.1595052,13.8387044 42.4637044,13.3463542 42.0405273,12.4755859 C41.902181,12.125651 41.8045247,11.7940267 41.7475586,11.4807129 C41.6905924,11.1673991 41.6499023,10.9090169 41.6254883,10.7055664 C41.6092122,10.4614258 41.5847982,10.3352865 41.5522461,10.3271484 C41.527832,10.3271484 41.4952799,10.3719076 41.4545898,10.4614258 C41.120931,11.2263997 40.7689616,12.2131348 40.3986816,13.4216309 C40.0284017,14.630127 39.7985026,15.8894857 39.7089844,17.199707 C39.7089844,17.3299154 39.6927083,17.4112956 39.6601562,17.4438477 C39.6276042,17.4763997 39.546224,17.4967448 39.4160156,17.5048828 C39.4078776,17.5048828 39.3956706,17.5048828 39.3793945,17.5048828 L39.3183594,17.5170898 C39.2613932,17.5170898 39.2064616,17.5069173 39.1535645,17.4865723 C39.1006673,17.4662272 39.0660807,17.4275716 39.0498047,17.3706055 C39.0335286,17.3136393 39.0213216,17.2465007 39.0131836,17.1691895 C39.0050456,17.0918783 39.0009766,17.0247396 39.0009766,16.9677734 Z" id="Path"></path>
            <path d="M47.7167969,16.7602539 C47.4563802,16.8253581 47.2122396,16.8497721 46.984375,16.8334961 C46.1054688,16.7521159 45.5439453,16.2272135 45.2998047,15.2587891 C45.2428385,14.9983724 45.2143555,14.7420247 45.2143555,14.4897461 C45.2143555,14.1398112 45.2509766,13.7939453 45.3242188,13.4521484 C45.5195312,12.3616536 45.9345703,11.3728841 46.5693359,10.4858398 C46.585612,10.4695638 46.601888,10.4492188 46.6181641,10.4248047 C46.6425781,10.3922526 46.6710612,10.3597005 46.7036133,10.3271484 C46.9314779,10.1074219 47.1674805,10.0056966 47.4116211,10.0219727 C47.5092773,10.0301107 47.6028646,10.0585938 47.6923828,10.1074219 C47.8063151,10.172526 47.8978678,10.2742513 47.967041,10.4125977 C48.0362142,10.550944 48.0708008,10.6974284 48.0708008,10.8520508 C48.0708008,10.925293 48.0626628,10.9985352 48.0463867,11.0717773 C47.8999023,11.730957 47.5987956,12.2965495 47.1430664,12.7685547 C46.9558919,12.9475911 46.7565104,13.1184896 46.5449219,13.28125 C46.4065755,13.3870443 46.2722982,13.5009766 46.1420898,13.6230469 C46.0118815,13.7369792 45.9223633,13.8753255 45.8735352,14.0380859 C45.8409831,14.2252604 45.824707,14.4165039 45.824707,14.6118164 C45.824707,14.9291992 45.8735352,15.2547201 45.9711914,15.5883789 C46.1176758,16.0929362 46.3862305,16.3614909 46.7768555,16.394043 C46.9396159,16.402181 47.1389974,16.3696289 47.375,16.2963867 C47.749349,16.1743164 48.0911458,15.9912109 48.4003906,15.7470703 C49.5885417,14.8925781 50.5732422,13.8712565 51.3544922,12.6831055 C51.3951823,12.6342773 51.4480794,12.6139323 51.5131836,12.6220703 C51.5945638,12.6302083 51.6698405,12.6607259 51.7390137,12.713623 C51.8081868,12.7665202 51.8427734,12.8255208 51.8427734,12.890625 C51.8427734,12.9231771 51.8305664,12.9597982 51.8061523,13.0004883 C51.7329102,13.1225586 51.655599,13.2446289 51.5742188,13.3666992 C51.5416667,13.4073893 51.5091146,13.4521484 51.4765625,13.5009766 C50.8011068,14.461263 49.9913737,15.2994792 49.0473633,16.015625 C49.0310872,16.031901 49.0148112,16.0441081 48.9985352,16.0522461 C48.6323242,16.3696289 48.2050781,16.6056315 47.7167969,16.7602539 Z M46.1542969,12.7197266 C46.1380208,12.7522786 46.1298828,12.7848307 46.1298828,12.8173828 C46.1298828,12.8336589 46.1339518,12.8479004 46.1420898,12.8601074 C46.1502279,12.8723145 46.1665039,12.878418 46.190918,12.878418 L46.203125,12.878418 C46.2275391,12.878418 46.2519531,12.8702799 46.2763672,12.8540039 C46.3007812,12.8377279 46.3251953,12.8214518 46.3496094,12.8051758 C46.3577474,12.7970378 46.3658854,12.7888997 46.3740234,12.7807617 C46.3984375,12.7563477 46.4269206,12.7360026 46.4594727,12.7197266 C46.4838867,12.6953125 46.5083008,12.6708984 46.5327148,12.6464844 C46.9070638,12.2802734 47.1674805,11.8448893 47.3139648,11.340332 C47.3302409,11.2915039 47.3505859,11.2141927 47.375,11.1083984 C47.3994141,11.0026042 47.4116211,10.9090169 47.4116211,10.8276367 C47.4116211,10.7788086 47.4034831,10.7381185 47.387207,10.7055664 L47.362793,10.7055664 C47.3546549,10.7055664 47.3444824,10.7055664 47.3322754,10.7055664 C47.3200684,10.7055664 47.3098958,10.7096354 47.3017578,10.7177734 C47.2773438,10.7259115 47.2488607,10.748291 47.2163086,10.7849121 C47.1837565,10.8215332 47.1593424,10.8520508 47.1430664,10.8764648 L47.1308594,10.8886719 C46.7076823,11.4420573 46.3821615,12.0524089 46.1542969,12.7197266 Z" id="Shape"></path>
            <path d="M51.7084961,16.784668 C51.667806,16.800944 51.6271159,16.809082 51.5864258,16.809082 C51.4806315,16.809082 51.3707682,16.7663574 51.2568359,16.6809082 C51.1429036,16.595459 51.0574544,16.4876302 51.0004883,16.3574219 C50.9435221,16.2109375 50.902832,16.0603841 50.878418,15.9057617 C50.8702799,15.8650716 50.8662109,15.8243815 50.8662109,15.7836914 C50.8255208,14.4083659 51.1103516,13.1429036 51.7207031,11.9873047 C51.9078776,11.5722656 52.1805013,11.3647461 52.5385742,11.3647461 C52.7094727,11.3647461 52.9129232,11.4054362 53.1489258,11.4868164 C53.1652018,11.4624023 53.1814779,11.4379883 53.1977539,11.4135742 C53.230306,11.3484701 53.2648926,11.2976074 53.3015137,11.2609863 C53.3381348,11.2243652 53.3849284,11.2060547 53.4418945,11.2060547 C53.4988607,11.2060547 53.5721029,11.2223307 53.6616211,11.2548828 C53.7511393,11.2874349 53.8121745,11.324056 53.8447266,11.3647461 C53.8772786,11.4054362 53.8976237,11.4542643 53.9057617,11.5112305 C53.9138997,11.5681966 53.9138997,11.6292318 53.9057617,11.6943359 C53.9057617,11.702474 53.9057617,11.714681 53.9057617,11.730957 C53.9057617,12.121582 53.9016927,12.5203451 53.8935547,12.9272461 C53.8935547,13.7166341 53.9016927,14.5100911 53.9179688,15.3076172 C53.9261068,15.5517578 53.9464518,15.7999674 53.9790039,16.0522461 C54.027832,16.394043 54.0807292,16.7358398 54.1376953,17.0776367 C54.1702474,17.2566732 54.217041,17.4438477 54.2780762,17.6391602 C54.3391113,17.8344727 54.4306641,18.0053711 54.5527344,18.1518555 C54.5690104,18.1762695 54.587321,18.1925456 54.607666,18.2006836 C54.6280111,18.2088216 54.6503906,18.2169596 54.6748047,18.2250977 C54.6829427,18.2250977 54.6910807,18.2250977 54.6992188,18.2250977 L54.7358398,18.2250977 C54.7683919,18.2250977 54.796875,18.2210286 54.8212891,18.2128906 C54.8701172,18.2047526 54.9067383,18.1925456 54.9311523,18.1762695 C54.9555664,18.1599935 54.9799805,18.1396484 55.0043945,18.1152344 C55.0450846,18.0745443 55.0817057,18.0379232 55.1142578,18.0053711 C55.1630859,17.9239909 55.2159831,17.8426107 55.2729492,17.7612305 C55.6961263,17.1183268 56.0989583,16.4632161 56.4814453,15.7958984 C56.5221354,15.7145182 56.5628255,15.637207 56.6035156,15.5639648 C57.132487,14.6199544 57.6207682,13.688151 58.0683594,12.7685547 C58.1334635,12.6790365 58.2026367,12.6342773 58.2758789,12.6342773 C58.3328451,12.6342773 58.3857422,12.6525879 58.4345703,12.689209 C58.4833984,12.7258301 58.5118815,12.7766927 58.5200195,12.8417969 C58.5281576,12.882487 58.5240885,12.9272461 58.5078125,12.9760742 C57.8486328,14.4327799 57.132487,15.8528646 56.359375,17.2363281 C56.2942708,17.3502604 56.2291667,17.4682617 56.1640625,17.590332 C55.976888,17.9484049 55.7408854,18.2657878 55.4560547,18.5424805 C55.2851562,18.7133789 55.0939128,18.7988281 54.8823242,18.7988281 C54.7602539,18.7988281 54.6300456,18.762207 54.4916992,18.6889648 C54.3370768,18.5913086 54.2068685,18.4611003 54.1010742,18.2983398 C53.8569336,17.9239909 53.6819661,17.5211589 53.5761719,17.0898438 C53.4866536,16.7317708 53.4215495,16.3736979 53.3808594,16.015625 C53.3076172,15.4134115 53.2750651,14.8152669 53.2832031,14.2211914 L53.2709961,14.1357422 C53.2709961,14.1113281 53.2648926,14.0909831 53.2526855,14.074707 C53.2404785,14.058431 53.2140299,14.046224 53.1733398,14.0380859 L53.1611328,14.0380859 C53.1529948,14.0380859 53.1428223,14.0401204 53.1306152,14.0441895 C53.1184082,14.0482585 53.1082357,14.0523275 53.1000977,14.0563965 C53.0919596,14.0604655 53.0878906,14.0625 53.0878906,14.0625 C53.0716146,14.078776 53.0594076,14.0970866 53.0512695,14.1174316 C53.0431315,14.1377767 53.0349935,14.1560872 53.0268555,14.1723633 C53.0268555,14.1886393 53.0227865,14.2049154 53.0146484,14.2211914 C52.9658203,14.3595378 52.9169922,14.4938151 52.8681641,14.6240234 C52.7949219,14.835612 52.7176107,15.0390625 52.6362305,15.234375 C52.6036784,15.3157552 52.5711263,15.3971354 52.5385742,15.4785156 C52.4327799,15.7796224 52.3107096,16.0725911 52.1723633,16.3574219 C52.058431,16.5445964 51.9038086,16.6870117 51.7084961,16.784668 Z M51.4643555,15.0512695 C51.4562174,15.0919596 51.4521484,15.1590983 51.4521484,15.2526855 C51.4521484,15.3462728 51.4521484,15.447998 51.4521484,15.5578613 C51.4521484,15.6677246 51.4562174,15.7592773 51.4643555,15.8325195 C51.4724935,15.8813477 51.4806315,15.9138997 51.4887695,15.9301758 C51.5131836,15.9545898 51.5375977,15.9667969 51.5620117,15.9667969 C51.5945638,15.9667969 51.6230469,15.9586589 51.6474609,15.9423828 C51.663737,15.9261068 51.680013,15.9077962 51.6962891,15.8874512 C51.7125651,15.8671061 51.7247721,15.8487956 51.7329102,15.8325195 L51.7451172,15.8081055 C51.7939453,15.6697591 51.8427734,15.5314128 51.8916016,15.3930664 C52.1845703,14.5955404 52.469401,13.7939453 52.7460938,12.9882812 C52.851888,12.6790365 52.9332682,12.3657227 52.9902344,12.0483398 C52.9902344,12.0320638 52.9902344,12.0157878 52.9902344,11.9995117 C52.9820964,11.9588216 52.9698893,11.9181315 52.9536133,11.8774414 C52.9373372,11.8367513 52.9169922,11.8041992 52.8925781,11.7797852 C52.8681641,11.7553711 52.835612,11.7431641 52.7949219,11.7431641 C52.7623698,11.7431641 52.7338867,11.7472331 52.7094727,11.7553711 C52.6850586,11.7635091 52.6687826,11.7757161 52.6606445,11.7919922 C52.4897461,11.9222005 52.3432617,12.0768229 52.2211914,12.2558594 C51.7654622,13.1103516 51.5131836,14.0421549 51.4643555,15.0512695 Z" id="Shape"></path>
            <path d="M73.2880859,19.2602539 C73.0292969,19.5092773 72.765625,19.7460938 72.4970703,19.9707031 C72.4628906,20 72.4287109,20.0292969 72.3945312,20.0585938 C72.2480469,20.1855469 72.0942383,20.3149414 71.9331055,20.4467773 C71.8745117,20.4956055 71.815918,20.5444336 71.7573242,20.5932617 C71.7915039,20.6420898 71.8256836,20.690918 71.8598633,20.7397461 C71.9624023,20.8959961 72.0722656,21.0449219 72.1894531,21.1865234 C72.4677734,21.5087891 72.7460938,21.8261719 73.0244141,22.1386719 C73.1416016,22.265625 73.2563477,22.3925781 73.3686523,22.5195312 C73.4760742,22.6318359 73.5297852,22.7197266 73.5297852,22.7832031 C73.5297852,22.8173828 73.5151367,22.8491211 73.4858398,22.878418 C73.4614258,22.9077148 73.4321289,22.9223633 73.3979492,22.9223633 C73.3393555,22.9223633 73.2661133,22.8686523 73.1782227,22.7612305 C73.0952148,22.668457 73.0146484,22.578125 72.9365234,22.4902344 C72.7314453,22.2558594 72.53125,22.019043 72.3359375,21.7797852 C72.1503906,21.550293 71.9672852,21.3085938 71.7866211,21.0546875 C71.7084961,20.9521484 71.6279297,20.8447266 71.5449219,20.7324219 C71.359375,20.8300781 71.1835938,20.9375 71.0175781,21.0546875 C70.3974609,21.4794922 69.7382812,21.8261719 69.0400391,22.0947266 C68.8642578,22.1630859 68.6884766,22.2338867 68.5126953,22.3071289 C68.2685547,22.4145508 68.0219727,22.512207 67.7729492,22.6000977 C67.5532227,22.6733398 67.3310547,22.7319336 67.1064453,22.7758789 C66.8818359,22.8198242 66.6523438,22.8417969 66.4179688,22.8417969 C66.2714844,22.8417969 66.1225586,22.8320312 65.9711914,22.8125 C65.5756836,22.7587891 65.2412109,22.5341797 64.9677734,22.1386719 C64.875,21.9970703 64.8127441,21.8481445 64.7810059,21.6918945 C64.7492676,21.5356445 64.7333984,21.3793945 64.7333984,21.2231445 L64.7333984,21.1499023 C64.7822266,20.3149414 64.9775391,19.5654297 65.3193359,18.9013672 C65.6806641,18.1396484 66.059082,17.3901367 66.4545898,16.652832 C66.5571289,16.4770508 66.6669922,16.3085938 66.7841797,16.1474609 C66.828125,16.0888672 66.8696289,16.0327148 66.9086914,15.9790039 C66.9624023,15.8959961 67.0185547,15.8129883 67.0771484,15.7299805 C67.2724609,15.4418945 67.4677734,15.1586914 67.6630859,14.8803711 C67.9023438,14.5532227 68.144043,14.2285156 68.3881836,13.90625 C68.5444336,13.7011719 68.7006836,13.4936523 68.8569336,13.2836914 C68.9350586,13.1860352 68.9838867,13.0737305 69.003418,12.9467773 C69.0522461,12.3217773 69.1767578,11.7431641 69.3769531,11.2109375 C69.5234375,10.8447266 69.7053223,10.5200195 69.9226074,10.2368164 C70.1398926,9.95361328 70.4121094,9.73144531 70.7392578,9.5703125 C70.8417969,9.52636719 70.9516602,9.50195312 71.0688477,9.49707031 L71.0834961,9.49707031 C71.215332,9.49707031 71.326416,9.54833984 71.416748,9.65087891 C71.5070801,9.75341797 71.5522461,9.8828125 71.5522461,10.0390625 L71.5522461,10.0830078 C71.5473633,10.2050781 71.5205078,10.3125 71.4716797,10.4052734 C71.3056641,10.703125 71.1274414,10.9912109 70.9370117,11.2695312 C70.6342773,11.6894531 70.3242188,12.1044922 70.0068359,12.5146484 C69.8994141,12.6513672 69.7944336,12.7880859 69.6918945,12.9248047 C69.6918945,12.9296875 69.6906738,12.9333496 69.6882324,12.935791 C69.685791,12.9382324 69.6821289,12.9418945 69.6772461,12.9467773 C69.5258789,13.059082 69.4257812,13.1994629 69.3769531,13.3679199 C69.328125,13.536377 69.3037109,13.7207031 69.3037109,13.9208984 C69.3037109,14.0185547 69.3061523,14.1162109 69.3110352,14.2138672 C69.3696289,15.0292969 69.5136719,15.8398438 69.7431641,16.6455078 C69.7529297,16.6748047 69.7675781,16.7089844 69.7871094,16.7480469 C69.7919922,16.7626953 69.7993164,16.7797852 69.809082,16.7993164 C69.8481445,16.7797852 69.887207,16.7602539 69.9262695,16.7407227 C70.097168,16.6577148 70.2583008,16.5722656 70.409668,16.484375 C70.980957,16.1523438 71.5766602,15.9008789 72.1967773,15.7299805 C72.3579102,15.6860352 72.5178223,15.6481934 72.6765137,15.6164551 C72.8352051,15.5847168 72.9975586,15.5688477 73.1635742,15.5688477 C73.2954102,15.5688477 73.4272461,15.5810547 73.559082,15.6054688 C73.7739258,15.6445312 73.9814453,15.7275391 74.1816406,15.8544922 C74.3330078,15.9521484 74.4538574,16.0876465 74.5441895,16.2609863 C74.6345215,16.4343262 74.6796875,16.6137695 74.6796875,16.7993164 C74.6796875,16.8383789 74.6772461,16.875 74.6723633,16.9091797 C74.6186523,17.3730469 74.4697266,17.7758789 74.2255859,18.1176758 C73.9423828,18.5375977 73.6298828,18.918457 73.2880859,19.2602539 Z M71.2446289,9.87060547 L71.1860352,9.87060547 C70.9223633,9.87060547 70.6574707,10.0134277 70.3913574,10.2990723 C70.1252441,10.5847168 69.9042969,10.9265137 69.7285156,11.3244629 C69.5527344,11.7224121 69.4648438,12.0898438 69.4648438,12.4267578 L69.4648438,12.4926758 C69.4746094,12.4829102 69.484375,12.4755859 69.4941406,12.4707031 C69.5136719,12.4560547 69.5307617,12.4389648 69.5454102,12.4194336 C69.7260742,12.1899414 69.9067383,11.9580078 70.0874023,11.7236328 C70.1801758,11.6064453 70.2705078,11.4892578 70.3583984,11.3720703 C70.5439453,11.1328125 70.7246094,10.8862305 70.9003906,10.6323242 C71.0664062,10.4321289 71.1811523,10.1782227 71.2446289,9.87060547 Z M70.0947266,21.0546875 C70.34375,20.9130859 70.590332,20.7641602 70.8344727,20.6079102 C70.9760742,20.5200195 71.1225586,20.4296875 71.2739258,20.3369141 C70.668457,19.3847656 70.1484375,18.3984375 69.7138672,17.3779297 C69.6796875,17.3925781 69.6503906,17.4047852 69.6259766,17.4145508 C69.5673828,17.434082 69.5185547,17.4584961 69.4794922,17.487793 C69.0498047,17.7661133 68.625,18.0517578 68.2050781,18.3447266 C67.6435547,18.7158203 67.1210938,19.1455078 66.6376953,19.6337891 C66.4912109,19.7949219 66.3544922,19.9658203 66.2275391,20.1464844 C66.2080078,20.1660156 66.190918,20.1879883 66.1762695,20.2124023 C66.1469727,20.246582 66.1225586,20.2844238 66.1030273,20.3259277 C66.0834961,20.3674316 66.0737305,20.4174805 66.0737305,20.4760742 C66.0737305,20.5200195 66.0810547,20.5712891 66.0957031,20.6298828 C66.1298828,20.6347656 66.1665039,20.6396484 66.2055664,20.6445312 C66.2495117,20.6542969 66.2958984,20.6591797 66.3447266,20.6591797 C66.3740234,20.6591797 66.4033203,20.6542969 66.4326172,20.6445312 C66.7207031,20.5810547 67.0063477,20.5078125 67.2895508,20.4248047 C67.309082,20.4150391 67.3310547,20.4077148 67.3554688,20.402832 C67.3701172,20.3979492 67.3847656,20.3930664 67.3994141,20.3881836 C67.4287109,20.3735352 67.4580078,20.3662109 67.4873047,20.3662109 C67.5166016,20.3662109 67.543457,20.3771973 67.5678711,20.3991699 C67.5922852,20.4211426 67.6166992,20.4614258 67.6411133,20.5200195 C67.6362305,20.5297852 67.6313477,20.5371094 67.6264648,20.5419922 C67.6020508,20.5712891 67.5776367,20.5908203 67.5532227,20.6005859 C67.1870117,20.7128906 66.8134766,20.8129883 66.4326172,20.9008789 C66.4130859,20.9057617 66.3935547,20.9082031 66.3740234,20.9082031 C66.28125,20.9082031 66.1835938,20.8789062 66.0810547,20.8203125 C66.0810547,20.8203125 66.0810547,20.8203125 66.0810547,20.8203125 C65.9052734,20.7373047 65.8173828,20.612793 65.8173828,20.4467773 C65.8173828,20.4077148 65.8198242,20.3686523 65.824707,20.3295898 C65.8735352,20.1245117 65.9541016,19.9511719 66.0664062,19.8095703 C66.2958984,19.5068359 66.5424805,19.230957 66.8061523,18.9819336 C67.519043,18.3569336 68.2709961,17.7929688 69.0620117,17.2900391 C69.1303711,17.2460938 69.1987305,17.2021484 69.2670898,17.1582031 C69.3598633,17.0947266 69.4501953,17.0361328 69.5380859,16.9824219 C69.4941406,16.8066406 69.4501953,16.6308594 69.40625,16.4550781 C69.3183594,16.1181641 69.2426758,15.7861328 69.1791992,15.4589844 C69.1157227,15.1220703 69.0620117,14.7753906 69.0180664,14.4189453 C68.9936523,14.2431641 68.9667969,14.0625 68.9375,13.8769531 C68.8691406,13.9697266 68.8007812,14.0600586 68.7324219,14.1479492 C68.4736328,14.4799805 68.2294922,14.8071289 68,15.1293945 C67.8193359,15.3833008 67.6459961,15.6396484 67.4799805,15.8984375 C67.4360352,15.9716797 67.3920898,16.0424805 67.3481445,16.1108398 C67.2602539,16.237793 67.1723633,16.3647461 67.0844727,16.4916992 C66.8500977,16.8188477 66.6328125,17.1606445 66.4326172,17.5170898 C66.1689453,18.0102539 65.9223633,18.5205078 65.6928711,19.0478516 C65.6489258,19.1455078 65.6049805,19.2431641 65.5610352,19.3408203 C65.3413086,19.7949219 65.1923828,20.2929688 65.1142578,20.8349609 C65.0849609,21.0107422 65.0703125,21.1889648 65.0703125,21.3696289 C65.0703125,21.5307617 65.0898438,21.6943359 65.1289062,21.8603516 C65.1923828,22.109375 65.3217773,22.2729492 65.5170898,22.3510742 C65.6489258,22.3950195 65.7807617,22.4267578 65.9125977,22.4462891 C66.034668,22.4658203 66.1567383,22.4755859 66.2788086,22.4755859 C66.4838867,22.4755859 66.6816406,22.4536133 66.8720703,22.409668 C67.0625,22.3657227 67.2529297,22.3120117 67.4433594,22.2485352 C67.9365234,22.0825195 68.4223633,21.887207 68.9008789,21.6625977 C68.925293,21.6479492 68.949707,21.6357422 68.9741211,21.6259766 C69.3598633,21.4550781 69.7333984,21.2646484 70.0947266,21.0546875 Z M71.4790039,20.1977539 C71.6450195,20.0512695 71.8110352,19.9121094 71.9770508,19.7802734 C72.2358398,19.5703125 72.4873047,19.3579102 72.7314453,19.1430664 C73.1757812,18.7329102 73.5737305,18.2617188 73.925293,17.7294922 C74.1303711,17.4365234 74.262207,17.0947266 74.3208008,16.7041016 C74.3305664,16.6455078 74.3354492,16.5942383 74.3354492,16.550293 C74.3354492,16.3110352 74.2207031,16.1621094 73.9912109,16.1035156 C73.7714844,16.0253906 73.5566406,15.9863281 73.3466797,15.9863281 C73.0927734,15.9863281 72.84375,16.015625 72.5996094,16.0742188 C72.5800781,16.0791016 72.5605469,16.0839844 72.5410156,16.0888672 C72.0283203,16.2011719 71.5400391,16.3745117 71.0761719,16.6088867 C70.8076172,16.730957 70.5390625,16.8676758 70.2705078,17.019043 C70.1582031,17.0776367 70.043457,17.1386719 69.9262695,17.2021484 C70.3217773,18.2617188 70.8393555,19.2602539 71.4790039,20.1977539 Z" id="Shape"></path>
            <path d="M85.6660156,18.2983398 L85.5683594,18.2983398 C84.3964844,18.2657878 83.4911296,17.9178874 82.8522949,17.2546387 C82.2134603,16.59139 81.8330078,15.7267253 81.7109375,14.6606445 C81.5481771,13.0900065 81.9123535,11.3810221 82.8034668,9.53369141 C83.6945801,7.68636068 85.1044922,6.03841146 87.0332031,4.58984375 C87.6516927,4.13411458 88.3963216,3.73331706 89.2670898,3.38745117 C90.1378581,3.04158529 91.0371094,2.86865234 91.9648438,2.86865234 C92.5914714,2.86865234 93.2058919,2.97648112 93.8081055,3.19213867 C94.410319,3.40779622 94.9677734,3.76383464 95.4804688,4.26025391 C96.1233724,4.90315755 96.5791016,5.5460612 96.8476562,6.18896484 C97.1162109,6.83186849 97.3400065,7.54394531 97.519043,8.32519531 C97.5515951,8.46354167 97.5882161,8.60595703 97.6289062,8.75244141 C97.6289062,8.76057943 97.6329753,8.76871745 97.6411133,8.77685547 C97.6492513,8.82568359 97.6675618,8.88468424 97.6960449,8.95385742 C97.724528,9.0230306 97.7591146,9.06982422 97.7998047,9.09423828 C97.8242188,9.1023763 97.8486328,9.10644531 97.8730469,9.10644531 C97.913737,9.10644531 97.9503581,9.09830729 97.9829102,9.08203125 C98.0805664,9.04947917 98.1660156,9.00472005 98.2392578,8.94775391 C98.2718099,8.92333984 98.308431,8.89892578 98.3491211,8.87451172 C98.9025065,8.52457682 99.476237,8.22347005 100.070312,7.97119141 C100.094727,7.96305339 100.119141,7.95898438 100.143555,7.95898438 C100.208659,7.95898438 100.261556,7.98746745 100.302246,8.04443359 C100.342936,8.10139974 100.36735,8.1624349 100.375488,8.22753906 C100.383626,8.30078125 100.36735,8.35367839 100.32666,8.38623047 C100.253418,8.42692057 100.127279,8.48795573 99.9482422,8.56933594 C99.6878255,8.67513021 99.3928223,8.81347656 99.0632324,8.984375 C98.7336426,9.15527344 98.4467773,9.34041341 98.2026367,9.53979492 C97.9584961,9.73917643 97.8323568,9.94059245 97.8242188,10.144043 C97.8811849,12.3087565 97.5536296,14.5406087 96.8415527,16.8395996 C96.1294759,19.1385905 95.1427409,21.097819 93.8813477,22.7172852 C93.620931,23.042806 93.3055827,23.4171549 92.9353027,23.840332 C92.5650228,24.2635091 92.1520182,24.6785482 91.6962891,25.0854492 C91.2405599,25.4923503 90.7502441,25.8321126 90.2253418,26.1047363 C89.7004395,26.37736 89.1531576,26.5136719 88.5834961,26.5136719 C88.4695638,26.5136719 88.3515625,26.5055339 88.2294922,26.4892578 C87.5947266,26.4078776 87.1267904,26.2064616 86.8256836,25.8850098 C86.5245768,25.5635579 86.3536784,25.1668294 86.3129883,24.6948242 C86.2560221,24.0681966 86.3353678,23.3988444 86.5510254,22.6867676 C86.7666829,21.9746908 87.0230306,21.3236491 87.3200684,20.7336426 C87.6171061,20.1436361 87.8551432,19.7102865 88.0341797,19.4335938 C88.1236979,19.2871094 88.2172852,19.140625 88.3149414,18.9941406 C88.4125977,18.8476562 88.5102539,18.7011719 88.6079102,18.5546875 C88.6323242,18.5058594 88.6608073,18.4529622 88.6933594,18.3959961 C88.7259115,18.347168 88.7584635,18.2983398 88.7910156,18.2495117 C88.8561198,18.1681315 88.921224,18.0867513 88.9863281,18.0053711 C88.9944661,17.9890951 89.0087077,17.960612 89.0290527,17.9199219 C89.0493978,17.8792318 89.0697428,17.8385417 89.0900879,17.7978516 C89.1104329,17.7571615 89.1246745,17.7286784 89.1328125,17.7124023 C89.1328125,17.6961263 89.1328125,17.6757812 89.1328125,17.6513672 C89.1165365,17.569987 89.0636393,17.5292969 88.9741211,17.5292969 L88.949707,17.5292969 C88.925293,17.5455729 88.8927409,17.5537109 88.8520508,17.5537109 C88.8439128,17.561849 88.8317057,17.565918 88.8154297,17.565918 C88.7991536,17.574056 88.7869466,17.582194 88.7788086,17.590332 C88.7218424,17.5984701 88.6689453,17.6106771 88.6201172,17.6269531 C88.4736328,17.6757812 88.3312174,17.7286784 88.1928711,17.7856445 C88.1359049,17.8019206 88.0870768,17.8222656 88.0463867,17.8466797 C87.6476237,17.9931641 87.2590332,18.1050618 86.8806152,18.182373 C86.5021973,18.2596842 86.0973307,18.2983398 85.6660156,18.2983398 Z M97.2138672,10.7177734 C97.2220052,10.6852214 97.2220052,10.6445312 97.2138672,10.5957031 C97.2138672,10.538737 97.1975911,10.4980469 97.1650391,10.4736328 C97.140625,10.4492188 97.1162109,10.4370117 97.0917969,10.4370117 C97.0755208,10.4370117 97.0551758,10.4410807 97.0307617,10.4492188 C97.0226237,10.4573568 97.0144857,10.4614258 97.0063477,10.4614258 C97.0063477,10.4614258 97.0043132,10.4614258 97.0002441,10.4614258 C96.9961751,10.4614258 96.9921061,10.4634603 96.9880371,10.4675293 C96.9839681,10.4715983 96.9819336,10.4736328 96.9819336,10.4736328 C96.9819336,10.4736328 96.9819336,10.4736328 96.9819336,10.4736328 C96.8761393,10.538737 96.7784831,10.6079102 96.6889648,10.6811523 L96.6645508,10.6933594 C96.6238607,10.7340495 96.5791016,10.7706706 96.5302734,10.8032227 C96.4895833,10.8439128 96.4448242,10.8846029 96.3959961,10.925293 C95.4438477,11.7472331 94.5242513,12.6057943 93.637207,13.5009766 C92.2130534,14.9007161 90.898763,16.40625 89.6943359,18.0175781 C89.5804036,18.1559245 89.4786784,18.2983398 89.3891602,18.4448242 C89.0148112,18.9575195 88.6241862,19.5617676 88.2172852,20.2575684 C87.8103841,20.9533691 87.4767253,21.6878255 87.2163086,22.4609375 C86.9558919,23.2340495 86.8582357,23.9868164 86.9233398,24.7192383 C86.9477539,24.9145508 86.988444,25.1057943 87.0454102,25.2929688 C87.1430664,25.5940755 87.3078613,25.8076986 87.5397949,25.9338379 C87.7717285,26.0599772 88.0301107,26.1230469 88.3149414,26.1230469 C88.7869466,26.1230469 89.2304688,26.0091146 89.6455078,25.78125 C91.1510417,24.9348958 92.440918,23.7365723 93.5151367,22.1862793 C94.5893555,20.6359863 95.4377441,18.943278 96.0603027,17.1081543 C96.6828613,15.2730306 97.0551758,13.4969076 97.1772461,11.7797852 C97.2097982,11.4217122 97.2220052,11.0677083 97.2138672,10.7177734 Z M93.234375,3.43017578 C92.835612,3.34879557 92.436849,3.30810547 92.0380859,3.30810547 C91.0696615,3.30810547 90.1317546,3.51969401 89.2243652,3.94287109 C88.3169759,4.36604818 87.4706217,4.92757161 86.6853027,5.62744141 C85.8999837,6.3273112 85.1980794,7.10245768 84.5795898,7.95288086 C83.9611003,8.80330404 83.452474,9.66389974 83.0537109,10.534668 C82.6549479,11.4054362 82.3945312,12.2192383 82.2724609,12.9760742 C82.1503906,13.6352539 82.1219076,14.3107096 82.1870117,15.0024414 C82.2439779,15.612793 82.4331868,16.1661784 82.7546387,16.6625977 C83.0760905,17.1590169 83.5826823,17.5333659 84.2744141,17.7856445 C84.8196615,17.9484049 85.3608398,18.0297852 85.8979492,18.0297852 C86.3699544,18.0297852 86.8358561,17.9829915 87.2956543,17.8894043 C87.7554525,17.7958171 88.2010091,17.6757812 88.6323242,17.5292969 C88.949707,17.4235026 89.2426758,17.2810872 89.5112305,17.1020508 C89.5275065,17.0939128 89.5397135,17.0857747 89.5478516,17.0776367 C89.5966797,17.0532227 89.6414388,17.0206706 89.6821289,16.9799805 C89.714681,16.9637044 89.7390951,16.9433594 89.7553711,16.9189453 C90.1459961,16.5364583 90.5691732,16.0685221 91.0249023,15.5151367 C91.4480794,15.0105794 91.8631185,14.5467122 92.2700195,14.1235352 C93.4337565,12.9516602 94.6544596,11.8489583 95.9321289,10.8154297 C95.9484049,10.8072917 95.960612,10.7991536 95.96875,10.7910156 C96.2454427,10.5875651 96.5099284,10.3719076 96.762207,10.144043 C96.9086914,10.0138346 97.0104167,9.88769531 97.0673828,9.765625 C97.124349,9.64355469 97.140625,9.48893229 97.1162109,9.30175781 L97.1040039,9.1796875 C96.9982096,8.50423177 96.8171387,7.76163737 96.560791,6.9519043 C96.3044434,6.14217122 95.9138184,5.40771484 95.388916,4.74853516 C94.8640137,4.08935547 94.1458333,3.64990234 93.234375,3.43017578 Z" id="Shape"></path>
            <path d="M115.29248,12.7929688 C115.390137,12.8417969 115.438965,12.9109701 115.438965,13.0004883 C115.438965,13.1062826 115.414551,13.2120768 115.365723,13.3178711 C115.357585,13.3341471 115.353516,13.3463542 115.353516,13.3544922 C115.036133,14.2252604 114.69637,15.0349935 114.334229,15.7836914 C113.972087,16.5323893 113.530599,17.2159831 113.009766,17.8344727 C112.765625,18.1599935 112.440104,18.3959961 112.033203,18.5424805 C111.837891,18.5913086 111.658854,18.6157227 111.496094,18.6157227 C111.089193,18.6157227 110.735189,18.4407552 110.434082,18.0908203 C109.962077,17.5374349 109.632487,16.8558757 109.445312,16.0461426 C109.258138,15.2364095 109.123861,14.465332 109.04248,13.7329102 C109.04248,13.7084961 109.04248,13.684082 109.04248,13.659668 C109.009928,13.4724935 108.9611,13.3789062 108.895996,13.3789062 C108.830892,13.3789062 108.761719,13.4338379 108.688477,13.5437012 C108.615234,13.6535645 108.55013,13.7532552 108.493164,13.8427734 C108.493164,13.8509115 108.489095,13.8590495 108.480957,13.8671875 C108.122884,14.4856771 107.732259,15.0655111 107.309082,15.6066895 C106.885905,16.1478678 106.385417,16.6219076 105.807617,17.0288086 C105.636719,17.1427409 105.449544,17.199707 105.246094,17.199707 C104.798503,17.199707 104.379395,16.9840495 103.98877,16.5527344 C103.826009,16.3330078 103.693766,16.0929362 103.592041,15.8325195 C103.490316,15.5721029 103.41097,15.3320312 103.354004,15.1123047 C103.305176,14.9576823 103.262451,14.831543 103.22583,14.7338867 C103.189209,14.6362305 103.154622,14.5874023 103.12207,14.5874023 C103.065104,14.5874023 103,14.7054036 102.926758,14.9414062 C102.861654,15.1774089 102.755859,15.5069987 102.609375,15.9301758 C102.462891,16.3533529 102.287923,16.7582194 102.084473,17.1447754 C101.881022,17.5313314 101.669434,17.7897135 101.449707,17.9199219 C101.335775,17.96875 101.225911,17.9931641 101.120117,17.9931641 C100.908529,17.9931641 100.725423,17.8995768 100.570801,17.7124023 C100.334798,17.3543294 100.212728,16.9677734 100.20459,16.5527344 C100.188314,16.2597656 100.180176,15.9708659 100.180176,15.6860352 C100.180176,14.7827148 100.302246,13.8956706 100.546387,13.0249023 C100.562663,12.9597982 100.585042,12.8967285 100.613525,12.8356934 C100.642008,12.7746582 100.692871,12.7441406 100.766113,12.7441406 L100.802734,12.7441406 C101.014323,12.7848307 101.120117,12.8662109 101.120117,12.9882812 C101.120117,13.0940755 101.079427,13.2242839 100.998047,13.3789062 C100.932943,13.5335286 100.875977,13.7044271 100.827148,13.8916016 C100.729492,14.4205729 100.680664,14.9454753 100.680664,15.4663086 C100.680664,15.7185872 100.684733,15.9871419 100.692871,16.2719727 C100.692871,16.3289388 100.705078,16.4530436 100.729492,16.6442871 C100.753906,16.8355306 100.794596,17.0186361 100.851562,17.1936035 C100.908529,17.368571 100.98584,17.4560547 101.083496,17.4560547 C101.132324,17.4560547 101.185221,17.4316406 101.242188,17.3828125 C101.388672,17.2363281 101.543294,16.973877 101.706055,16.595459 C101.868815,16.217041 102.017334,15.8284505 102.151611,15.4296875 C102.285889,15.0309245 102.38151,14.7257487 102.438477,14.5141602 C102.536133,14.1642253 102.625651,13.8183594 102.707031,13.4765625 C102.763997,13.2405599 102.825033,13.0086263 102.890137,12.7807617 C102.914551,12.6912435 102.955241,12.6281738 103.012207,12.5915527 C103.069173,12.5549316 103.126139,12.5366211 103.183105,12.5366211 C103.240072,12.5366211 103.290934,12.5488281 103.335693,12.5732422 C103.380452,12.5976562 103.415039,12.6261393 103.439453,12.6586914 C103.569661,12.902832 103.646973,13.2486979 103.671387,13.6962891 C103.703939,14.0218099 103.762939,14.4002279 103.848389,14.831543 C103.933838,15.2628581 104.098633,15.7348633 104.342773,16.2475586 C104.529948,16.5812174 104.757812,16.7480469 105.026367,16.7480469 C105.205404,16.7480469 105.400716,16.6748047 105.612305,16.5283203 C106.149414,16.1051432 106.597005,15.6351725 106.955078,15.1184082 C107.313151,14.6016439 107.64681,14.0625 107.956055,13.5009766 C108.175781,13.0940755 108.411784,12.6912435 108.664062,12.2924805 C108.891927,11.9262695 109.013997,11.5397135 109.030273,11.1328125 C109.062826,10.0179036 109.221517,8.72395833 109.506348,7.25097656 C109.791178,5.77799479 110.19401,4.55322266 110.714844,3.57666016 C110.722982,3.56852214 110.727051,3.56038411 110.727051,3.55224609 C110.800293,3.40576172 110.879639,3.2796224 110.965088,3.17382812 C111.050537,3.06803385 111.170573,3.01513672 111.325195,3.01513672 C111.382161,3.01513672 111.439128,3.02327474 111.496094,3.03955078 C111.658854,3.08024089 111.774821,3.19213867 111.843994,3.37524414 C111.913167,3.55834961 111.947754,3.7882487 111.947754,4.06494141 C111.947754,4.60205078 111.858236,5.2347819 111.679199,5.96313477 C111.500163,6.69148763 111.317057,7.35066732 111.129883,7.94067383 C110.942708,8.53068034 110.8125,8.91113281 110.739258,9.08203125 C110.470703,9.82259115 110.169596,10.550944 109.835938,11.2670898 C109.640625,11.714681 109.542969,12.1785482 109.542969,12.6586914 L109.542969,12.7441406 C109.559245,13.5823568 109.646729,14.4327799 109.80542,15.2954102 C109.964111,16.1580404 110.250977,16.9555664 110.666016,17.6879883 C110.885742,18.0297852 111.125814,18.2006836 111.38623,18.2006836 C111.654785,18.2006836 111.921305,18.0806478 112.185791,17.8405762 C112.450277,17.6005046 112.688314,17.3319499 112.899902,17.0349121 C113.111491,16.7378743 113.274251,16.4876302 113.388184,16.2841797 C113.876465,15.3971354 114.340332,14.3513997 114.779785,13.1469727 C114.779785,13.1388346 114.783854,13.1306966 114.791992,13.1225586 C114.824544,13.0167643 114.861165,12.9272461 114.901855,12.8540039 C114.942546,12.7807617 115.011719,12.7441406 115.109375,12.7441406 C115.158203,12.7441406 115.219238,12.7604167 115.29248,12.7929688 Z M109.811523,9.11865234 C109.803385,9.17561849 109.799316,9.2203776 109.799316,9.25292969 C109.799316,9.35058594 109.815592,9.39534505 109.848145,9.38720703 C109.896973,9.38720703 109.966146,9.2976888 110.055664,9.11865234 C110.373047,8.40250651 110.629395,7.66194661 110.824707,6.89697266 C110.865397,6.77490234 110.922363,6.55110677 110.995605,6.22558594 C111.068848,5.9000651 111.140055,5.55623372 111.209229,5.1940918 C111.278402,4.83194987 111.312988,4.55322266 111.312988,4.35791016 C111.312988,4.28466797 111.30485,4.22770182 111.288574,4.18701172 C111.272298,4.15445964 111.251953,4.13818359 111.227539,4.13818359 C111.178711,4.13818359 111.125814,4.17683919 111.068848,4.25415039 C111.011882,4.33146159 110.967122,4.41894531 110.93457,4.51660156 C110.356771,5.99772135 109.982422,7.53173828 109.811523,9.11865234 Z" id="Shape"></path>
            <path d="M115.451172,11.315918 C115.386068,11.4624023 115.308757,11.5356445 115.219238,11.5356445 C115.154134,11.5356445 115.095133,11.505127 115.042236,11.4440918 C114.989339,11.3830566 114.962891,11.3077799 114.962891,11.2182617 L114.962891,11.2060547 C114.979167,10.8723958 115.027995,10.542806 115.109375,10.2172852 C115.133789,10.152181 115.184652,10.1135254 115.261963,10.1013184 C115.339274,10.0891113 115.420654,10.0952148 115.506104,10.1196289 C115.591553,10.144043 115.650553,10.1847331 115.683105,10.2416992 C115.699382,10.2579753 115.70752,10.2823893 115.70752,10.3149414 C115.70752,10.3393555 115.70752,10.3637695 115.70752,10.3881836 C115.691243,10.4370117 115.674967,10.4858398 115.658691,10.534668 C115.593587,10.7950846 115.524414,11.0555013 115.451172,11.315918 Z M115.780762,17.2241211 C115.284342,17.1020508 114.94458,16.8111165 114.761475,16.3513184 C114.578369,15.8915202 114.486816,15.3849284 114.486816,14.831543 C114.486816,14.4083659 114.521403,13.9994303 114.590576,13.6047363 C114.659749,13.2100423 114.726888,12.886556 114.791992,12.6342773 C114.816406,12.5610352 114.846924,12.5020345 114.883545,12.4572754 C114.920166,12.4125163 114.987305,12.3860677 115.084961,12.3779297 C115.353516,12.3779297 115.487793,12.4633789 115.487793,12.6342773 C115.487793,12.6505534 115.487793,12.6708984 115.487793,12.6953125 C115.422689,12.9150391 115.345378,13.264974 115.255859,13.7451172 C115.166341,14.2252604 115.121582,14.7054036 115.121582,15.1855469 C115.121582,15.5761719 115.172445,15.9200033 115.27417,16.217041 C115.375895,16.5140788 115.561035,16.6951497 115.82959,16.7602539 C115.878418,16.7683919 115.935384,16.7724609 116.000488,16.7724609 C116.326009,16.7724609 116.698324,16.6341146 117.117432,16.3574219 C117.53654,16.0807292 117.955648,15.7430013 118.374756,15.3442383 C118.793864,14.9454753 119.170247,14.5528158 119.503906,14.1662598 C119.837565,13.7797038 120.089844,13.4643555 120.260742,13.2202148 C120.285156,13.1795247 120.30957,13.1388346 120.333984,13.0981445 C120.374674,13.0249023 120.419434,12.9577637 120.468262,12.8967285 C120.51709,12.8356934 120.574056,12.8051758 120.63916,12.8051758 C120.655436,12.8051758 120.671712,12.8092448 120.687988,12.8173828 C120.712402,12.8173828 120.74292,12.8234863 120.779541,12.8356934 C120.816162,12.8479004 120.850749,12.8641764 120.883301,12.8845215 C120.915853,12.9048665 120.932129,12.9272461 120.932129,12.9516602 L120.932129,12.9638672 C120.753092,13.297526 120.474365,13.7003581 120.095947,14.1723633 C119.717529,14.6443685 119.290283,15.1143392 118.814209,15.5822754 C118.338135,16.0502116 117.853923,16.4449056 117.361572,16.7663574 C116.869222,17.0878092 116.419596,17.2485352 116.012695,17.2485352 C115.931315,17.2485352 115.854004,17.2403971 115.780762,17.2241211 Z" id="Shape"></path>
        </g>
    </g>
</svg>